SplineFontDB: 3.0
FontName: Plaster-Regular
FullName: Plaster
FamilyName: Plaster
Weight: Book
Copyright: Copyright (c) 2011, Sorkin Type Co (www.sorkintype.com) with Reserved Font Name "Plaster"
Version: 1.007
ItalicAngle: 0
UnderlinePosition: -91
UnderlineWidth: 164
Ascent: 1638
Descent: 410
sfntRevision: 0x000101ca
LayerCount: 2
Layer: 0 1 "Back"  1
Layer: 1 1 "Fore"  0
XUID: [1021 232 546641083 16251005]
FSType: 0
OS2Version: 3
OS2_WeightWidthSlopeOnly: 0
OS2_UseTypoMetrics: 1
CreationTime: 1324615800
ModificationTime: 1324599034
PfmFamily: 81
TTFWeight: 400
TTFWidth: 5
LineGap: 0
VLineGap: 0
Panose: 4 0 8 5 0 0 0 0 0 0
OS2TypoAscent: 362
OS2TypoAOffset: 1
OS2TypoDescent: -150
OS2TypoDOffset: 1
OS2TypoLinegap: 0
OS2WinAscent: 0
OS2WinAOffset: 1
OS2WinDescent: 0
OS2WinDOffset: 1
HheadAscent: 0
HheadAOffset: 1
HheadDescent: 0
HheadDOffset: 1
OS2SubXSize: 1434
OS2SubYSize: 1331
OS2SubXOff: 0
OS2SubYOff: 287
OS2SupXSize: 1434
OS2SupYSize: 1331
OS2SupXOff: 0
OS2SupYOff: 977
OS2StrikeYSize: 328
OS2StrikeYPos: 496
OS2Vendor: 'STC '
OS2CodePages: 20000093.00000000
OS2UnicodeRanges: a00000af.4000204a.00000000.00000000
DEI: 91125
TtTable: prep
PUSHW_1
 511
SCANCTRL
PUSHB_1
 4
SCANTYPE
EndTTInstrs
TtTable: fpgm
PUSHB_1
 0
FDEF
MPPEM
PUSHB_1
 9
LT
IF
PUSHB_2
 1
 1
INSTCTRL
EIF
PUSHW_1
 511
SCANCTRL
PUSHB_1
 68
SCVTCI
PUSHB_2
 9
 3
SDS
SDB
ENDF
PUSHB_1
 1
FDEF
DUP
DUP
RCVT
ROUND[Black]
WCVTP
PUSHB_1
 1
ADD
ENDF
PUSHB_1
 2
FDEF
PUSHB_1
 1
LOOPCALL
POP
ENDF
PUSHB_1
 3
FDEF
DUP
GC[cur]
PUSHB_1
 3
CINDEX
GC[cur]
GT
IF
SWAP
EIF
DUP
ROLL
DUP
ROLL
MD[grid]
ABS
ROLL
DUP
GC[cur]
DUP
ROUND[Grey]
SUB
ABS
PUSHB_1
 4
CINDEX
GC[cur]
DUP
ROUND[Grey]
SUB
ABS
GT
IF
SWAP
NEG
ROLL
EIF
MDAP[rnd]
DUP
PUSHB_1
 0
GTEQ
IF
ROUND[Black]
DUP
PUSHB_1
 0
EQ
IF
POP
PUSHB_1
 64
EIF
ELSE
ROUND[Black]
DUP
PUSHB_1
 0
EQ
IF
POP
PUSHB_1
 64
NEG
EIF
EIF
MSIRP[no-rp0]
ENDF
PUSHB_1
 4
FDEF
DUP
GC[cur]
PUSHB_1
 4
CINDEX
GC[cur]
GT
IF
SWAP
ROLL
EIF
DUP
GC[cur]
DUP
ROUND[White]
SUB
ABS
PUSHB_1
 4
CINDEX
GC[cur]
DUP

StartChar: .notdef
Encoding: 65536 -1 0
Width: 1876
Flags: W
LayerCount: 2
Fore
SplineSet
170 1870 m 1,0,-1
 1700 1870 l 1,1,-1
 1700 -170 l 1,2,-1
 170 -170 l 1,3,-1
 170 1870 l 1,0,-1
480 557 m 1,4,-1
 616 421 l 1,5,-1
 944 748 l 1,6,-1
 1272 421 l 1,7,-1
 1408 557 l 1,8,-1
 1080 884 l 1,9,-1
 1408 1212 l 1,10,-1
 1271 1348 l 1,11,-1
 943 1020 l 1,12,-1
 616 1348 l 1,13,-1
 480 1212 l 1,14,-1
 807 884 l 1,15,-1
 480 557 l 1,4,-1
EndSplineSet
EndChar

StartChar: exclam
Encoding: 33 33 23
Width: 1194
GlyphClass: 2
Flags: W
LayerCount: 2
Fore
SplineSet
282 1700 m 1,0,-1
 912 1700 l 1,1,-1
 873 679 l 1,2,-1
 322 679 l 1,3,-1
 282 1700 l 1,0,-1
610 0 m 0,4,5
 279 0 279 0 279 207 c 0,6,7
 279 313 279 313 358 359.5 c 128,-1,8
 437 406 437 406 599 406 c 128,-1,9
 761 406 761 406 838 359.5 c 128,-1,10
 915 313 915 313 915 206.5 c 128,-1,11
 915 100 915 100 843.5 50 c 128,-1,12
 772 0 772 0 610 0 c 0,4,5
EndSplineSet
EndChar

StartChar: quotedbl
Encoding: 34 34 24
Width: 1874
GlyphClass: 2
Flags: W
LayerCount: 2
Fore
SplineSet
1479 1422 m 2,0,1
 1479 1296 1479 1296 1406 1030 c 1,2,-1
 1098 1030 l 1,3,4
 1024 1291 1024 1291 1024 1422 c 2,5,-1
 1024 1585 l 1,6,-1
 1479 1585 l 1,7,-1
 1479 1422 l 2,0,1
852 1422 m 2,8,9
 852 1296 852 1296 779 1030 c 1,10,-1
 469 1030 l 1,11,12
 395 1291 395 1291 395 1422 c 2,13,-1
 395 1585 l 1,14,-1
 852 1585 l 1,15,-1
 852 1422 l 2,8,9
EndSplineSet
EndChar

StartChar: numbersign
Encoding: 35 35 25
Width: 1874
GlyphClass: 2
Flags: W
LayerCount: 2
Fore
SplineSet
564 469 m 1,0,-1
 346 469 l 1,1,-1
 365 660 l 1,2,-1
 586 660 l 1,3,-1
 617 923 l 1,4,-1
 388 923 l 1,5,-1
 407 1117 l 1,6,-1
 640 1117 l 1,7,-1
 696 1588 l 1,8,-1
 887 1588 l 1,9,-1
 831 1117 l 1,10,-1
 1127 1116 l 1,11,-1
 1183 1588 l 1,12,-1
 1375 1588 l 1,13,-1
 1319 1116 l 1,14,-1
 1527 1116 l 1,15,-1
 1509 923 l 1,16,-1
 1296 923 l 1,17,-1
 1265 660 l 1,18,-1
 1484 660 l 1,19,-1
 1467 469 l 1,20,-1
 1243 469 l 1,21,-1
 1188 0 l 1,22,-1
 995 0 l 1,23,-1
 1050 469 l 1,24,-1
 756 469 l 1,25,-1
 701 0 l 1,26,-1
 509 0 l 1,27,-1
 564 469 l 1,0,-1
1073 660 m 1,28,-1
 1104 923 l 1,29,-1
 809 923 l 1,30,-1
 778 660 l 1,31,-1
 1073 660 l 1,28,-1
EndSplineSet
EndChar

StartChar: dollar
Encoding: 36 36 26
Width: 1874
GlyphClass: 2
Flags: W
LayerCount: 2
Fore
SplineSet
972 1837 m 1,0,-1
 1237 1837 l 1,1,-1
 1201 1530 l 1,2,-1
 938 1530 l 1,3,-1
 972 1837 l 1,0,-1
1605 1361 m 1,4,-1
 1605 680 l 1,5,-1
 959 1361 l 1,6,-1
 1605 1361 l 1,4,-1
269 959 m 1,7,8
 269 1165 269 1165 388.5 1263 c 128,-1,9
 508 1361 508 1361 756 1361 c 1,10,-1
 1605 367 l 1,11,12
 1605 169 1605 169 1490 84 c 1,13,14
 1380 1 1380 1 1128 1 c 1,15,-1
 275 959 l 1,16,-1
 269 959 l 1,7,8
272 685 m 1,17,-1
 895 0 l 1,18,-1
 272 0 l 1,19,-1
 272 685 l 1,17,-1
1041 -167 m 1,20,-1
 1008 -450 l 1,21,-1
 744 -450 l 1,22,-1
 778 -167 l 1,23,-1
 1041 -167 l 1,20,-1
EndSplineSet
EndChar

StartChar: percent
Encoding: 37 37 27
Width: 2740
GlyphClass: 2
Flags: W
LayerCount: 2
Fore
SplineSet
1580 1709 m 1,0,-1
 1818 1644 l 1,1,-1
 1161 -340 l 1,2,-1
 923 -274 l 1,3,-1
 1580 1709 l 1,0,-1
748 1330 m 1,4,-1
 787 1330 l 2,5,6
 983 1330 983 1330 1035 1193 c 0,7,8
 1052 1150 1052 1150 1052 1096 c 2,9,-1
 1052 732 l 1,10,11
 1053 623 1053 623 986 560 c 128,-1,12
 919 497 919 497 787 497 c 2,13,-1
 748 497 l 1,14,-1
 748 1330 l 1,4,-1
532 497 m 2,15,16
 399 497 399 497 332 560 c 128,-1,17
 265 623 265 623 266 732 c 1,18,-1
 266 1096 l 2,19,20
 266 1264 266 1264 416 1314 c 0,21,22
 466 1330 466 1330 532 1330 c 2,23,-1
 571 1330 l 1,24,-1
 571 497 l 1,25,-1
 532 497 l 2,15,16
2170 827 m 1,26,-1
 2211 827 l 2,27,28
 2406 827 2406 827 2459 690 c 0,29,30
 2475 647 2475 647 2475 593 c 2,31,-1
 2475 222 l 2,32,33
 2475 54 2475 54 2325 4 c 0,34,35
 2276 -12 2276 -12 2211 -12 c 2,36,-1
 2170 -12 l 1,37,-1
 2170 827 l 1,26,-1
1689 593 m 1,38,39
 1688 701 1688 701 1755.5 764 c 128,-1,40
 1823 827 1823 827 1954 827 c 2,41,-1
 1993 827 l 1,42,-1
 1993 -12 l 1,43,-1
 1954 -12 l 2,44,45
 1823 -12 1823 -12 1755.5 51 c 128,-1,46
 1688 114 1688 114 1689 222 c 1,47,-1
 1689 593 l 1,38,39
EndSplineSet
EndChar

StartChar: ampersand
Encoding: 38 38 28
Width: 1534
GlyphClass: 2
Flags: W
LayerCount: 2
Fore
SplineSet
822 680 m 1,0,-1
 822 1361 l 1,1,-1
 899 1361 l 2,2,3
 1120 1361 1120 1361 1257 1255 c 0,4,5
 1385 1156 1385 1156 1385 1020 c 256,6,7
 1385 884 1385 884 1254 787 c 0,8,9
 1109 680 1109 680 874 680 c 2,10,-1
 917 680 l 2,11,12
 1061 680 1061 680 1160 669 c 128,-1,13
 1259 658 1259 658 1320 622.5 c 128,-1,14
 1381 587 1381 587 1408 519.5 c 128,-1,15
 1435 452 1435 452 1435 340 c 2,16,-1
 1435 0 l 1,17,-1
 1334 0 l 2,18,19
 1047 0 1047 0 935 86 c 0,20,21
 823 173 823 173 823 398 c 2,22,-1
 822 680 l 1,0,-1
295 767 m 1,23,24
 120 854 120 854 120 1019 c 0,25,26
 120 1164 120 1164 228 1255 c 1,27,28
 352 1361 352 1361 595 1361 c 2,29,-1
 672 1361 l 1,30,-1
 672 0 l 1,31,-1
 595 0 l 2,32,33
 342 0 342 0 208 117 c 1,34,35
 78 229 78 229 78 427 c 0,36,37
 78 667 78 667 295 767 c 1,23,24
EndSplineSet
EndChar

StartChar: quotesingle
Encoding: 39 39 29
Width: 1022
GlyphClass: 2
Flags: W
LayerCount: 2
Fore
SplineSet
355 1030 m 1,0,1
 261 1288 261 1288 261 1422 c 2,2,-1
 261 1585 l 1,3,-1
 757 1585 l 1,4,-1
 757 1422 l 2,5,6
 757 1300 757 1300 662 1030 c 1,7,-1
 355 1030 l 1,0,1
EndSplineSet
EndChar

StartChar: parenleft
Encoding: 40 40 30
Width: 1195
GlyphClass: 2
Flags: W
LayerCount: 2
Fore
SplineSet
162 592 m 0,0,1
 162 1104 162 1104 472 1357 c 1,2,3
 638 1494 638 1494 856 1526 c 0,4,5
 914 1534 914 1534 958 1534 c 1,6,-1
 958 1360 l 1,7,8
 774 1360 774 1360 605 1228 c 0,9,10
 458 1113 458 1113 392 882 c 0,11,12
 358 760 358 760 358 592 c 0,13,14
 358 286 358 286 482 94 c 1,15,16
 577 -55 577 -55 740 -126 c 1,17,18
 851 -176 851 -176 958 -176 c 1,19,-1
 958 -350 l 1,20,21
 781 -350 781 -350 602 -259 c 0,22,23
 459 -187 459 -187 352 -51 c 1,24,25
 162 187 162 187 162 592 c 0,0,1
EndSplineSet
EndChar

StartChar: parenright
Encoding: 41 41 31
Width: 1195
GlyphClass: 2
Flags: W
LayerCount: 2
Fore
SplineSet
224 -176 m 1,0,1
 407 -176 407 -176 577 -44 c 0,2,3
 724 69 724 69 790 302 c 0,4,5
 824 424 824 424 824 592 c 0,6,7
 824 897 824 897 700 1090 c 0,8,9
 604 1239 604 1239 442 1310 c 1,10,11
 331 1360 331 1360 224 1360 c 1,12,-1
 224 1534 l 1,13,14
 401 1534 401 1534 580 1443 c 0,15,16
 721 1372 721 1372 830 1234 c 1,17,18
 1020 998 1020 998 1020 592 c 0,19,20
 1020 78 1020 78 710 -174 c 0,21,22
 542 -310 542 -310 326 -342 c 0,23,24
 268 -350 268 -350 224 -350 c 1,25,-1
 224 -176 l 1,0,1
EndSplineSet
EndChar

StartChar: asterisk
Encoding: 42 42 32
Width: 1366
GlyphClass: 2
Flags: W
LayerCount: 2
Fore
SplineSet
224 799 m 1,0,-1
 297 900 l 1,1,2
 333 948 333 948 387 989 c 2,3,-1
 465 1047 l 1,4,5
 521 1087 521 1087 585 1128 c 1,6,7
 317 1121 317 1121 215 1153 c 2,8,-1
 94 1191 l 1,9,-1
 190 1491 l 1,10,-1
 313 1453 l 2,11,12
 364 1437 364 1437 423 1395 c 2,13,-1
 506 1335 l 2,14,15
 563 1293 563 1293 623 1243 c 1,16,17
 524 1501 524 1501 524 1609 c 2,18,-1
 524 1734 l 1,19,-1
 840 1734 l 1,20,-1
 840 1609 l 2,21,22
 840 1552 840 1552 820 1483 c 2,23,-1
 791 1385 l 2,24,25
 770 1316 770 1316 743 1243 c 1,26,27
 802 1293 802 1293 842 1323 c 2,28,-1
 910 1372 l 1,29,30
 1005 1438 1005 1438 1054 1453 c 2,31,-1
 1174 1491 l 1,32,-1
 1272 1191 l 1,33,-1
 1152 1151 l 1,34,35
 1052 1121 1052 1121 782 1128 c 1,36,37
 1001 990 1001 990 1069 899 c 2,38,-1
 1143 800 l 1,39,-1
 890 615 l 1,40,-1
 815 719 l 1,41,-1
 684 1057 l 1,42,43
 607 789 607 789 552 716 c 1,44,-1
 478 615 l 1,45,-1
 224 799 l 1,0,-1
EndSplineSet
EndChar

StartChar: plus
Encoding: 43 43 33
Width: 1538
GlyphClass: 2
Flags: W
LayerCount: 2
Fore
SplineSet
259 650 m 1,0,-1
 685 650 l 1,1,-1
 685 1109 l 1,2,-1
 855 1109 l 1,3,-1
 855 650 l 1,4,-1
 1279 650 l 1,5,-1
 1279 479 l 1,6,-1
 855 479 l 1,7,-1
 855 50 l 1,8,-1
 685 50 l 1,9,-1
 685 479 l 1,10,-1
 259 479 l 1,11,-1
 259 650 l 1,0,-1
EndSplineSet
EndChar

StartChar: comma
Encoding: 44 44 34
Width: 854
GlyphClass: 2
Flags: W
LayerCount: 2
Fore
SplineSet
412 0 m 1,0,1
 109 8 109 8 109 207 c 0,2,3
 109 313 109 313 188 359.5 c 128,-1,4
 267 406 267 406 431 406 c 0,5,6
 746 406 746 406 746 207 c 2,7,-1
 746 24 l 2,8,9
 746 -78 746 -78 641 -156 c 0,10,11
 540 -230 540 -230 412 -230 c 1,12,-1
 412 0 l 1,0,1
EndSplineSet
EndChar

StartChar: hyphen
Encoding: 45 45 35
Width: 1538
GlyphClass: 2
Flags: W
LayerCount: 2
Fore
SplineSet
170 650 m 1,0,-1
 1360 650 l 1,1,-1
 1360 479 l 1,2,-1
 170 479 l 1,3,-1
 170 650 l 1,0,-1
EndSplineSet
EndChar

StartChar: period
Encoding: 46 46 36
Width: 854
GlyphClass: 2
Flags: W
LayerCount: 2
Fore
SplineSet
440 0 m 0,0,1
 109 0 109 0 109 207 c 0,2,3
 109 313 109 313 188 359.5 c 128,-1,4
 267 406 267 406 429 406 c 128,-1,5
 591 406 591 406 668 359.5 c 128,-1,6
 745 313 745 313 745 206.5 c 128,-1,7
 745 100 745 100 673.5 50 c 128,-1,8
 602 0 602 0 440 0 c 0,0,1
EndSplineSet
EndChar

StartChar: slash
Encoding: 47 47 37
Width: 1018
GlyphClass: 2
Flags: W
LayerCount: 2
Fore
SplineSet
606 1521 m 1,0,-1
 824 1521 l 1,1,-1
 410 -166 l 1,2,-1
 193 -166 l 1,3,-1
 606 1521 l 1,0,-1
EndSplineSet
EndChar

StartChar: zero
Encoding: 48 48 38
Width: 1874
GlyphClass: 2
Flags: W
LayerCount: 2
Fore
SplineSet
1019 1361 m 1,0,-1
 1097 1361 l 2,1,2
 1398 1361 1398 1361 1520 1204 c 0,3,4
 1635 1057 1635 1057 1635 720 c 0,5,6
 1635 351 1635 351 1520 184 c 0,7,8
 1394 0 1394 0 1097 0 c 2,9,-1
 1019 0 l 1,10,-1
 1019 1361 l 1,0,-1
240 714 m 0,11,12
 240 884 240 884 266.5 1004.5 c 128,-1,13
 293 1125 293 1125 355 1204 c 0,14,15
 477 1361 477 1361 778 1361 c 2,16,-1
 856 1361 l 1,17,-1
 856 0 l 1,18,-1
 778 0 l 2,19,20
 481 0 481 0 355 184 c 0,21,22
 240 351 240 351 240 714 c 0,11,12
EndSplineSet
EndChar

StartChar: one
Encoding: 49 49 39
Width: 1192
GlyphClass: 2
Flags: W
LayerCount: 2
Fore
SplineSet
301 1241 m 1,0,-1
 891 1405 l 1,1,-1
 891 0 l 1,2,-1
 301 0 l 1,3,-1
 301 1241 l 1,0,-1
EndSplineSet
EndChar

StartChar: two
Encoding: 50 50 40
Width: 1874
GlyphClass: 2
Flags: W
LayerCount: 2
Fore
SplineSet
1021 1361 m 1,0,-1
 1095 1361 l 2,1,2
 1406 1361 1406 1361 1539 1260 c 0,3,4
 1674 1158 1674 1158 1674 922 c 0,5,6
 1674 617 1674 617 1362 553 c 0,7,8
 1259 532 1259 532 1123 532 c 2,9,-1
 1021 532 l 1,10,-1
 1021 1361 l 1,0,-1
288 966 m 2,11,12
 288 1167 288 1167 428 1270 c 0,13,14
 553 1361 553 1361 768 1361 c 2,15,-1
 893 1361 l 1,16,-1
 893 900 l 1,17,-1
 288 900 l 1,18,-1
 288 966 l 2,11,12
288 336 m 2,19,20
 288 537 288 537 428 640 c 0,21,22
 553 731 553 731 768 731 c 2,23,-1
 893 731 l 1,24,-1
 893 0 l 1,25,-1
 288 0 l 1,26,-1
 288 336 l 2,19,20
1034 331 m 1,27,-1
 1623 331 l 1,28,-1
 1623 0 l 1,29,-1
 1034 0 l 1,30,-1
 1034 331 l 1,27,-1
EndSplineSet
EndChar

StartChar: three
Encoding: 51 51 41
Width: 1874
GlyphClass: 2
Flags: W
LayerCount: 2
Fore
SplineSet
1007 611 m 1,0,-1
 825 611 l 1,1,-1
 825 778 l 1,2,-1
 1007 778 l 1,3,-1
 1007 1361 l 1,4,-1
 1084 1361 l 2,5,6
 1332 1361 1332 1361 1460 1253 c 0,7,8
 1579 1153 1579 1153 1579 974 c 0,9,10
 1579 755 1579 755 1293 689 c 1,11,12
 1538 639 1538 639 1600 484 c 0,13,14
 1619 437 1619 437 1619 366 c 128,-1,15
 1619 295 1619 295 1586 223 c 128,-1,16
 1553 151 1553 151 1488 102 c 0,17,18
 1355 0 1355 0 1099 0 c 2,19,-1
 1007 0 l 1,20,-1
 1007 611 l 1,0,-1
288 966 m 2,21,22
 288 1167 288 1167 428 1270 c 0,23,24
 553 1361 553 1361 768 1361 c 2,25,-1
 893 1361 l 1,26,-1
 893 900 l 1,27,-1
 288 900 l 1,28,-1
 288 966 l 2,21,22
288 461 m 1,29,-1
 893 461 l 1,30,-1
 893 0 l 1,31,-1
 768 0 l 2,32,33
 432 0 432 0 326 214 c 0,34,35
 288 289 288 289 288 395 c 2,36,-1
 288 461 l 1,29,-1
EndSplineSet
EndChar

StartChar: four
Encoding: 52 52 42
Width: 1874
GlyphClass: 2
Flags: W
LayerCount: 2
Fore
SplineSet
284 853 m 2,0,1
 284 1218 284 1218 578 1324 c 0,2,3
 680 1361 680 1361 824 1361 c 2,4,-1
 889 1361 l 1,5,-1
 889 341 l 1,6,-1
 284 341 l 1,7,-1
 284 853 l 2,0,1
1046 1020 m 1,8,-1
 1579 1020 l 1,9,-1
 1579 0 l 1,10,-1
 1046 0 l 1,11,-1
 1046 1020 l 1,8,-1
EndSplineSet
EndChar

StartChar: five
Encoding: 53 53 43
Width: 1874
GlyphClass: 2
Flags: W
LayerCount: 2
Fore
SplineSet
1034 1361 m 1,0,-1
 1623 1361 l 1,1,-1
 1623 1080 l 1,2,-1
 1034 1080 l 1,3,-1
 1034 1361 l 1,0,-1
288 1361 m 1,4,-1
 893 1361 l 1,5,-1
 893 680 l 1,6,-1
 288 681 l 1,7,-1
 288 1361 l 1,4,-1
1021 869 m 1,8,-1
 1123 869 l 2,9,10
 1395 869 1395 869 1534.5 756 c 128,-1,11
 1674 643 1674 643 1674 429 c 0,12,13
 1674 194 1674 194 1539 96 c 0,14,15
 1407 0 1407 0 1095 0 c 2,16,-1
 1021 0 l 1,17,-1
 1021 869 l 1,8,-1
288 461 m 1,18,-1
 893 461 l 1,19,-1
 893 0 l 1,20,-1
 768 0 l 2,21,22
 432 0 432 0 326 214 c 0,23,24
 288 289 288 289 288 395 c 2,25,-1
 288 461 l 1,18,-1
EndSplineSet
EndChar

StartChar: six
Encoding: 54 54 44
Width: 1874
GlyphClass: 2
Flags: W
LayerCount: 2
Fore
SplineSet
1021 1361 m 1,0,-1
 1626 1361 l 1,1,-1
 1626 894 l 1,2,-1
 1561 894 l 2,3,4
 1274 894 1274 894 1148 986 c 1,5,6
 1021 1077 1021 1077 1021 1289 c 2,7,-1
 1021 1361 l 1,0,-1
778 0 m 2,8,9
 240 0 240 0 240 708 c 0,10,11
 240 1048 240 1048 374.5 1204.5 c 128,-1,12
 509 1361 509 1361 778 1361 c 2,13,-1
 856 1361 l 1,14,-1
 856 0 l 1,15,-1
 778 0 l 2,8,9
1021 742 m 1,16,-1
 1123 742 l 2,17,18
 1412 742 1412 742 1534 672 c 1,19,20
 1674 593 1674 593 1674 389 c 0,21,22
 1674 159 1674 159 1539 76 c 0,23,24
 1415 0 1415 0 1095 0 c 2,25,-1
 1021 0 l 1,26,-1
 1021 742 l 1,16,-1
EndSplineSet
EndChar

StartChar: seven
Encoding: 55 55 45
Width: 1874
GlyphClass: 2
Flags: W
LayerCount: 2
Fore
SplineSet
1025 1361 m 1,0,-1
 1612 1361 l 1,1,-1
 1292 2 l 1,2,-1
 704 2 l 1,3,-1
 1025 1361 l 1,0,-1
211 1360 m 1,4,-1
 807 1360 l 1,5,-1
 807 1123 l 2,6,7
 807 1012 807 1012 787 957.5 c 128,-1,8
 767 903 767 903 738.5 868 c 128,-1,9
 710 833 710 833 662 808 c 0,10,11
 559 753 559 753 379 753 c 2,12,-1
 211 753 l 1,13,-1
 211 1360 l 1,4,-1
EndSplineSet
EndChar

StartChar: eight
Encoding: 56 56 46
Width: 1874
GlyphClass: 2
Flags: W
LayerCount: 2
Fore
SplineSet
1436 688 m 1,0,1
 1639 607 1639 607 1639 406 c 0,2,3
 1639 220 1639 220 1498 112 c 0,4,5
 1352 0 1352 0 1099 0 c 2,6,-1
 1007 0 l 1,7,-1
 1007 1361 l 1,8,-1
 1084 1361 l 2,9,10
 1333 1361 1333 1361 1471 1238 c 0,11,12
 1599 1124 1599 1124 1599 948.5 c 128,-1,13
 1599 773 1599 773 1438 688 c 1,14,-1
 1436 688 l 1,0,1
424 688 m 1,15,16
 264 772 264 772 264 944 c 0,17,18
 264 1124 264 1124 392 1238 c 0,19,20
 530 1361 530 1361 779 1361 c 2,21,-1
 856 1361 l 1,22,-1
 856 0 l 1,23,-1
 764 0 l 2,24,25
 511 0 511 0 365 112 c 0,26,27
 224 220 224 220 224 413.5 c 128,-1,28
 224 607 224 607 426 688 c 1,29,-1
 424 688 l 1,15,16
EndSplineSet
EndChar

StartChar: nine
Encoding: 57 57 47
Width: 1874
GlyphClass: 2
Flags: W
LayerCount: 2
Fore
SplineSet
1058 1361 m 1,0,-1
 1136 1361 l 2,1,2
 1547 1361 1547 1361 1642 978 c 0,3,4
 1674 848 1674 848 1674 671 c 0,5,6
 1674 343 1674 343 1539.5 171.5 c 128,-1,7
 1405 0 1405 0 1136 0 c 2,8,-1
 1058 0 l 1,9,-1
 1058 1361 l 1,0,-1
275 771 m 128,-1,11
 240 835 240 835 240 947.5 c 128,-1,12
 240 1060 240 1060 272.5 1140.5 c 128,-1,13
 305 1221 305 1221 375 1270 c 0,14,15
 505 1361 505 1361 819 1361 c 2,16,-1
 893 1361 l 1,17,-1
 893 619 l 1,18,-1
 791 619 l 2,19,20
 493 619 493 619 380 674 c 0,21,10
 310 707 310 707 275 771 c 128,-1,11
288 467 m 1,22,-1
 893 467 l 1,23,-1
 893 0 l 1,24,-1
 828 0 l 2,25,26
 541 0 541 0 414 92 c 0,27,28
 288 183 288 183 288 395 c 2,29,-1
 288 467 l 1,22,-1
EndSplineSet
EndChar

StartChar: colon
Encoding: 58 58 48
Width: 854
GlyphClass: 2
Flags: W
LayerCount: 2
Fore
SplineSet
440 688 m 0,0,1
 109 688 109 688 109 895 c 0,2,3
 109 1001 109 1001 188 1047.5 c 128,-1,4
 267 1094 267 1094 429 1094 c 128,-1,5
 591 1094 591 1094 668 1047.5 c 128,-1,6
 745 1001 745 1001 745 894.5 c 128,-1,7
 745 788 745 788 673.5 738 c 128,-1,8
 602 688 602 688 440 688 c 0,0,1
440 0 m 0,9,10
 109 0 109 0 109 207 c 0,11,12
 109 313 109 313 188 359.5 c 128,-1,13
 267 406 267 406 429 406 c 128,-1,14
 591 406 591 406 668 359.5 c 128,-1,15
 745 313 745 313 745 206.5 c 128,-1,16
 745 100 745 100 673.5 50 c 128,-1,17
 602 0 602 0 440 0 c 0,9,10
EndSplineSet
EndChar

StartChar: semicolon
Encoding: 59 59 49
Width: 854
GlyphClass: 2
Flags: W
LayerCount: 2
Fore
SplineSet
440 688 m 0,0,1
 109 688 109 688 109 895 c 0,2,3
 109 1001 109 1001 188 1047.5 c 128,-1,4
 267 1094 267 1094 429 1094 c 128,-1,5
 591 1094 591 1094 668 1047.5 c 128,-1,6
 745 1001 745 1001 745 894.5 c 128,-1,7
 745 788 745 788 673.5 738 c 128,-1,8
 602 688 602 688 440 688 c 0,0,1
412 0 m 1,9,10
 109 8 109 8 109 207 c 0,11,12
 109 313 109 313 188 359.5 c 128,-1,13
 267 406 267 406 431 406 c 0,14,15
 746 406 746 406 746 207 c 2,16,-1
 746 24 l 2,17,18
 746 -78 746 -78 641 -156 c 0,19,20
 540 -230 540 -230 412 -230 c 1,21,-1
 412 0 l 1,9,10
EndSplineSet
EndChar

StartChar: less
Encoding: 60 60 50
Width: 1358
GlyphClass: 2
Flags: W
LayerCount: 2
Fore
SplineSet
918 1114 m 1,0,-1
 1053 978 l 1,1,-1
 587 548 l 1,2,-1
 1053 135 l 1,3,-1
 918 -1 l 1,4,-1
 305 548 l 1,5,-1
 918 1114 l 1,0,-1
EndSplineSet
EndChar

StartChar: equal
Encoding: 61 61 51
Width: 1538
GlyphClass: 2
Flags: W
LayerCount: 2
Fore
SplineSet
293 861 m 1,0,-1
 1245 861 l 1,1,-1
 1245 670 l 1,2,-1
 293 670 l 1,3,-1
 293 861 l 1,0,-1
293 461 m 1,4,-1
 1245 461 l 1,5,-1
 1245 267 l 1,6,-1
 293 267 l 1,7,-1
 293 461 l 1,4,-1
EndSplineSet
EndChar

StartChar: greater
Encoding: 62 62 52
Width: 1358
GlyphClass: 2
Flags: W
LayerCount: 2
Fore
SplineSet
772 548 m 1,0,-1
 305 978 l 1,1,-1
 429 1124 l 1,2,-1
 1053 548 l 1,3,-1
 429 -11 l 1,4,-1
 305 135 l 1,5,-1
 772 548 l 1,0,-1
EndSplineSet
EndChar

StartChar: question
Encoding: 63 63 53
Width: 1874
GlyphClass: 2
Flags: W
LayerCount: 2
Fore
SplineSet
1001 1869 m 1,0,-1
 1078 1869 l 2,1,2
 1324 1869 1324 1869 1456 1716 c 0,3,4
 1575 1579 1575 1579 1575 1351 c 0,5,6
 1575 1119 1575 1119 1443 987 c 0,7,8
 1305 849 1305 849 1053 849 c 2,9,-1
 1001 849 l 1,10,-1
 1001 1869 l 1,0,-1
299 1416 m 2,11,12
 299 1759 299 1759 564 1840 c 0,13,14
 657 1869 657 1869 787 1869 c 2,15,-1
 853 1869 l 1,16,-1
 853 1306 l 1,17,-1
 299 1306 l 1,18,-1
 299 1416 l 2,11,12
631 147 m 0,19,20
 631 233 631 233 718 282 c 0,21,22
 803 331 803 331 936 331 c 0,23,24
 1071 331 1071 331 1162 282 c 0,25,26
 1257 232 1257 232 1257 147 c 256,27,28
 1257 62 1257 62 1170 11 c 0,29,30
 1088 -38 1088 -38 955 -38 c 0,31,32
 821 -38 821 -38 729 11 c 0,33,34
 631 63 631 63 631 147 c 0,19,20
EndSplineSet
EndChar

StartChar: at
Encoding: 64 64 54
Width: 1874
GlyphClass: 2
Flags: W
LayerCount: 2
Fore
SplineSet
-26 25.5 m 128,-1,1
 -103 209 -103 209 -103 446.5 c 128,-1,2
 -103 684 -103 684 -19 853 c 128,-1,3
 65 1022 65 1022 215 1136 c 0,4,5
 521 1370 521 1370 1024 1370 c 0,6,7
 1515 1370 1515 1370 1758 1168 c 0,8,9
 1978 986 1978 986 1978 655 c 0,10,11
 1978 424 1978 424 1876 263 c 0,12,13
 1791 130 1791 130 1644 59 c 0,14,15
 1451 -33 1451 -33 1212 16 c 0,16,17
 1059 47 1059 47 1013 158 c 0,18,19
 990 214 990 214 990 294 c 2,20,-1
 990 827 l 1,21,-1
 1453 827 l 1,22,-1
 1453 188 l 1,23,24
 1637 213 1637 213 1710 444 c 0,25,26
 1738 530 1738 530 1738 651 c 128,-1,27
 1738 772 1738 772 1699 870 c 128,-1,28
 1660 968 1660 968 1574 1040 c 0,29,30
 1393 1191 1393 1191 1024 1191 c 0,31,32
 625 1191 625 1191 388 1006 c 0,33,34
 141 812 141 812 141 465 c 0,35,36
 141 -148 141 -148 634 -286 c 0,37,38
 792 -330 792 -330 944 -330 c 128,-1,39
 1096 -330 1096 -330 1187.5 -322.5 c 128,-1,40
 1279 -315 1279 -315 1356 -302 c 0,41,42
 1640 -254 1640 -254 1788 -147 c 1,43,-1
 1788 -374 l 1,44,45
 1650 -428 1650 -428 1537 -453 c 1,46,47
 1287 -506 1287 -506 1013 -506 c 128,-1,48
 739 -506 739 -506 537.5 -450 c 128,-1,49
 336 -394 336 -394 193.5 -276 c 128,-1,0
 51 -158 51 -158 -26 25.5 c 128,-1,1
378 430 m 0,50,51
 378 519 378 519 402 589.5 c 128,-1,52
 426 660 426 660 476 712 c 0,53,54
 587 827 587 827 793 827 c 2,55,-1
 876 827 l 1,56,-1
 876 0 l 1,57,-1
 814 0 l 2,58,59
 604 0 604 0 488 122 c 0,60,61
 378 238 378 238 378 430 c 0,50,51
EndSplineSet
EndChar

StartChar: A
Encoding: 65 65 55
Width: 1534
GlyphClass: 2
Flags: W
LayerCount: 2
Fore
SplineSet
859 1361 m 1,0,-1
 949 1361 l 2,1,2
 1317 1361 1317 1361 1388 1112 c 0,3,4
 1412 1030 1412 1030 1412 924 c 2,5,-1
 1412 0 l 1,6,-1
 859 0 l 1,7,-1
 859 1361 l 1,0,-1
121 924 m 2,8,9
 121 1145 121 1145 222 1248 c 0,10,11
 333 1361 333 1361 584 1361 c 2,12,-1
 674 1361 l 1,13,-1
 674 0 l 1,14,-1
 121 0 l 1,15,-1
 121 924 l 2,8,9
EndSplineSet
EndChar

StartChar: B
Encoding: 66 66 56
Width: 1534
GlyphClass: 2
Flags: W
LayerCount: 2
Fore
SplineSet
1234 689 m 1,0,1
 1425 610 1425 610 1425 406 c 0,2,3
 1425 219 1425 219 1294 112 c 0,4,5
 1157 0 1157 0 905 0 c 2,6,-1
 813 0 l 1,7,-1
 813 1361 l 1,8,-1
 890 1361 l 2,9,10
 1136 1361 1136 1361 1266 1238 c 0,11,12
 1385 1126 1385 1126 1385 947.5 c 128,-1,13
 1385 769 1385 769 1237 689 c 1,14,-1
 1234 689 l 1,0,1
109 1361 m 1,15,-1
 647 1361 l 1,16,-1
 647 2 l 1,17,-1
 109 2 l 1,18,-1
 109 1361 l 1,15,-1
EndSplineSet
EndChar

StartChar: C
Encoding: 67 67 57
Width: 1534
GlyphClass: 2
Flags: W
LayerCount: 2
Fore
SplineSet
851 1361 m 1,0,-1
 1403 1361 l 1,1,-1
 1403 661 l 1,2,-1
 1332 661 l 2,3,4
 1074 661 1074 661 962 750 c 0,5,6
 851 839 851 839 851 1053 c 2,7,-1
 851 1361 l 1,0,-1
651 0 m 2,8,9
 489 0 489 0 363 120 c 0,10,11
 252 226 252 226 189 402 c 0,12,13
 131 564 131 564 131 723 c 0,14,15
 131 962 131 962 249 1148 c 0,16,17
 333 1280 333 1280 470 1334 c 0,18,19
 540 1361 540 1361 626 1361 c 2,20,-1
 703 1361 l 1,21,-1
 703 0 l 1,22,-1
 651 0 l 2,8,9
851 261 m 1,23,-1
 1351 261 l 1,24,-1
 1351 233 l 2,25,26
 1351 140 1351 140 1284 76 c 1,27,28
 1202 0 1202 0 1051 0 c 2,29,-1
 851 0 l 1,30,-1
 851 261 l 1,23,-1
EndSplineSet
EndChar

StartChar: D
Encoding: 68 68 58
Width: 1534
GlyphClass: 2
Flags: W
LayerCount: 2
Fore
SplineSet
812 1361 m 1,0,-1
 896 1361 l 2,1,2
 1320 1361 1320 1361 1400 988 c 0,3,4
 1425 875 1425 875 1425 724 c 128,-1,5
 1425 573 1425 573 1393.5 436 c 128,-1,6
 1362 299 1362 299 1297 202 c 0,7,8
 1162 0 1162 0 896 0 c 2,9,-1
 812 0 l 1,10,-1
 812 1361 l 1,0,-1
108 1361 m 1,11,-1
 646 1361 l 1,12,-1
 646 2 l 1,13,-1
 108 2 l 1,14,-1
 108 1361 l 1,11,-1
EndSplineSet
EndChar

StartChar: E
Encoding: 69 69 59
Width: 1534
GlyphClass: 2
Flags: W
LayerCount: 2
Fore
SplineSet
845 1361 m 1,0,-1
 1400 1361 l 1,1,-1
 1400 983 l 1,2,-1
 1296 983 l 2,3,4
 1025 983 1025 983 926 1068 c 0,5,6
 845 1138 845 1138 845 1294 c 2,7,-1
 845 1361 l 1,0,-1
134 1361 m 1,8,-1
 672 1361 l 1,9,-1
 672 813 l 1,10,-1
 1073 813 l 1,11,-1
 1073 552 l 1,12,-1
 672 552 l 1,13,-1
 672 2 l 1,14,-1
 134 2 l 1,15,-1
 134 1361 l 1,8,-1
844 97 m 2,16,17
 844 304 844 304 1084 378 c 0,18,19
 1176 406 1176 406 1321 406 c 2,20,-1
 1400 406 l 1,21,-1
 1400 0 l 1,22,-1
 844 0 l 1,23,-1
 844 97 l 2,16,17
EndSplineSet
EndChar

StartChar: F
Encoding: 70 70 60
Width: 1534
GlyphClass: 2
Flags: W
LayerCount: 2
Fore
SplineSet
845 1361 m 1,0,-1
 1400 1361 l 1,1,-1
 1400 983 l 1,2,-1
 1296 983 l 2,3,4
 1025 983 1025 983 926 1068 c 0,5,6
 845 1138 845 1138 845 1294 c 2,7,-1
 845 1361 l 1,0,-1
134 1361 m 1,8,-1
 672 1361 l 1,9,-1
 672 813 l 1,10,-1
 1073 813 l 1,11,-1
 1073 552 l 1,12,-1
 672 552 l 1,13,-1
 672 2 l 1,14,-1
 134 2 l 1,15,-1
 134 1361 l 1,8,-1
EndSplineSet
EndChar

StartChar: G
Encoding: 71 71 61
Width: 1534
GlyphClass: 2
Flags: W
LayerCount: 2
Fore
SplineSet
903 1361 m 1,0,-1
 1403 1361 l 1,1,-1
 1403 907 l 1,2,-1
 1203 907 l 2,3,4
 1052 907 1052 907 970 984 c 0,5,6
 903 1047 903 1047 903 1140 c 2,7,-1
 903 1361 l 1,0,-1
651 0 m 2,8,9
 489 0 489 0 363 120 c 0,10,11
 252 226 252 226 189 402 c 0,12,13
 131 564 131 564 131 723 c 0,14,15
 131 962 131 962 249 1148 c 0,16,17
 333 1280 333 1280 470 1334 c 0,18,19
 540 1361 540 1361 626 1361 c 2,20,-1
 703 1361 l 1,21,-1
 703 0 l 1,22,-1
 651 0 l 2,8,9
851 636 m 1,23,-1
 1403 636 l 1,24,-1
 1403 392 l 2,25,26
 1403 178 1403 178 1292 90 c 0,27,28
 1180 0 1180 0 922 0 c 2,29,-1
 851 0 l 1,30,-1
 851 636 l 1,23,-1
EndSplineSet
EndChar

StartChar: H
Encoding: 72 72 62
Width: 1534
GlyphClass: 2
Flags: W
LayerCount: 2
Fore
SplineSet
131 1361 m 1,0,-1
 669 1361 l 1,1,-1
 669 680 l 1,2,-1
 864 680 l 1,3,-1
 864 1361 l 1,4,-1
 1402 1361 l 1,5,-1
 1402 2 l 1,6,-1
 864 2 l 1,7,-1
 864 529 l 1,8,-1
 669 529 l 1,9,-1
 669 2 l 1,10,-1
 131 2 l 1,11,-1
 131 1361 l 1,0,-1
EndSplineSet
EndChar

StartChar: I
Encoding: 73 73 63
Width: 856
GlyphClass: 2
Flags: W
LayerCount: 2
Fore
SplineSet
159 1361 m 1,0,-1
 697 1361 l 1,1,-1
 697 0 l 1,2,-1
 159 0 l 1,3,-1
 159 1361 l 1,0,-1
EndSplineSet
EndChar

StartChar: J
Encoding: 74 74 64
Width: 1534
GlyphClass: 2
Flags: W
LayerCount: 2
Fore
SplineSet
876 1361 m 1,0,-1
 1429 1361 l 1,1,-1
 1429 437 l 2,2,3
 1429 216 1429 216 1328 112 c 1,4,5
 1217 0 1217 0 966 0 c 2,6,-1
 876 0 l 1,7,-1
 876 1361 l 1,0,-1
105 467 m 1,8,-1
 710 467 l 1,9,-1
 710 0 l 1,10,-1
 645 0 l 2,11,12
 358 0 358 0 232 92 c 1,13,14
 105 183 105 183 105 395 c 2,15,-1
 105 467 l 1,8,-1
EndSplineSet
EndChar

StartChar: K
Encoding: 75 75 65
Width: 1534
GlyphClass: 2
Flags: W
LayerCount: 2
Fore
SplineSet
109 1361 m 1,0,-1
 647 1361 l 1,1,-1
 647 2 l 1,2,-1
 109 2 l 1,3,-1
 109 1361 l 1,0,-1
813 991 m 2,4,5
 813 1212 813 1212 925 1288 c 0,6,7
 1031 1359 1031 1359 1324 1359 c 2,8,-1
 1425 1359 l 1,9,-1
 1425 1170 l 2,10,11
 1425 944 1425 944 1310 848 c 1,12,13
 1193 752 1193 752 907 752 c 2,14,-1
 813 752 l 1,15,-1
 813 991 l 2,4,5
813 648 m 1,16,-1
 907 648 l 2,17,18
 1189 648 1189 648 1310 536 c 0,19,20
 1425 429 1425 429 1425 198 c 2,21,-1
 1425 0 l 1,22,-1
 1324 0 l 2,23,24
 1037 0 1037 0 925 86 c 0,25,26
 813 173 813 173 813 398 c 2,27,-1
 813 648 l 1,16,-1
EndSplineSet
EndChar

StartChar: L
Encoding: 76 76 66
Width: 1534
GlyphClass: 2
Flags: W
LayerCount: 2
Fore
SplineSet
134 1361 m 1,0,-1
 672 1361 l 1,1,-1
 672 2 l 1,2,-1
 134 2 l 1,3,-1
 134 1361 l 1,0,-1
844 97 m 2,4,5
 844 304 844 304 1084 378 c 0,6,7
 1176 406 1176 406 1321 406 c 2,8,-1
 1400 406 l 1,9,-1
 1400 0 l 1,10,-1
 844 0 l 1,11,-1
 844 97 l 2,4,5
EndSplineSet
EndChar

StartChar: M
Encoding: 77 77 67
Width: 2380
GlyphClass: 2
Flags: W
LayerCount: 2
Fore
SplineSet
1656 1362 m 1,0,-1
 1746 1362 l 2,1,2
 2114 1362 2114 1362 2186 1112 c 0,3,4
 2209 1031 2209 1031 2209 925 c 2,5,-1
 2209 0 l 1,6,-1
 1656 0 l 1,7,-1
 1656 1362 l 1,0,-1
914 1362 m 1,8,-1
 1470 1362 l 1,9,-1
 1470 0 l 1,10,-1
 914 0 l 1,11,-1
 914 1362 l 1,8,-1
170 1362 m 1,12,-1
 726 1362 l 1,13,-1
 726 0 l 1,14,-1
 170 0 l 1,15,-1
 170 1362 l 1,12,-1
EndSplineSet
EndChar

StartChar: N
Encoding: 78 78 68
Width: 1534
GlyphClass: 2
Flags: W
LayerCount: 2
Fore
SplineSet
853 1361 m 1,0,-1
 943 1361 l 2,1,2
 1311 1361 1311 1361 1382 1112 c 0,3,4
 1406 1030 1406 1030 1406 924 c 2,5,-1
 1406 0 l 1,6,-1
 853 0 l 1,7,-1
 853 1361 l 1,0,-1
127 1361 m 1,8,-1
 665 1361 l 1,9,-1
 665 0 l 1,10,-1
 127 0 l 1,11,-1
 127 1361 l 1,8,-1
EndSplineSet
EndChar

StartChar: O
Encoding: 79 79 69
Width: 1534
GlyphClass: 2
Flags: W
LayerCount: 2
Fore
SplineSet
848 1361 m 1,0,-1
 926 1361 l 2,1,2
 1297 1361 1297 1361 1416 1030 c 0,3,4
 1464 894 1464 894 1464 717 c 0,5,6
 1464 419 1464 419 1349 226 c 0,7,8
 1213 0 1213 0 926 0 c 2,9,-1
 848 0 l 1,10,-1
 848 1361 l 1,0,-1
607 0 m 2,11,12
 238 0 238 0 118 374 c 0,13,14
 69 526 69 526 69 717 c 0,15,16
 69 1106 69 1106 285 1266 c 0,17,18
 412 1361 412 1361 607 1361 c 2,19,-1
 685 1361 l 1,20,-1
 685 0 l 1,21,-1
 607 0 l 2,11,12
EndSplineSet
EndChar

StartChar: P
Encoding: 80 80 70
Width: 1534
GlyphClass: 2
Flags: W
LayerCount: 2
Fore
SplineSet
799 1361 m 1,0,-1
 873 1361 l 2,1,2
 1170 1361 1170 1361 1317 1218 c 0,3,4
 1452 1087 1452 1087 1452 847 c 0,5,6
 1452 634 1452 634 1312 504 c 0,7,8
 1163 366 1163 366 901 366 c 2,9,-1
 799 366 l 1,10,-1
 799 1361 l 1,0,-1
81 1361 m 1,11,-1
 619 1361 l 1,12,-1
 619 2 l 1,13,-1
 81 2 l 1,14,-1
 81 1361 l 1,11,-1
EndSplineSet
EndChar

StartChar: Q
Encoding: 81 81 71
Width: 1534
GlyphClass: 2
Flags: W
LayerCount: 2
Fore
SplineSet
848 1361 m 1,0,-1
 926 1361 l 2,1,2
 1297 1361 1297 1361 1416 1030 c 0,3,4
 1464 894 1464 894 1464 717 c 0,5,6
 1464 419 1464 419 1349 226 c 0,7,8
 1213 0 1213 0 926 0 c 2,9,-1
 848 0 l 1,10,-1
 848 1361 l 1,0,-1
607 0 m 2,11,12
 238 0 238 0 118 374 c 0,13,14
 69 526 69 526 69 717 c 0,15,16
 69 1106 69 1106 285 1266 c 0,17,18
 412 1361 412 1361 607 1361 c 2,19,-1
 685 1361 l 1,20,-1
 685 0 l 1,21,-1
 607 0 l 2,11,12
1284 -170 m 1,22,-1
 1284 -510 l 1,23,-1
 1096 -510 l 2,24,25
 793 -510 793 -510 706 -350 c 0,26,27
 679 -300 679 -300 679 -236 c 2,28,-1
 679 -170 l 1,29,-1
 1284 -170 l 1,22,-1
EndSplineSet
EndChar

StartChar: R
Encoding: 82 82 72
Width: 1534
GlyphClass: 2
Flags: W
LayerCount: 2
Fore
SplineSet
1393 938 m 0,0,1
 1393 636 1393 636 1129 541 c 1,2,3
 1277 486 1277 486 1352 362 c 1,4,5
 1417 252 1417 252 1417 106 c 2,6,-1
 1417 0 l 1,7,-1
 821 0 l 1,8,-1
 821 1363 l 1,9,-1
 873 1363 l 2,10,11
 1137 1363 1137 1363 1262 1263 c 0,12,13
 1393 1158 1393 1158 1393 938 c 0,0,1
117 1361 m 1,14,-1
 655 1361 l 1,15,-1
 655 0 l 1,16,-1
 117 0 l 1,17,-1
 117 1361 l 1,14,-1
EndSplineSet
EndChar

StartChar: S
Encoding: 83 83 73
Width: 1534
GlyphClass: 2
Flags: W
LayerCount: 2
Fore
SplineSet
788 1361 m 1,0,-1
 1405 1361 l 1,1,-1
 1405 676 l 1,2,-1
 788 1361 l 1,0,-1
135 959 m 1,3,-1
 129 959 l 1,4,5
 129 1165 129 1165 241 1263 c 128,-1,6
 353 1361 353 1361 586 1361 c 1,7,-1
 1405 367 l 1,8,9
 1405 169 1405 169 1298 84 c 0,10,11
 1194 1 1194 1 958 1 c 1,12,-1
 135 959 l 1,3,-1
132 689 m 1,13,-1
 726 0 l 1,14,-1
 132 0 l 1,15,-1
 132 689 l 1,13,-1
EndSplineSet
EndChar

StartChar: T
Encoding: 84 84 74
Width: 1874
GlyphClass: 2
Flags: W
LayerCount: 2
Fore
SplineSet
1316 1361 m 1,0,-1
 1764 1361 l 1,1,-1
 1764 796 l 1,2,-1
 1652 796 l 2,3,4
 1542 796 1542 796 1490 819.5 c 128,-1,5
 1438 843 1438 843 1408.5 872.5 c 128,-1,6
 1379 902 1379 902 1358 950 c 0,7,8
 1316 1048 1316 1048 1316 1222 c 2,9,-1
 1316 1361 l 1,0,-1
669 1361 m 1,10,-1
 1207 1361 l 1,11,-1
 1207 0 l 1,12,-1
 669 0 l 1,13,-1
 669 1361 l 1,10,-1
109 1361 m 1,14,-1
 557 1361 l 1,15,-1
 557 1222 l 2,16,17
 557 965 557 965 464 872 c 0,18,19
 388 796 388 796 221 796 c 2,20,-1
 109 796 l 1,21,-1
 109 1361 l 1,14,-1
EndSplineSet
EndChar

StartChar: U
Encoding: 85 85 75
Width: 1534
GlyphClass: 2
Flags: W
LayerCount: 2
Fore
SplineSet
848 1362 m 1,0,-1
 1404 1362 l 1,1,-1
 1404 0 l 1,2,-1
 848 0 l 1,3,-1
 848 1362 l 1,0,-1
130 1362 m 1,4,-1
 683 1362 l 1,5,-1
 683 0 l 1,6,-1
 593 0 l 2,7,8
 225 0 225 0 154 250 c 0,9,10
 130 331 130 331 130 437 c 2,11,-1
 130 1362 l 1,4,-1
EndSplineSet
EndChar

StartChar: V
Encoding: 86 86 76
Width: 1534
GlyphClass: 2
Flags: W
LayerCount: 2
Fore
SplineSet
854 937 m 2,0,1
 854 1161 854 1161 968 1260 c 0,2,3
 1085 1361 1085 1361 1343 1361 c 2,4,-1
 1404 1361 l 1,5,-1
 1404 642 l 2,6,7
 1404 177 1404 177 1138 46 c 0,8,9
 1045 0 1045 0 915 0 c 2,10,-1
 854 0 l 1,11,-1
 854 937 l 2,0,1
618 0 m 2,12,13
 367 0 367 0 244 175 c 0,14,15
 130 337 130 337 130 642 c 2,16,-1
 130 1361 l 1,17,-1
 191 1361 l 2,18,19
 449 1361 449 1361 566 1260 c 0,20,21
 680 1161 680 1161 680 937 c 2,22,-1
 680 0 l 1,23,-1
 618 0 l 2,12,13
EndSplineSet
EndChar

StartChar: W
Encoding: 87 87 77
Width: 2389
GlyphClass: 2
Flags: W
LayerCount: 2
Fore
SplineSet
1660 1363 m 1,0,-1
 2213 1363 l 1,1,-1
 2213 437 l 2,2,3
 2213 216 2213 216 2112 112 c 1,4,5
 2001 0 2001 0 1749 0 c 2,6,-1
 1660 0 l 1,7,-1
 1660 1363 l 1,0,-1
176 1363 m 1,8,-1
 729 1363 l 1,9,-1
 729 0 l 1,10,-1
 640 0 l 2,11,12
 271 0 271 0 200 250 c 0,13,14
 176 331 176 331 176 437 c 2,15,-1
 176 1363 l 1,8,-1
917 1362 m 1,16,-1
 1473 1362 l 1,17,-1
 1473 -1 l 1,18,-1
 917 -1 l 1,19,-1
 917 1362 l 1,16,-1
EndSplineSet
EndChar

StartChar: X
Encoding: 88 88 78
Width: 1534
GlyphClass: 2
Flags: W
LayerCount: 2
Fore
SplineSet
211 877 m 1,0,1
 129 996 129 996 129 1216 c 2,2,-1
 129 1361 l 1,3,-1
 523 1361 l 1,4,-1
 1267 546 l 2,5,6
 1330 476 1330 476 1351 428 c 128,-1,7
 1372 380 1372 380 1382 340 c 0,8,9
 1404 260 1404 260 1404 143 c 2,10,-1
 1404 0 l 1,11,-1
 1021 0 l 1,12,-1
 214 877 l 1,13,-1
 211 877 l 1,0,1
971 934 m 2,14,15
 971 1209 971 1209 1056 1292 c 0,16,17
 1101 1336 1101 1336 1173.5 1348.5 c 128,-1,18
 1246 1361 1246 1361 1350 1361 c 2,19,-1
 1404 1361 l 1,20,-1
 1404 1203 l 2,21,22
 1404 990 1404 990 1292 918 c 0,23,24
 1212 866 1212 866 1023 866 c 2,25,-1
 971 866 l 1,26,-1
 971 934 l 2,14,15
129 156 m 2,27,28
 129 369 129 369 241 442 c 0,29,30
 321 493 321 493 510 493 c 2,31,-1
 562 493 l 1,32,-1
 562 425 l 2,33,34
 562 147 562 147 477 68 c 0,35,36
 419 14 419 14 308 4 c 1,37,38
 252 0 252 0 183 0 c 2,39,-1
 129 0 l 1,40,-1
 129 156 l 2,27,28
EndSplineSet
EndChar

StartChar: Y
Encoding: 89 89 79
Width: 1534
GlyphClass: 2
Flags: W
LayerCount: 2
Fore
SplineSet
1404 -37 m 2,0,1
 1404 -510 1404 -510 929 -510 c 2,2,-1
 867 -510 l 1,3,-1
 867 1361 l 1,4,-1
 1404 1361 l 1,5,-1
 1404 -37 l 2,0,1
130 1361 m 1,6,-1
 683 1361 l 1,7,-1
 683 0 l 1,8,-1
 593 0 l 2,9,10
 225 0 225 0 154 250 c 0,11,12
 130 331 130 331 130 437 c 2,13,-1
 130 1361 l 1,6,-1
EndSplineSet
EndChar

StartChar: Z
Encoding: 90 90 80
Width: 1534
GlyphClass: 2
Flags: W
LayerCount: 2
Fore
SplineSet
102 263 m 2,0,1
 102 354 102 354 178 457 c 1,2,-1
 219 511 l 1,3,-1
 941 1361 l 1,4,-1
 1431 1361 l 1,5,-1
 1431 1073 l 2,6,7
 1431 964 1431 964 1310 814 c 1,8,-1
 574 0 l 1,9,-1
 102 0 l 1,10,-1
 102 263 l 2,0,1
102 1185 m 0,11,12
 102 1314 102 1314 134 1361 c 1,13,-1
 746 1361 l 1,14,-1
 232 814 l 1,15,-1
 202 814 l 1,16,17
 102 872 102 872 102 1185 c 0,11,12
1431 177 m 1,18,19
 1431 46 1431 46 1401 0 c 1,20,-1
 798 0 l 1,21,-1
 1332 578 l 1,22,23
 1415 531 1415 531 1428 354 c 0,24,25
 1432 299 1432 299 1432 238 c 2,26,-1
 1431 177 l 1,18,19
EndSplineSet
EndChar

StartChar: bracketleft
Encoding: 91 91 81
Width: 1195
GlyphClass: 2
Flags: W
LayerCount: 2
Fore
SplineSet
340 1530 m 1,0,-1
 938 1530 l 1,1,-1
 938 1360 l 1,2,-1
 522 1360 l 1,3,-1
 522 -170 l 1,4,-1
 938 -170 l 1,5,-1
 938 -340 l 1,6,-1
 340 -340 l 1,7,-1
 340 1530 l 1,0,-1
EndSplineSet
EndChar

StartChar: backslash
Encoding: 92 92 82
Width: 1018
GlyphClass: 2
Flags: W
LayerCount: 2
Fore
SplineSet
193 1521 m 1,0,-1
 411 1521 l 1,1,-1
 824 -166 l 1,2,-1
 606 -166 l 1,3,-1
 193 1521 l 1,0,-1
EndSplineSet
EndChar

StartChar: bracketright
Encoding: 93 93 83
Width: 1195
GlyphClass: 2
Flags: W
LayerCount: 2
Fore
SplineSet
670 -170 m 1,0,-1
 670 1360 l 1,1,-1
 254 1360 l 1,2,-1
 254 1530 l 1,3,-1
 852 1530 l 1,4,-1
 852 -340 l 1,5,-1
 254 -340 l 1,6,-1
 254 -170 l 1,7,-1
 670 -170 l 1,0,-1
EndSplineSet
EndChar

StartChar: asciicircum
Encoding: 94 94 84
Width: 1533
GlyphClass: 2
Flags: W
LayerCount: 2
Fore
SplineSet
200 607 m 1,0,-1
 759 1571 l 1,1,-1
 1333 607 l 1,2,-1
 1170 512 l 1,3,-1
 758 1226 l 1,4,-1
 364 512 l 1,5,-1
 200 607 l 1,0,-1
EndSplineSet
EndChar

StartChar: underscore
Encoding: 95 95 85
Width: 1189
GlyphClass: 2
Flags: W
LayerCount: 2
Fore
SplineSet
1208 -173 m 1,0,-1
 1208 -337 l 1,1,-1
 -19 -337 l 1,2,-1
 -19 -173 l 1,3,-1
 1208 -173 l 1,0,-1
EndSplineSet
EndChar

StartChar: grave
Encoding: 96 96 86
Width: 1189
GlyphClass: 2
Flags: W
LayerCount: 2
Fore
SplineSet
822 1384 m 2,0,1
 770 1332 770 1332 660 1332 c 0,2,3
 600 1332 600 1332 522 1369.5 c 128,-1,4
 444 1407 444 1407 372 1479 c 2,5,-1
 152 1699 l 1,6,-1
 338 1886 l 1,7,-1
 867 1429 l 1,8,-1
 822 1384 l 2,0,1
EndSplineSet
EndChar

StartChar: a
Encoding: 97 97 87
Width: 1534
GlyphClass: 2
Flags: W
LayerCount: 2
Fore
SplineSet
852 1020 m 1,0,-1
 1404 1020 l 1,1,-1
 1404 0 l 1,2,-1
 1341 0 l 2,3,4
 1081 0 1081 0 967 91 c 0,5,6
 852 183 852 183 852 395 c 2,7,-1
 852 1020 l 1,0,-1
130 498 m 0,8,9
 130 608 130 608 159 702.5 c 128,-1,10
 188 797 188 797 249 868 c 0,11,12
 381 1020 381 1020 627 1020 c 2,13,-1
 704 1020 l 1,14,-1
 704 0 l 1,15,-1
 652 0 l 2,16,17
 400 0 400 0 262 138 c 0,18,19
 130 270 130 270 130 498 c 0,8,9
EndSplineSet
EndChar

StartChar: b
Encoding: 98 98 88
Width: 1534
GlyphClass: 2
Flags: W
LayerCount: 2
Fore
SplineSet
129 1530 m 1,0,-1
 667 1530 l 1,1,-1
 667 2 l 1,2,-1
 129 2 l 1,3,-1
 129 1530 l 1,0,-1
833 1020 m 1,4,-1
 910 1020 l 2,5,6
 1156 1020 1156 1020 1286 868 c 0,7,8
 1405 729 1405 729 1405 502 c 0,9,10
 1405 271 1405 271 1274 138 c 0,11,12
 1138 0 1138 0 885 0 c 2,13,-1
 833 0 l 1,14,-1
 833 1020 l 1,4,-1
EndSplineSet
EndChar

StartChar: c
Encoding: 99 99 89
Width: 1534
GlyphClass: 2
Flags: W
LayerCount: 2
Fore
SplineSet
851 1020 m 1,0,-1
 1403 1020 l 1,1,-1
 1403 449 l 1,2,-1
 1332 449 l 2,3,4
 1074 449 1074 449 962 538 c 0,5,6
 851 627 851 627 851 841 c 2,7,-1
 851 1020 l 1,0,-1
131 498 m 0,8,9
 131 608 131 608 160 702.5 c 128,-1,10
 189 797 189 797 250 868 c 0,11,12
 380 1020 380 1020 626 1020 c 2,13,-1
 703 1020 l 1,14,-1
 703 0 l 1,15,-1
 651 0 l 2,16,17
 398 0 398 0 262 138 c 1,18,19
 131 269 131 269 131 498 c 0,8,9
851 261 m 1,20,-1
 1351 261 l 1,21,-1
 1351 233 l 2,22,23
 1351 140 1351 140 1284 76 c 1,24,25
 1202 0 1202 0 1051 0 c 2,26,-1
 851 0 l 1,27,-1
 851 261 l 1,20,-1
EndSplineSet
EndChar

StartChar: d
Encoding: 100 100 90
Width: 1534
GlyphClass: 2
Flags: W
LayerCount: 2
Fore
SplineSet
871 1531 m 1,0,-1
 1404 1531 l 1,1,-1
 1404 0 l 1,2,-1
 871 0 l 1,3,-1
 871 1531 l 1,0,-1
130 498 m 0,4,5
 130 608 130 608 159 702.5 c 128,-1,6
 188 797 188 797 249 868 c 0,7,8
 381 1020 381 1020 627 1020 c 2,9,-1
 704 1020 l 1,10,-1
 704 0 l 1,11,-1
 652 0 l 2,12,13
 400 0 400 0 262 138 c 0,14,15
 130 270 130 270 130 498 c 0,4,5
EndSplineSet
EndChar

StartChar: e
Encoding: 101 101 91
Width: 1534
GlyphClass: 2
Flags: W
LayerCount: 2
Fore
SplineSet
851 1020 m 1,0,-1
 917 1020 l 2,1,2
 1295 1020 1295 1020 1378 764 c 0,3,4
 1405 679 1405 679 1405 567 c 2,5,-1
 1405 457 l 1,6,-1
 851 457 l 1,7,-1
 851 1020 l 1,0,-1
129 498 m 0,8,9
 129 608 129 608 158 702.5 c 128,-1,10
 187 797 187 797 248 868 c 0,11,12
 380 1020 380 1020 626 1020 c 2,13,-1
 703 1020 l 1,14,-1
 703 0 l 1,15,-1
 651 0 l 2,16,17
 399 0 399 0 261 138 c 0,18,19
 129 270 129 270 129 498 c 0,8,9
851 261 m 1,20,-1
 1351 261 l 1,21,-1
 1351 233 l 2,22,23
 1351 140 1351 140 1284 76 c 1,24,25
 1202 0 1202 0 1051 0 c 2,26,-1
 851 0 l 1,27,-1
 851 261 l 1,20,-1
EndSplineSet
EndChar

StartChar: f
Encoding: 102 102 92
Width: 1535
GlyphClass: 2
Flags: W
LayerCount: 2
Fore
SplineSet
1236 1060 m 2,0,1
 1085 1060 1085 1060 1014 1101 c 0,2,3
 905 1165 905 1165 905 1368 c 2,4,-1
 905 1550 l 1,5,-1
 1352 1550 l 1,6,-1
 1352 1060 l 1,7,-1
 1236 1060 l 2,0,1
183 1061 m 2,8,9
 183 1411 183 1411 434 1512 c 0,10,11
 524 1549 524 1549 654 1549 c 2,12,-1
 721 1549 l 1,13,-1
 721 0 l 1,14,-1
 183 0 l 1,15,-1
 183 1061 l 2,8,9
905 825 m 1,16,-1
 1216 825 l 1,17,-1
 1216 510 l 1,18,-1
 905 510 l 1,19,-1
 905 825 l 1,16,-1
EndSplineSet
EndChar

StartChar: g
Encoding: 103 103 93
Width: 1534
GlyphClass: 2
Flags: W
LayerCount: 2
Fore
SplineSet
870 1020 m 1,0,-1
 1404 1020 l 1,1,-1
 1404 -37 l 2,2,3
 1404 -144 1404 -144 1391 -231 c 128,-1,4
 1378 -318 1378 -318 1336 -380 c 0,5,6
 1248 -510 1248 -510 1005 -510 c 2,7,-1
 870 -510 l 1,8,-1
 870 1020 l 1,0,-1
130 498 m 0,9,10
 130 608 130 608 159 702.5 c 128,-1,11
 188 797 188 797 249 868 c 0,12,13
 381 1020 381 1020 627 1020 c 2,14,-1
 704 1020 l 1,15,-1
 704 0 l 1,16,-1
 652 0 l 2,17,18
 400 0 400 0 262 138 c 0,19,20
 130 270 130 270 130 498 c 0,9,10
242 -316 m 0,21,22
 242 -272 242 -272 263 -237.5 c 128,-1,23
 284 -203 284 -203 321 -180 c 0,24,25
 398 -132 398 -132 519 -132 c 256,26,27
 640 -132 640 -132 724 -180 c 0,28,29
 812 -230 812 -230 812 -315 c 0,30,31
 812 -401 812 -401 733 -452 c 0,32,33
 657 -501 657 -501 537 -501 c 0,34,35
 413 -501 413 -501 330 -452 c 0,36,37
 242 -400 242 -400 242 -316 c 0,21,22
EndSplineSet
EndChar

StartChar: h
Encoding: 104 104 94
Width: 1534
GlyphClass: 2
Flags: W
LayerCount: 2
Fore
SplineSet
129 1531 m 1,0,-1
 667 1531 l 1,1,-1
 667 0 l 1,2,-1
 129 0 l 1,3,-1
 129 1531 l 1,0,-1
851 1020 m 1,4,-1
 941 1020 l 2,5,6
 1309 1020 1309 1020 1380 770 c 0,7,8
 1404 689 1404 689 1404 583 c 2,9,-1
 1404 0 l 1,10,-1
 851 0 l 1,11,-1
 851 1020 l 1,4,-1
EndSplineSet
EndChar

StartChar: i
Encoding: 105 105 95
Width: 856
GlyphClass: 2
Flags: W
LayerCount: 2
Fore
SplineSet
441 1294 m 0,0,1
 110 1294 110 1294 110 1501 c 0,2,3
 110 1607 110 1607 189 1653.5 c 128,-1,4
 268 1700 268 1700 430 1700 c 128,-1,5
 592 1700 592 1700 669 1653.5 c 128,-1,6
 746 1607 746 1607 746 1500.5 c 128,-1,7
 746 1394 746 1394 674.5 1344 c 128,-1,8
 603 1294 603 1294 441 1294 c 0,0,1
166 1019 m 1,9,-1
 704 1019 l 1,10,-1
 704 0 l 1,11,-1
 166 0 l 1,12,-1
 166 1019 l 1,9,-1
EndSplineSet
EndChar

StartChar: j
Encoding: 106 106 96
Width: 856
GlyphClass: 2
Flags: W
LayerCount: 2
Fore
SplineSet
441 1294 m 0,0,1
 110 1294 110 1294 110 1501 c 0,2,3
 110 1607 110 1607 189 1653.5 c 128,-1,4
 268 1700 268 1700 430 1700 c 128,-1,5
 592 1700 592 1700 669 1653.5 c 128,-1,6
 746 1607 746 1607 746 1500.5 c 128,-1,7
 746 1394 746 1394 674.5 1344 c 128,-1,8
 603 1294 603 1294 441 1294 c 0,0,1
166 1020 m 1,9,-1
 704 1020 l 1,10,-1
 704 -37 l 2,11,12
 704 -279 704 -279 604 -401 c 0,13,14
 490 -540 490 -540 243 -540 c 2,15,-1
 166 -540 l 1,16,-1
 166 1020 l 1,9,-1
EndSplineSet
EndChar

StartChar: k
Encoding: 107 107 97
Width: 1534
GlyphClass: 2
Flags: W
LayerCount: 2
Fore
SplineSet
125 1531 m 1,0,-1
 662 1531 l 1,1,-1
 662 0 l 1,2,-1
 125 0 l 1,3,-1
 125 1531 l 1,0,-1
808 833 m 0,4,5
 808 933 808 933 900 986 c 0,6,7
 982 1033 982 1033 1111 1033 c 0,8,9
 1312 1033 1312 1033 1384 924 c 0,10,11
 1409 886 1409 886 1409 833 c 0,12,13
 1409 732 1409 732 1323 678 c 0,14,15
 1245 628 1245 628 1118 628 c 0,16,17
 915 628 915 628 835 742 c 0,18,19
 808 780 808 780 808 833 c 0,4,5
846 509 m 1,20,-1
 936 509 l 2,21,22
 1304 509 1304 509 1376 260 c 0,23,24
 1399 178 1399 178 1399 72 c 2,25,-1
 1399 0 l 1,26,-1
 846 0 l 1,27,-1
 846 509 l 1,20,-1
EndSplineSet
EndChar

StartChar: l
Encoding: 108 108 98
Width: 848
GlyphClass: 2
Flags: W
LayerCount: 2
Fore
SplineSet
155 1531 m 1,0,-1
 693 1531 l 1,1,-1
 693 0 l 1,2,-1
 155 0 l 1,3,-1
 155 1531 l 1,0,-1
EndSplineSet
EndChar

StartChar: m
Encoding: 109 109 99
Width: 2378
GlyphClass: 2
Flags: W
LayerCount: 2
Fore
SplineSet
1655 1020 m 1,0,-1
 1745 1020 l 2,1,2
 2113 1020 2113 1020 2184 770 c 0,3,4
 2208 689 2208 689 2208 583 c 2,5,-1
 2208 0 l 1,6,-1
 1655 0 l 1,7,-1
 1655 1020 l 1,0,-1
913 1020 m 1,8,-1
 1003 1020 l 2,9,10
 1371 1020 1371 1020 1442 770 c 0,11,12
 1466 689 1466 689 1466 583 c 2,13,-1
 1466 0 l 1,14,-1
 913 0 l 1,15,-1
 913 1020 l 1,8,-1
169 1020 m 1,16,-1
 725 1020 l 1,17,-1
 725 0 l 1,18,-1
 169 0 l 1,19,-1
 169 1020 l 1,16,-1
EndSplineSet
EndChar

StartChar: n
Encoding: 110 110 100
Width: 1534
GlyphClass: 2
Flags: W
LayerCount: 2
Fore
SplineSet
851 1020 m 1,0,-1
 941 1020 l 2,1,2
 1309 1020 1309 1020 1380 770 c 0,3,4
 1404 689 1404 689 1404 583 c 2,5,-1
 1404 0 l 1,6,-1
 851 0 l 1,7,-1
 851 1020 l 1,0,-1
130 1020 m 1,8,-1
 686 1020 l 1,9,-1
 686 0 l 1,10,-1
 130 0 l 1,11,-1
 130 1020 l 1,8,-1
EndSplineSet
EndChar

StartChar: o
Encoding: 111 111 101
Width: 1534
GlyphClass: 2
Flags: W
LayerCount: 2
Fore
SplineSet
848 1020 m 1,0,-1
 925 1020 l 2,1,2
 1171 1020 1171 1020 1303 868 c 0,3,4
 1422 730 1422 730 1422 502 c 0,5,6
 1422 270 1422 270 1290 138 c 0,7,8
 1152 0 1152 0 900 0 c 2,9,-1
 848 0 l 1,10,-1
 848 1020 l 1,0,-1
112 498 m 0,11,12
 112 608 112 608 141 702.5 c 128,-1,13
 170 797 170 797 231 868 c 0,14,15
 363 1020 363 1020 609 1020 c 2,16,-1
 686 1020 l 1,17,-1
 686 0 l 1,18,-1
 634 0 l 2,19,20
 382 0 382 0 244 138 c 0,21,22
 112 270 112 270 112 498 c 0,11,12
EndSplineSet
EndChar

StartChar: p
Encoding: 112 112 102
Width: 1534
GlyphClass: 2
Flags: W
LayerCount: 2
Fore
SplineSet
830 1020 m 1,0,-1
 907 1020 l 2,1,2
 1153 1020 1153 1020 1285 868 c 0,3,4
 1404 730 1404 730 1404 502 c 0,5,6
 1404 270 1404 270 1272 138 c 0,7,8
 1134 0 1134 0 882 0 c 2,9,-1
 830 0 l 1,10,-1
 830 1020 l 1,0,-1
130 1020 m 1,11,-1
 668 1020 l 1,12,-1
 668 -340 l 1,13,-1
 130 -340 l 1,14,-1
 130 1020 l 1,11,-1
EndSplineSet
EndChar

StartChar: q
Encoding: 113 113 103
Width: 1534
GlyphClass: 2
Flags: W
LayerCount: 2
Fore
SplineSet
866 1020 m 1,0,-1
 1404 1020 l 1,1,-1
 1404 -340 l 1,2,-1
 866 -340 l 1,3,-1
 866 1020 l 1,0,-1
130 498 m 0,4,5
 130 608 130 608 159 702.5 c 128,-1,6
 188 797 188 797 249 868 c 0,7,8
 381 1020 381 1020 627 1020 c 2,9,-1
 704 1020 l 1,10,-1
 704 0 l 1,11,-1
 652 0 l 2,12,13
 400 0 400 0 262 138 c 0,14,15
 130 270 130 270 130 498 c 0,4,5
EndSplineSet
EndChar

StartChar: r
Encoding: 114 114 104
Width: 1537
GlyphClass: 2
Flags: W
LayerCount: 2
Fore
SplineSet
890 736 m 2,0,1
 890 1020 890 1020 1257 1020 c 2,2,-1
 1397 1020 l 1,3,-1
 1397 510 l 1,4,-1
 890 510 l 1,5,-1
 890 736 l 2,0,1
190 1020 m 1,6,-1
 746 1020 l 1,7,-1
 746 0 l 1,8,-1
 190 0 l 1,9,-1
 190 1020 l 1,6,-1
EndSplineSet
EndChar

StartChar: s
Encoding: 115 115 105
Width: 1534
GlyphClass: 2
Flags: W
LayerCount: 2
Fore
SplineSet
229 636 m 1,0,1
 226 648 226 648 224 662 c 2,2,-1
 220 690 l 2,3,4
 216 720 216 720 216 760.5 c 128,-1,5
 216 801 216 801 234.5 854 c 128,-1,6
 253 907 253 907 295 946 c 0,7,8
 385 1030 385 1030 573 1030 c 1,9,-1
 1316 377 l 1,10,11
 1326 341 1326 341 1326 281.5 c 128,-1,12
 1326 222 1326 222 1306 168.5 c 128,-1,13
 1286 115 1286 115 1242 76 c 0,14,15
 1148 -10 1148 -10 968 -10 c 1,16,-1
 236 636 l 1,17,-1
 229 636 l 1,0,1
1333 1020 m 1,18,19
 1363 974 1363 974 1363 894 c 0,20,21
 1363 746 1363 746 1252 673 c 1,22,-1
 851 1020 l 1,23,-1
 1333 1020 l 1,18,19
200 0 m 1,24,25
 170 46 170 46 170 126 c 0,26,27
 170 273 170 273 280 346 c 1,28,-1
 682 0 l 1,29,-1
 200 0 l 1,24,25
EndSplineSet
EndChar

StartChar: t
Encoding: 116 116 106
Width: 1534
GlyphClass: 2
Flags: W
LayerCount: 2
Fore
SplineSet
625 0 m 2,0,1
 130 0 130 0 130 452 c 2,2,-1
 130 1014 l 1,3,-1
 553 1291 l 1,4,-1
 703 1291 l 1,5,-1
 703 0 l 1,6,-1
 625 0 l 2,0,1
848 1020 m 1,7,-1
 1327 1020 l 1,8,-1
 1327 685 l 1,9,-1
 848 685 l 1,10,-1
 848 1020 l 1,7,-1
849 427 m 1,11,-1
 1404 427 l 1,12,-1
 1404 339 l 2,13,14
 1404 169 1404 169 1300 88 c 0,15,16
 1187 0 1187 0 935 0 c 2,17,-1
 849 0 l 1,18,-1
 849 427 l 1,11,-1
EndSplineSet
EndChar

StartChar: u
Encoding: 117 117 107
Width: 1534
GlyphClass: 2
Flags: W
LayerCount: 2
Fore
SplineSet
848 1020 m 1,0,-1
 1404 1020 l 1,1,-1
 1404 0 l 1,2,-1
 848 0 l 1,3,-1
 848 1020 l 1,0,-1
130 1020 m 1,4,-1
 683 1020 l 1,5,-1
 683 0 l 1,6,-1
 593 0 l 2,7,8
 225 0 225 0 154 250 c 0,9,10
 130 331 130 331 130 437 c 2,11,-1
 130 1020 l 1,4,-1
EndSplineSet
EndChar

StartChar: v
Encoding: 118 118 108
Width: 1534
GlyphClass: 2
Flags: W
LayerCount: 2
Fore
SplineSet
854 596 m 2,0,1
 854 820 854 820 968 920 c 1,2,3
 1085 1020 1085 1020 1343 1020 c 2,4,-1
 1404 1020 l 1,5,-1
 1404 642 l 2,6,7
 1404 177 1404 177 1138 46 c 0,8,9
 1045 0 1045 0 915 0 c 2,10,-1
 854 0 l 1,11,-1
 854 596 l 2,0,1
618 0 m 2,12,13
 367 0 367 0 244 175 c 0,14,15
 130 337 130 337 130 642 c 2,16,-1
 130 1020 l 1,17,-1
 191 1020 l 2,18,19
 449 1020 449 1020 566 920 c 1,20,21
 680 820 680 820 680 596 c 2,22,-1
 680 0 l 1,23,-1
 618 0 l 2,12,13
EndSplineSet
EndChar

StartChar: w
Encoding: 119 119 109
Width: 2389
GlyphClass: 2
Flags: W
LayerCount: 2
Fore
SplineSet
1660 1020 m 1,0,-1
 2213 1020 l 1,1,-1
 2213 437 l 2,2,3
 2213 216 2213 216 2112 112 c 1,4,5
 2001 0 2001 0 1749 0 c 2,6,-1
 1660 0 l 1,7,-1
 1660 1020 l 1,0,-1
176 1020 m 1,8,-1
 729 1020 l 1,9,-1
 729 0 l 1,10,-1
 640 0 l 2,11,12
 271 0 271 0 200 250 c 0,13,14
 176 331 176 331 176 437 c 2,15,-1
 176 1020 l 1,8,-1
917 1019 m 1,16,-1
 1473 1019 l 1,17,-1
 1473 -1 l 1,18,-1
 917 -1 l 1,19,-1
 917 1019 l 1,16,-1
EndSplineSet
EndChar

StartChar: x
Encoding: 120 120 110
Width: 1537
GlyphClass: 2
Flags: W
LayerCount: 2
Fore
SplineSet
161 117 m 2,0,1
 161 342 161 342 394 364 c 0,2,3
 464 370 464 370 542 370 c 1,4,-1
 237 645 l 1,5,6
 161 729 161 729 161 913 c 2,7,-1
 161 1020 l 1,8,-1
 583 1020 l 1,9,-1
 895 759 l 1,10,11
 908 921 908 921 1020 977 c 0,12,13
 1106 1020 1106 1020 1322 1020 c 2,14,-1
 1376 1020 l 1,15,-1
 1376 903 l 2,16,17
 1376 688 1376 688 1158 660 c 0,18,19
 1094 651 1094 651 1022 650 c 1,20,21
 1266 430 1266 430 1287 394 c 0,22,23
 1296 378 1296 378 1316.5 353 c 128,-1,24
 1337 328 1337 328 1356.5 264 c 128,-1,25
 1376 200 1376 200 1376 107 c 2,26,-1
 1376 0 l 1,27,-1
 953 0 l 1,28,-1
 643 279 l 1,29,30
 634 106 634 106 522 46 c 0,31,32
 436 0 436 0 215 0 c 2,33,-1
 161 0 l 1,34,-1
 161 117 l 2,0,1
EndSplineSet
EndChar

StartChar: y
Encoding: 121 121 111
Width: 1534
GlyphClass: 2
Flags: W
LayerCount: 2
Fore
SplineSet
1404 -67 m 2,0,1
 1404 -540 1404 -540 929 -540 c 2,2,-1
 867 -540 l 1,3,-1
 867 1020 l 1,4,-1
 1404 1020 l 1,5,-1
 1404 -67 l 2,0,1
130 1020 m 1,6,-1
 683 1020 l 1,7,-1
 683 0 l 1,8,-1
 593 0 l 2,9,10
 225 0 225 0 154 250 c 0,11,12
 130 331 130 331 130 437 c 2,13,-1
 130 1020 l 1,6,-1
EndSplineSet
EndChar

StartChar: z
Encoding: 122 122 112
Width: 1366
GlyphClass: 2
Flags: W
LayerCount: 2
Fore
SplineSet
1234 1020 m 1,0,-1
 1233 901 l 1,1,-1
 1233 762 l 2,2,3
 1233 641 1233 641 1125 542 c 1,4,-1
 487 0 l 1,5,-1
 144 0 l 1,6,7
 146 44 146 44 146 100 c 2,8,-1
 146 261 l 2,9,10
 146 335 146 335 174.5 386 c 128,-1,11
 203 437 203 437 252 481 c 1,12,-1
 889 1020 l 1,13,-1
 1234 1020 l 1,0,-1
109 889 m 0,14,15
 109 972 109 972 137 1020 c 1,16,-1
 622 1020 l 1,17,-1
 232 684 l 1,18,-1
 202 684 l 1,19,20
 109 744 109 744 109 889 c 0,14,15
1256 131 m 0,21,22
 1256 47 1256 47 1230 0 c 1,23,-1
 745 0 l 1,24,-1
 1148 346 l 1,25,26
 1256 270 1256 270 1256 131 c 0,21,22
EndSplineSet
EndChar

StartChar: braceleft
Encoding: 123 123 113
Width: 1195
GlyphClass: 2
Flags: W
LayerCount: 2
Fore
SplineSet
852 -171 m 0,0,1
 915 -171 915 -171 1023 -154 c 1,2,-1
 1023 -343 l 1,3,4
 1003 -344 1003 -344 980 -345 c 128,-1,5
 957 -346 957 -346 934 -347 c 0,6,7
 888 -349 888 -349 812.5 -349 c 128,-1,8
 737 -349 737 -349 649.5 -333.5 c 128,-1,9
 562 -318 562 -318 502 -282 c 0,10,11
 382 -209 382 -209 382 -47 c 0,12,13
 382 100 382 100 398 179 c 0,14,15
 419 277 419 277 419 379 c 2,16,-1
 419 397 l 2,17,18
 419 489 419 489 330 524 c 0,19,20
 301 535 301 535 266 535 c 2,21,-1
 171 535 l 1,22,-1
 171 712 l 1,23,-1
 266 714 l 1,24,25
 335 714 335 714 378 755 c 0,26,27
 419 794 419 794 419 852 c 2,28,-1
 419 870 l 2,29,30
 419 972 419 972 408 1024 c 128,-1,31
 397 1076 397 1076 393 1107.5 c 128,-1,32
 389 1139 389 1139 386 1169 c 0,33,34
 382 1223 382 1223 382 1276 c 0,35,36
 382 1599 382 1599 854 1599 c 0,37,38
 892 1599 892 1599 925 1598 c 2,39,-1
 982 1595 l 2,40,41
 1004 1594 1004 1594 1023 1593 c 1,42,-1
 1023 1403 l 1,43,44
 908 1421 908 1421 848 1421 c 128,-1,45
 788 1421 788 1421 740.5 1412.5 c 128,-1,46
 693 1404 693 1404 656 1386 c 0,47,48
 573 1347 573 1347 573 1282 c 2,49,-1
 573 1240 l 2,50,51
 573 1128 573 1128 581.5 1085 c 128,-1,52
 590 1042 590 1042 593.5 1018.5 c 128,-1,53
 597 995 597 995 600 972 c 0,54,55
 604 932 604 932 604 870 c 0,56,57
 604 651 604 651 446 632 c 1,58,-1
 446 618 l 1,59,60
 604 595 604 595 604 379 c 0,61,62
 604 286 604 286 592 221 c 128,-1,63
 580 156 580 156 578 123 c 128,-1,64
 576 90 576 90 574.5 56 c 128,-1,65
 573 22 573 22 573 -8 c 2,66,-1
 573 -53 l 2,67,68
 573 -171 573 -171 852 -171 c 0,0,1
EndSplineSet
EndChar

StartChar: bar
Encoding: 124 124 114
Width: 1022
GlyphClass: 2
Flags: W
LayerCount: 2
Fore
SplineSet
397 1700 m 1,0,-1
 625 1700 l 1,1,-1
 625 -170 l 1,2,-1
 397 -170 l 1,3,-1
 397 1700 l 1,0,-1
EndSplineSet
EndChar

StartChar: braceright
Encoding: 125 125 115
Width: 1195
GlyphClass: 2
Flags: W
LayerCount: 2
Fore
SplineSet
171 -154 m 1,0,1
 279 -171 279 -171 342 -171 c 128,-1,2
 405 -171 405 -171 452.5 -165.5 c 128,-1,3
 500 -160 500 -160 538 -146 c 0,4,5
 621 -116 621 -116 621 -53 c 2,6,-1
 621 -8 l 2,7,8
 621 108 621 108 612 158 c 2,9,-1
 600 231 l 2,10,11
 590 288 590 288 590 379 c 0,12,13
 590 596 590 596 748 618 c 1,14,-1
 748 632 l 1,15,16
 590 651 590 651 590 870 c 0,17,18
 590 960 590 960 597 1001 c 2,19,-1
 609 1070 l 2,20,21
 621 1142 621 1142 621 1204 c 2,22,-1
 621 1282 l 2,23,24
 621 1347 621 1347 538 1386 c 0,25,26
 465 1421 465 1421 375.5 1421 c 128,-1,27
 286 1421 286 1421 171 1403 c 1,28,-1
 171 1593 l 1,29,30
 190 1594 190 1594 212.5 1595 c 128,-1,31
 235 1596 235 1596 258 1597 c 0,32,33
 302 1599 302 1599 340 1599 c 0,34,35
 812 1599 812 1599 812 1276 c 0,36,37
 812 1146 812 1146 796 1068 c 1,38,39
 775 972 775 972 775 870 c 2,40,-1
 775 852 l 2,41,42
 775 760 775 760 864 725 c 0,43,44
 893 714 893 714 928 714 c 2,45,-1
 1023 712 l 1,46,-1
 1023 535 l 1,47,-1
 928 535 l 2,48,49
 859 535 859 535 816 494 c 0,50,51
 775 455 775 455 775 397 c 2,52,-1
 775 379 l 2,53,54
 775 277 775 277 786 224.5 c 128,-1,55
 797 172 797 172 801 138 c 128,-1,56
 805 104 805 104 808 70 c 0,57,58
 812 9 812 9 812 -61 c 128,-1,59
 812 -131 812 -131 781.5 -188.5 c 128,-1,60
 751 -246 751 -246 692 -282 c 0,61,62
 581 -349 581 -349 344 -349 c 0,63,64
 306 -349 306 -349 272 -348 c 2,65,-1
 214 -345 l 2,66,67
 191 -344 191 -344 171 -343 c 1,68,-1
 171 -154 l 1,0,1
EndSplineSet
EndChar

StartChar: asciitilde
Encoding: 126 126 116
Width: 1529
GlyphClass: 2
Flags: W
LayerCount: 2
Fore
SplineSet
112 529 m 2,0,1
 112 664 112 664 200 754 c 0,2,3
 295 850 295 850 452 850 c 2,4,-1
 603 850 l 2,5,6
 771 850 771 850 878 732 c 0,7,8
 911 697 911 697 932 656 c 1,9,10
 1001 790 1001 790 1153 835 c 0,11,12
 1204 850 1204 850 1261 850 c 2,13,-1
 1347 850 l 1,14,-1
 1347 713 l 2,15,16
 1347 578 1347 578 1258 488 c 0,17,18
 1164 392 1164 392 1007 392 c 2,19,-1
 857 392 l 2,20,21
 690 392 690 392 582 509 c 0,22,23
 549 544 549 544 528 585 c 1,24,25
 460 453 460 453 305 407 c 0,26,27
 254 392 254 392 198 392 c 2,28,-1
 112 392 l 1,29,-1
 112 529 l 2,0,1
EndSplineSet
EndChar

StartChar: exclamdown
Encoding: 161 161 118
Width: 1194
GlyphClass: 2
Flags: W
LayerCount: 2
Fore
SplineSet
279 1154 m 0,0,1
 279 1361 279 1361 610 1361 c 0,2,3
 772 1361 772 1361 843.5 1311 c 128,-1,4
 915 1261 915 1261 915 1154.5 c 128,-1,5
 915 1048 915 1048 838 1001.5 c 128,-1,6
 761 955 761 955 599 955 c 128,-1,7
 437 955 437 955 358 1001.5 c 128,-1,8
 279 1048 279 1048 279 1154 c 0,0,1
322 682 m 1,9,-1
 873 682 l 1,10,-1
 912 -339 l 1,11,-1
 282 -339 l 1,12,-1
 322 682 l 1,9,-1
EndSplineSet
EndChar

StartChar: cent
Encoding: 162 162 119
Width: 1874
GlyphClass: 2
Flags: W
LayerCount: 2
Fore
SplineSet
972 1463 m 1,0,-1
 1237 1463 l 1,1,-1
 1201 1156 l 1,2,-1
 938 1156 l 1,3,-1
 972 1463 l 1,0,-1
1038 1020 m 1,4,-1
 1655 1020 l 1,5,-1
 1655 449 l 1,6,-1
 1579 449 l 2,7,8
 1292 449 1292 449 1166 538 c 0,9,10
 1038 629 1038 629 1038 841 c 2,11,-1
 1038 1020 l 1,4,-1
219 498 m 0,12,13
 219 608 219 608 255.5 702.5 c 128,-1,14
 292 797 292 797 365 868 c 0,15,16
 523 1020 523 1020 796 1020 c 2,17,-1
 871 1020 l 1,18,-1
 871 0 l 1,19,-1
 796 0 l 2,20,21
 518 0 518 0 365 138 c 0,22,23
 219 270 219 270 219 498 c 0,12,13
1038 261 m 1,24,-1
 1598 261 l 1,25,-1
 1598 233 l 2,26,27
 1598 146 1598 146 1492 76 c 0,28,29
 1377 0 1377 0 1208 0 c 2,30,-1
 1038 0 l 1,31,-1
 1038 261 l 1,24,-1
1041 -167 m 1,32,-1
 1008 -450 l 1,33,-1
 744 -450 l 1,34,-1
 778 -167 l 1,35,-1
 1041 -167 l 1,32,-1
EndSplineSet
EndChar

StartChar: sterling
Encoding: 163 163 120
Width: 1874
GlyphClass: 2
Flags: W
LayerCount: 2
Fore
SplineSet
1127 1371 m 1,0,-1
 1693 1371 l 1,1,-1
 1693 992 l 1,2,-1
 1628 992 l 2,3,4
 1484 992 1484 992 1387.5 1004.5 c 128,-1,5
 1291 1017 1291 1017 1233.5 1053.5 c 128,-1,6
 1176 1090 1176 1090 1151.5 1155.5 c 128,-1,7
 1127 1221 1127 1221 1127 1328 c 2,8,-1
 1127 1371 l 1,0,-1
308 811 m 1,9,10
 346 1371 346 1371 885 1371 c 2,11,-1
 958 1371 l 1,12,-1
 958 811 l 1,13,-1
 1423 811 l 1,14,-1
 1423 644 l 1,15,-1
 958 644 l 1,16,-1
 958 0 l 1,17,-1
 117 0 l 2,18,19
 221 0 221 0 264 166 c 0,20,21
 301 309 301 309 305 644 c 1,22,-1
 126 644 l 1,23,-1
 126 811 l 1,24,-1
 308 811 l 1,9,10
1157 40 m 2,25,26
 1157 232 1157 232 1238 321 c 0,27,28
 1342 434 1342 434 1610 434 c 2,29,-1
 1781 434 l 1,30,-1
 1781 -1 l 1,31,-1
 1157 -1 l 1,32,-1
 1157 40 l 2,25,26
EndSplineSet
EndChar

StartChar: currency
Encoding: 164 164 121
Width: 1874
GlyphClass: 2
Flags: W
LayerCount: 2
Fore
SplineSet
1321 943 m 1,0,1
 1364 853 1364 853 1364 750.5 c 128,-1,2
 1364 648 1364 648 1327 569 c 1,3,-1
 1636 261 l 1,4,-1
 1430 57 l 1,5,-1
 1115 369 l 1,6,7
 1021 329 1021 329 918 329 c 128,-1,8
 815 329 815 329 736 362 c 1,9,-1
 431 57 l 1,10,-1
 224 261 l 1,11,-1
 530 567 l 1,12,13
 497 645 497 645 497 749 c 128,-1,14
 497 853 497 853 542 939 c 1,15,-1
 224 1257 l 1,16,-1
 433 1464 l 1,17,-1
 768 1129 l 1,18,19
 849 1158 849 1158 936 1158 c 128,-1,20
 1023 1158 1023 1158 1098 1133 c 1,21,-1
 1428 1464 l 1,22,-1
 1636 1257 l 1,23,-1
 1321 943 l 1,0,1
722 745 m 256,24,25
 722 663 722 663 781 606 c 0,26,27
 839 549 839 549 923 549 c 0,28,29
 1013 549 1013 549 1076 606 c 256,30,31
 1139 663 1139 663 1139 745 c 0,32,33
 1139 826 1139 826 1078 884 c 0,34,35
 1018 940 1018 940 933 940 c 0,36,37
 846 940 846 940 784 883.5 c 128,-1,38
 722 827 722 827 722 745 c 256,24,25
EndSplineSet
EndChar

StartChar: yen
Encoding: 165 165 122
Width: 1874
GlyphClass: 2
Flags: W
LayerCount: 2
Fore
SplineSet
1724 1281 m 2,0,1
 1724 927 1724 927 1366 829 c 1,2,-1
 1723 829 l 1,3,-1
 1723 683 l 1,4,-1
 144 683 l 1,5,-1
 144 829 l 1,6,-1
 512 829 l 1,7,8
 180 923 180 923 180 1281 c 2,9,-1
 180 1361 l 1,10,-1
 361 1361 l 2,11,12
 619 1361 619 1361 736 1260 c 0,13,14
 850 1161 850 1161 850 937 c 2,15,-1
 850 829 l 1,16,-1
 1024 829 l 1,17,-1
 1024 937 l 2,18,19
 1024 1161 1024 1161 1138 1260 c 0,20,21
 1255 1361 1255 1361 1513 1361 c 2,22,-1
 1724 1361 l 1,23,-1
 1724 1281 l 2,0,1
145 510 m 1,24,-1
 1725 510 l 1,25,-1
 1725 366 l 1,26,-1
 1217 366 l 1,27,-1
 1217 0 l 1,28,-1
 657 0 l 1,29,-1
 657 366 l 1,30,-1
 145 366 l 1,31,-1
 145 510 l 1,24,-1
EndSplineSet
EndChar

StartChar: brokenbar
Encoding: 166 166 123
Width: 1022
GlyphClass: 2
Flags: W
LayerCount: 2
Fore
SplineSet
397 1700 m 1,0,-1
 625 1700 l 1,1,-1
 625 1022 l 1,2,-1
 397 1022 l 1,3,-1
 397 1700 l 1,0,-1
397 508 m 1,4,-1
 625 508 l 1,5,-1
 625 -170 l 1,6,-1
 397 -170 l 1,7,-1
 397 508 l 1,4,-1
EndSplineSet
EndChar

StartChar: section
Encoding: 167 167 124
Width: 1707
GlyphClass: 2
Flags: W
LayerCount: 2
Fore
SplineSet
958 1700 m 1,0,-1
 1575 1700 l 1,1,-1
 1575 1015 l 1,2,-1
 958 1700 l 1,0,-1
299 680 m 1,3,4
 299 824 299 824 382 913 c 0,5,6
 462 999 462 999 611 1017 c 1,7,-1
 595 1017 l 1,8,-1
 299 1366 l 1,9,10
 299 1526 299 1526 406 1614 c 0,11,12
 512 1700 512 1700 699 1700 c 1,13,-1
 1575 672 l 1,14,15
 1575 458 1575 458 1392 378 c 0,16,17
 1333 353 1333 353 1260 344 c 1,18,-1
 1276 344 l 1,19,-1
 1575 -7 l 1,20,21
 1575 -166 1575 -166 1466 -254 c 1,22,23
 1359 -339 1359 -339 1171 -339 c 1,24,-1
 305 680 l 1,25,-1
 299 680 l 1,3,4
302 349 m 1,26,-1
 896 -340 l 1,27,-1
 302 -340 l 1,28,-1
 302 349 l 1,26,-1
EndSplineSet
EndChar

StartChar: dieresis
Encoding: 168 168 125
Width: 1360
GlyphClass: 2
Flags: W
LayerCount: 2
Fore
SplineSet
957.5 1706 m 128,-1,1
 1049 1706 1049 1706 1091.5 1699.5 c 128,-1,2
 1134 1693 1134 1693 1162 1674 c 0,3,4
 1218 1638 1218 1638 1218 1537 c 0,5,6
 1218 1434 1218 1434 1166 1395 c 0,7,8
 1120 1360 1120 1360 1031 1360 c 0,9,10
 876 1360 876 1360 818 1398 c 128,-1,11
 760 1436 760 1436 760 1536.5 c 128,-1,12
 760 1637 760 1637 813 1671.5 c 128,-1,0
 866 1706 866 1706 957.5 1706 c 128,-1,1
339.5 1704 m 128,-1,14
 431 1704 431 1704 473.5 1697.5 c 128,-1,15
 516 1691 516 1691 544 1672 c 0,16,17
 600 1636 600 1636 600 1535 c 0,18,19
 600 1432 600 1432 548 1393 c 0,20,21
 502 1358 502 1358 413 1358 c 0,22,23
 258 1358 258 1358 200 1396 c 128,-1,24
 142 1434 142 1434 142 1534.5 c 128,-1,25
 142 1635 142 1635 195 1669.5 c 128,-1,13
 248 1704 248 1704 339.5 1704 c 128,-1,14
EndSplineSet
EndChar

StartChar: copyright
Encoding: 169 169 126
Width: 2222
GlyphClass: 2
Flags: W
LayerCount: 2
Fore
SplineSet
111 314 m 0,0,1
 74 442 74 442 74 594.5 c 128,-1,2
 74 747 74 747 111 875.5 c 128,-1,3
 148 1004 148 1004 216 1107.5 c 128,-1,4
 284 1211 284 1211 378.5 1290 c 128,-1,5
 473 1369 473 1369 588 1422 c 1,6,7
 823 1528 823 1528 1111 1528 c 0,8,9
 1560 1528 1560 1528 1844 1290 c 0,10,11
 2038 1128 2038 1128 2111 876 c 0,12,13
 2148 747 2148 747 2148 595 c 0,14,15
 2148 300 2148 300 2006 82 c 0,16,17
 1874 -122 1874 -122 1635 -232 c 0,18,19
 1403 -339 1403 -339 1111 -339 c 0,20,21
 666 -339 666 -339 378 -100 c 0,22,23
 184 61 184 61 111 314 c 0,0,1
280 595 m 256,24,25
 280 216 280 216 518 0 c 1,26,27
 743 -206 743 -206 1111 -206 c 0,28,29
 1480 -206 1480 -206 1706 0 c 0,30,31
 1944 217 1944 217 1944 595 c 256,32,33
 1944 973 1944 973 1706 1189 c 0,34,35
 1480 1393 1480 1393 1111 1393 c 0,36,37
 743 1393 743 1393 518 1189 c 0,38,39
 280 974 280 974 280 595 c 256,24,25
1160 1020 m 1,40,-1
 1674 1020 l 1,41,-1
 1674 565 l 1,42,-1
 1608 565 l 2,43,44
 1369 565 1369 565 1265 638 c 0,45,46
 1160 712 1160 712 1160 885 c 2,47,-1
 1160 1020 l 1,40,-1
489 606 m 0,48,49
 489 695 489 695 519 770.5 c 128,-1,50
 549 846 549 846 609 902 c 0,51,52
 737 1020 737 1020 966 1020 c 2,53,-1
 1032 1020 l 1,54,-1
 1032 160 l 1,55,-1
 966 160 l 2,56,57
 739 160 739 160 609 292 c 0,58,59
 489 414 489 414 489 606 c 0,48,49
1160 372 m 1,60,-1
 1628 372 l 1,61,-1
 1628 349 l 2,62,63
 1628 280 1628 280 1540 222 c 1,64,65
 1443 160 1443 160 1303 160 c 2,66,-1
 1160 160 l 1,67,-1
 1160 372 l 1,60,-1
EndSplineSet
EndChar

StartChar: ordfeminine
Encoding: 170 170 127
Width: 2040
GlyphClass: 2
Flags: W
LayerCount: 2
Fore
SplineSet
1104 1487 m 1,0,-1
 1699 1487 l 1,1,-1
 1699 736 l 1,2,-1
 1600 734 l 1,3,4
 1366 734 1366 734 1228 852 c 0,5,6
 1104 958 1104 958 1104 1111 c 2,7,-1
 1104 1487 l 1,0,-1
834 734 m 1,8,9
 600 734 600 734 464 852 c 1,10,11
 340 958 340 958 340 1111 c 0,12,13
 340 1276 340 1276 466 1378 c 0,14,15
 599 1487 599 1487 839 1487 c 2,16,-1
 936 1487 l 1,17,-1
 936 736 l 1,18,-1
 834 734 l 1,8,9
EndSplineSet
EndChar

StartChar: guillemotleft
Encoding: 171 171 128
Width: 2224
GlyphClass: 2
Flags: W
LayerCount: 2
Fore
SplineSet
1939 1128 m 1,0,-1
 1939 878 l 1,1,-1
 1462 510 l 1,2,-1
 1939 138 l 1,3,-1
 1939 -108 l 1,4,-1
 1165 510 l 1,5,-1
 1939 1128 l 1,0,-1
1032 1128 m 1,6,-1
 1032 878 l 1,7,-1
 555 510 l 1,8,-1
 1032 138 l 1,9,-1
 1032 -108 l 1,10,-1
 258 510 l 1,11,-1
 1032 1128 l 1,6,-1
EndSplineSet
EndChar

StartChar: logicalnot
Encoding: 172 172 129
Width: 1707
GlyphClass: 2
Flags: W
LayerCount: 2
Fore
SplineSet
268 827 m 1,0,-1
 1438 825 l 1,1,-1
 1438 138 l 1,2,-1
 1265 138 l 1,3,-1
 1266 655 l 1,4,-1
 268 655 l 1,5,-1
 268 827 l 1,0,-1
EndSplineSet
EndChar

StartChar: registered
Encoding: 174 174 131
Width: 2222
GlyphClass: 2
Flags: W
LayerCount: 2
Fore
SplineSet
111 314 m 0,0,1
 74 442 74 442 74 594.5 c 128,-1,2
 74 747 74 747 111 875.5 c 128,-1,3
 148 1004 148 1004 216 1107.5 c 128,-1,4
 284 1211 284 1211 378.5 1290 c 128,-1,5
 473 1369 473 1369 588 1422 c 1,6,7
 823 1528 823 1528 1111 1528 c 0,8,9
 1560 1528 1560 1528 1844 1290 c 0,10,11
 2038 1128 2038 1128 2111 876 c 0,12,13
 2148 747 2148 747 2148 595 c 0,14,15
 2148 300 2148 300 2006 82 c 0,16,17
 1874 -122 1874 -122 1635 -232 c 0,18,19
 1403 -339 1403 -339 1111 -339 c 0,20,21
 666 -339 666 -339 378 -100 c 0,22,23
 184 61 184 61 111 314 c 0,0,1
280 595 m 256,24,25
 280 216 280 216 518 0 c 1,26,27
 743 -206 743 -206 1111 -206 c 0,28,29
 1480 -206 1480 -206 1706 0 c 0,30,31
 1944 217 1944 217 1944 595 c 256,32,33
 1944 973 1944 973 1706 1189 c 0,34,35
 1480 1393 1480 1393 1111 1393 c 0,36,37
 743 1393 743 1393 518 1189 c 0,38,39
 280 974 280 974 280 595 c 256,24,25
1695 785 m 0,40,41
 1695 570 1695 570 1305 536 c 1,42,43
 1466 532 1466 532 1529.5 506.5 c 128,-1,44
 1593 481 1593 481 1617.5 458.5 c 128,-1,45
 1642 436 1642 436 1654 410 c 0,46,47
 1674 368 1674 368 1674 287 c 2,48,-1
 1674 159 l 1,49,-1
 1133 159 l 1,50,-1
 1133 1020 l 1,51,-1
 1247 1020 l 2,52,53
 1593 1020 1593 1020 1672 874 c 0,54,55
 1695 832 1695 832 1695 785 c 0,40,41
522 1020 m 1,56,-1
 991 1020 l 1,57,-1
 991 160 l 1,58,-1
 522 160 l 1,59,-1
 522 1020 l 1,56,-1
EndSplineSet
EndChar

StartChar: macron
Encoding: 175 175 132
Width: 1022
GlyphClass: 2
Flags: W
LayerCount: 2
Fore
SplineSet
90 1417 m 1,0,-1
 932 1417 l 1,1,-1
 932 1200 l 1,2,-1
 90 1200 l 1,3,-1
 90 1417 l 1,0,-1
EndSplineSet
EndChar

StartChar: degree
Encoding: 176 176 133
Width: 1195
GlyphClass: 2
Flags: W
LayerCount: 2
Fore
SplineSet
580 1171 m 0,0,1
 491 1171 491 1171 414.5 1199.5 c 128,-1,2
 338 1228 338 1228 282 1282 c 0,3,4
 164 1397 164 1397 164 1587 c 0,5,6
 164 1776 164 1776 296 1891 c 0,7,8
 421 2000 421 2000 607 2000 c 256,9,10
 793 2000 793 2000 910 1891 c 0,11,12
 1031 1778 1031 1778 1031 1587 c 0,13,14
 1031 1399 1031 1399 896 1282 c 0,15,16
 767 1171 767 1171 580 1171 c 0,0,1
591 1391 m 0,17,18
 634 1391 634 1391 673.5 1406 c 128,-1,19
 713 1421 713 1421 742 1448 c 0,20,21
 806 1505 806 1505 806 1587 c 0,22,23
 806 1668 806 1668 745 1726 c 0,24,25
 685 1782 685 1782 600 1782 c 0,26,27
 513 1782 513 1782 451 1725.5 c 128,-1,28
 389 1669 389 1669 389 1587 c 256,29,30
 389 1505 389 1505 448 1448 c 0,31,32
 506 1391 506 1391 591 1391 c 0,17,18
EndSplineSet
EndChar

StartChar: plusminus
Encoding: 177 177 134
Width: 1538
GlyphClass: 2
Flags: W
LayerCount: 2
Fore
SplineSet
259 840 m 1,0,-1
 684 840 l 1,1,-1
 684 1298 l 1,2,-1
 854 1298 l 1,3,-1
 854 840 l 1,4,-1
 1279 840 l 1,5,-1
 1279 669 l 1,6,-1
 854 669 l 1,7,-1
 854 358 l 1,8,-1
 684 358 l 1,9,-1
 684 669 l 1,10,-1
 259 669 l 1,11,-1
 259 840 l 1,0,-1
258 171 m 1,12,-1
 1279 171 l 1,13,-1
 1279 -1 l 1,14,-1
 258 -1 l 1,15,-1
 258 171 l 1,12,-1
EndSplineSet
EndChar

StartChar: twosuperior
Encoding: 178 178 135
Width: 1700
GlyphClass: 2
Flags: W
LayerCount: 2
Fore
SplineSet
934 1870 m 1,0,-1
 1096 1870 l 2,1,2
 1343 1870 1343 1870 1397 1692 c 0,3,4
 1415 1632 1415 1632 1415 1553 c 0,5,6
 1415 1410 1415 1410 1338.5 1334.5 c 128,-1,7
 1262 1259 1262 1259 1111 1259 c 2,8,-1
 934 1259 l 1,9,-1
 934 1870 l 1,0,-1
309 1600 m 2,10,11
 309 1723 309 1723 390 1798 c 0,12,13
 467 1870 467 1870 576 1870 c 2,14,-1
 783 1870 l 1,15,-1
 783 1450 l 1,16,-1
 309 1450 l 1,17,-1
 309 1600 l 2,10,11
314 1019 m 1,18,19
 311 1237 311 1237 486 1300 c 0,20,21
 543 1320 543 1320 618 1320 c 2,22,-1
 783 1320 l 1,23,-1
 783 850 l 1,24,-1
 315 850 l 1,25,-1
 314 1019 l 1,18,19
934 1106 m 1,26,-1
 1382 1106 l 1,27,-1
 1382 850 l 1,28,-1
 934 850 l 1,29,-1
 934 1106 l 1,26,-1
EndSplineSet
EndChar

StartChar: threesuperior
Encoding: 179 179 136
Width: 1698
GlyphClass: 2
Flags: W
LayerCount: 2
Fore
SplineSet
1444 1577 m 0,0,1
 1444 1414 1444 1414 1173 1364 c 1,2,3
 1394 1325 1394 1325 1458 1210 c 0,4,5
 1478 1175 1478 1175 1478 1138 c 0,6,7
 1478 1001 1478 1001 1375.5 925.5 c 128,-1,8
 1273 850 1273 850 1053 850 c 2,9,-1
 920 850 l 1,10,-1
 920 1306 l 1,11,-1
 760 1306 l 1,12,-1
 760 1431 l 1,13,-1
 920 1431 l 1,14,-1
 920 1866 l 1,15,-1
 1039 1866 l 2,16,17
 1444 1866 1444 1866 1444 1577 c 0,0,1
239 1571 m 2,18,19
 239 1866 239 1866 601 1866 c 2,20,-1
 766 1866 l 1,21,-1
 766 1522 l 1,22,-1
 239 1522 l 1,23,-1
 239 1571 l 2,18,19
601 850 m 2,24,25
 239 850 239 850 239 1144 c 2,26,-1
 239 1194 l 1,27,-1
 766 1194 l 1,28,-1
 766 850 l 1,29,-1
 601 850 l 2,24,25
EndSplineSet
EndChar

StartChar: acute
Encoding: 180 180 137
Width: 1018
GlyphClass: 2
Flags: W
LayerCount: 2
Fore
SplineSet
497.5 1369.5 m 128,-1,1
 419 1332 419 1332 360 1332 c 0,2,3
 252 1332 252 1332 198 1384 c 1,4,-1
 153 1429 l 1,5,-1
 682 1886 l 1,6,-1
 868 1699 l 1,7,-1
 648 1479 l 2,8,0
 576 1407 576 1407 497.5 1369.5 c 128,-1,1
EndSplineSet
EndChar

StartChar: mu
Encoding: 181 181 138
AltUni2: 0003bc.ffffffff.0
Width: 1874
GlyphClass: 2
Flags: W
LayerCount: 2
Fore
SplineSet
1013 1020 m 1,0,-1
 1569 1020 l 1,1,-1
 1569 0 l 1,2,-1
 1013 0 l 1,3,-1
 1013 1020 l 1,0,-1
295 1020 m 1,4,-1
 848 1020 l 1,5,-1
 848 -510 l 1,6,-1
 295 -510 l 1,7,-1
 295 1020 l 1,4,-1
EndSplineSet
EndChar

StartChar: paragraph
Encoding: 182 182 139
Width: 2047
GlyphClass: 2
Flags: W
LayerCount: 2
Fore
SplineSet
1171 1530 m 1,0,-1
 1709 1530 l 1,1,-1
 1709 -171 l 1,2,-1
 1171 -171 l 1,3,-1
 1171 1530 l 1,0,-1
889 340 m 2,4,5
 633 340 633 340 478 532 c 0,6,7
 338 705 338 705 338 929 c 0,8,9
 338 1176 338 1176 473 1343 c 0,10,11
 624 1530 624 1530 917 1530 c 2,12,-1
 991 1530 l 1,13,-1
 991 340 l 1,14,-1
 889 340 l 2,4,5
EndSplineSet
EndChar

StartChar: periodcentered
Encoding: 183 183 140
Width: 854
GlyphClass: 2
Flags: W
LayerCount: 2
Fore
SplineSet
440 444 m 0,0,1
 109 444 109 444 109 651 c 0,2,3
 109 757 109 757 188 803.5 c 128,-1,4
 267 850 267 850 429 850 c 128,-1,5
 591 850 591 850 668 803.5 c 128,-1,6
 745 757 745 757 745 650.5 c 128,-1,7
 745 544 745 544 673.5 494 c 128,-1,8
 602 444 602 444 440 444 c 0,0,1
EndSplineSet
EndChar

StartChar: cedilla
Encoding: 184 184 141
Width: 1229
GlyphClass: 2
Flags: W
LayerCount: 2
Fore
SplineSet
417 -428 m 2,0,1
 376 -376 376 -376 381 -334 c 0,2,3
 393 -245 393 -245 513 -158 c 2,4,-1
 717 -9 l 1,5,-1
 911 -259 l 1,6,-1
 515 -556 l 1,7,-1
 417 -428 l 2,0,1
EndSplineSet
EndChar

StartChar: onesuperior
Encoding: 185 185 142
Width: 1195
GlyphClass: 2
Flags: W
LayerCount: 2
Fore
SplineSet
318 1819 m 1,0,-1
 877 1962 l 1,1,-1
 877 850 l 1,2,-1
 318 850 l 1,3,-1
 318 1819 l 1,0,-1
EndSplineSet
EndChar

StartChar: ordmasculine
Encoding: 186 186 143
Width: 2040
GlyphClass: 2
Flags: W
LayerCount: 2
Fore
SplineSet
1105 1487 m 1,0,-1
 1202 1487 l 2,1,2
 1442 1487 1442 1487 1575 1378 c 0,3,4
 1700 1275 1700 1275 1700 1111 c 0,5,6
 1700 958 1700 958 1576 852 c 1,7,8
 1440 734 1440 734 1207 734 c 1,9,-1
 1105 736 l 1,10,-1
 1105 1487 l 1,0,-1
835 734 m 1,11,12
 601 734 601 734 464 852 c 0,13,14
 341 958 341 958 341 1111 c 0,15,16
 341 1276 341 1276 466 1378 c 0,17,18
 600 1487 600 1487 840 1487 c 2,19,-1
 937 1487 l 1,20,-1
 937 736 l 1,21,-1
 835 734 l 1,11,12
EndSplineSet
EndChar

StartChar: guillemotright
Encoding: 187 187 144
Width: 2224
GlyphClass: 2
Flags: W
LayerCount: 2
Fore
SplineSet
1126 138 m 1,0,-1
 1603 510 l 1,1,-1
 1126 878 l 1,2,-1
 1126 1128 l 1,3,-1
 1900 510 l 1,4,-1
 1126 -108 l 1,5,-1
 1126 138 l 1,0,-1
285 138 m 1,6,-1
 762 510 l 1,7,-1
 285 878 l 1,8,-1
 285 1128 l 1,9,-1
 1059 510 l 1,10,-1
 285 -108 l 1,11,-1
 285 138 l 1,6,-1
EndSplineSet
EndChar

StartChar: onequarter
Encoding: 188 188 145
Width: 2038
GlyphClass: 2
Flags: W
LayerCount: 2
Fore
SplineSet
731 1819 m 1,0,-1
 1290 1962 l 1,1,-1
 1290 850 l 1,2,-1
 731 850 l 1,3,-1
 731 1819 l 1,0,-1
421 127 m 2,4,5
 421 251 421 251 443 309.5 c 128,-1,6
 465 368 465 368 493 402.5 c 128,-1,7
 521 437 521 437 566 460 c 0,8,9
 662 510 662 510 829 510 c 2,10,-1
 943 510 l 1,11,-1
 943 -255 l 1,12,-1
 421 -255 l 1,13,-1
 421 127 l 2,4,5
1617 252 m 1,14,-1
 1617 -510 l 1,15,-1
 1098 -510 l 1,16,-1
 1098 252 l 1,17,-1
 1617 252 l 1,14,-1
EndSplineSet
EndChar

StartChar: onehalf
Encoding: 189 189 146
Width: 2038
GlyphClass: 2
Flags: W
LayerCount: 2
Fore
SplineSet
737 1819 m 1,0,-1
 1296 1962 l 1,1,-1
 1296 850 l 1,2,-1
 737 850 l 1,3,-1
 737 1819 l 1,0,-1
1091 510 m 1,4,-1
 1253 510 l 2,5,6
 1500 510 1500 510 1554 332 c 0,7,8
 1572 272 1572 272 1572 193 c 0,9,10
 1572 50 1572 50 1495.5 -25.5 c 128,-1,11
 1419 -101 1419 -101 1268 -101 c 2,12,-1
 1091 -101 l 1,13,-1
 1091 510 l 1,4,-1
466 240 m 2,14,15
 466 363 466 363 547 438 c 0,16,17
 624 510 624 510 733 510 c 2,18,-1
 940 510 l 1,19,-1
 940 90 l 1,20,-1
 466 90 l 1,21,-1
 466 240 l 2,14,15
471 -341 m 1,22,23
 468 -123 468 -123 643 -60 c 0,24,25
 700 -40 700 -40 775 -40 c 2,26,-1
 940 -40 l 1,27,-1
 940 -510 l 1,28,-1
 472 -510 l 1,29,-1
 471 -341 l 1,22,23
1539 -254 m 1,30,-1
 1539 -510 l 1,31,-1
 1091 -510 l 1,32,-1
 1091 -254 l 1,33,-1
 1539 -254 l 1,30,-1
EndSplineSet
EndChar

StartChar: threequarters
Encoding: 190 190 147
Width: 2038
GlyphClass: 2
Flags: W
LayerCount: 2
Fore
SplineSet
1621 1577 m 0,0,1
 1621 1414 1621 1414 1350 1364 c 1,2,3
 1571 1325 1571 1325 1636 1210 c 0,4,5
 1655 1175 1655 1175 1655 1138 c 0,6,7
 1655 1001 1655 1001 1552.5 925.5 c 128,-1,8
 1450 850 1450 850 1230 850 c 2,9,-1
 1097 850 l 1,10,-1
 1097 1306 l 1,11,-1
 937 1306 l 1,12,-1
 937 1431 l 1,13,-1
 1097 1431 l 1,14,-1
 1097 1866 l 1,15,-1
 1216 1866 l 2,16,17
 1621 1866 1621 1866 1621 1577 c 0,0,1
416 1571 m 2,18,19
 416 1866 416 1866 778 1866 c 2,20,-1
 943 1866 l 1,21,-1
 943 1522 l 1,22,-1
 416 1522 l 1,23,-1
 416 1571 l 2,18,19
778 850 m 2,24,25
 416 850 416 850 416 1144 c 2,26,-1
 416 1194 l 1,27,-1
 943 1194 l 1,28,-1
 943 850 l 1,29,-1
 778 850 l 2,24,25
415 127 m 2,30,31
 415 251 415 251 437 309.5 c 128,-1,32
 459 368 459 368 487 402.5 c 128,-1,33
 515 437 515 437 560 460 c 0,34,35
 656 510 656 510 823 510 c 2,36,-1
 937 510 l 1,37,-1
 937 -255 l 1,38,-1
 415 -255 l 1,39,-1
 415 127 l 2,30,31
1611 252 m 1,40,-1
 1611 -510 l 1,41,-1
 1092 -510 l 1,42,-1
 1092 252 l 1,43,-1
 1611 252 l 1,40,-1
EndSplineSet
EndChar

StartChar: questiondown
Encoding: 191 191 148
Width: 1874
GlyphClass: 2
Flags: W
LayerCount: 2
Fore
SplineSet
938 1500 m 0,0,1
 803 1500 803 1500 712 1548 c 0,2,3
 617 1599 617 1599 617 1684 c 128,-1,4
 617 1769 617 1769 704 1820 c 0,5,6
 786 1869 786 1869 919 1869 c 0,7,8
 1053 1869 1053 1869 1145 1820 c 0,9,10
 1243 1768 1243 1768 1243 1684 c 0,11,12
 1243 1598 1243 1598 1156 1548 c 0,13,14
 1071 1500 1071 1500 938 1500 c 0,0,1
299 483 m 0,15,16
 299 592 299 592 332 684.5 c 128,-1,17
 365 777 365 777 431 843 c 0,18,19
 570 982 570 982 821 982 c 2,20,-1
 873 982 l 1,21,-1
 873 -38 l 1,22,-1
 796 -38 l 2,23,24
 550 -38 550 -38 418 114 c 0,25,26
 299 252 299 252 299 483 c 0,15,16
1021 525 m 1,27,-1
 1575 525 l 1,28,-1
 1575 415 l 2,29,30
 1575 72 1575 72 1310 -10 c 0,31,32
 1217 -38 1217 -38 1087 -38 c 2,33,-1
 1021 -38 l 1,34,-1
 1021 525 l 1,27,-1
EndSplineSet
EndChar

StartChar: AE
Encoding: 198 198 155
Width: 2218
GlyphClass: 2
Flags: W
LayerCount: 2
Fore
SplineSet
1570 1361 m 1,0,-1
 2125 1361 l 1,1,-1
 2125 983 l 1,2,-1
 2021 983 l 2,3,4
 1678 983 1678 983 1601 1138 c 0,5,6
 1570 1200 1570 1200 1570 1304 c 2,7,-1
 1570 1361 l 1,0,-1
859 1361 m 1,8,-1
 1397 1361 l 1,9,-1
 1397 813 l 1,10,-1
 1798 813 l 1,11,-1
 1798 552 l 1,12,-1
 1397 552 l 1,13,-1
 1397 2 l 1,14,-1
 859 2 l 1,15,-1
 859 1361 l 1,8,-1
121 924 m 2,16,17
 121 1145 121 1145 222 1248 c 0,18,19
 333 1361 333 1361 584 1361 c 2,20,-1
 674 1361 l 1,21,-1
 674 0 l 1,22,-1
 121 0 l 1,23,-1
 121 924 l 2,16,17
1569 97 m 2,24,25
 1569 304 1569 304 1808 378 c 0,26,27
 1901 406 1901 406 2046 406 c 2,28,-1
 2125 406 l 1,29,-1
 2125 0 l 1,30,-1
 1569 0 l 1,31,-1
 1569 97 l 2,24,25
EndSplineSet
EndChar

StartChar: Eth
Encoding: 208 208 165
Width: 1534
GlyphClass: 2
Flags: W
LayerCount: 2
Fore
SplineSet
837 1361 m 1,0,-1
 921 1361 l 2,1,2
 1345 1361 1345 1361 1426 988 c 0,3,4
 1450 875 1450 875 1450 724 c 128,-1,5
 1450 573 1450 573 1418.5 436 c 128,-1,6
 1387 299 1387 299 1322 202 c 0,7,8
 1187 0 1187 0 921 0 c 2,9,-1
 837 0 l 1,10,-1
 837 1361 l 1,0,-1
133 644 m 1,11,-1
 -44 644 l 1,12,-1
 -44 811 l 1,13,-1
 133 811 l 1,14,-1
 133 1361 l 1,15,-1
 671 1361 l 1,16,-1
 671 2 l 1,17,-1
 133 2 l 1,18,-1
 133 644 l 1,11,-1
EndSplineSet
EndChar

StartChar: multiply
Encoding: 215 215 172
Width: 1538
GlyphClass: 2
Flags: W
LayerCount: 2
Fore
SplineSet
632 556 m 1,0,-1
 305 884 l 1,1,-1
 441 1020 l 1,2,-1
 768 692 l 1,3,-1
 1096 1020 l 1,4,-1
 1233 884 l 1,5,-1
 905 556 l 1,6,-1
 1233 229 l 1,7,-1
 1097 93 l 1,8,-1
 769 420 l 1,9,-1
 441 93 l 1,10,-1
 305 229 l 1,11,-1
 632 556 l 1,0,-1
EndSplineSet
EndChar

StartChar: Oslash
Encoding: 216 216 173
Width: 1534
GlyphClass: 2
Flags: W
LayerCount: 2
Fore
SplineSet
1331 1187 m 1,0,1
 1464 1013 1464 1013 1464 717 c 0,2,3
 1464 419 1464 419 1349 226 c 0,4,5
 1213 0 1213 0 926 0 c 2,6,-1
 848 0 l 1,7,-1
 848 1361 l 1,8,-1
 926 1361 l 2,9,10
 1061 1361 1061 1361 1160 1318 c 1,11,-1
 1358 1550 l 1,12,-1
 1516 1393 l 1,13,-1
 1330 1187 l 1,14,-1
 1331 1187 l 1,0,1
607 0 m 2,15,16
 475 0 475 0 381 45 c 1,17,-1
 172 -190 l 1,18,-1
 16 -34 l 1,19,-1
 214 182 l 1,20,-1
 212 182 l 1,21,22
 69 376 69 376 69 717 c 0,23,24
 69 1106 69 1106 285 1266 c 0,25,26
 412 1361 412 1361 607 1361 c 2,27,-1
 685 1361 l 1,28,-1
 685 0 l 1,29,-1
 607 0 l 2,15,16
EndSplineSet
EndChar

StartChar: Thorn
Encoding: 222 222 179
Width: 1534
GlyphClass: 2
Flags: W
LayerCount: 2
Fore
SplineSet
133 1361 m 1,0,-1
 671 1361 l 1,1,-1
 671 2 l 1,2,-1
 133 2 l 1,3,-1
 133 1361 l 1,0,-1
851 1104 m 1,4,-1
 925 1104 l 2,5,6
 1372 1104 1372 1104 1472 857 c 0,7,8
 1504 776 1504 776 1504 670 c 0,9,10
 1504 464 1504 464 1365.5 356.5 c 128,-1,11
 1227 249 1227 249 953 249 c 2,12,-1
 851 249 l 1,13,-1
 851 1104 l 1,4,-1
EndSplineSet
EndChar

StartChar: germandbls
Encoding: 223 223 180
Width: 1704
GlyphClass: 2
Flags: W
LayerCount: 2
Fore
SplineSet
1007 1361 m 1,0,-1
 1084 1361 l 2,1,2
 1380 1361 1380 1361 1484 1207 c 0,3,4
 1519 1154 1519 1154 1519 1102.5 c 128,-1,5
 1519 1051 1519 1051 1505 1002 c 128,-1,6
 1491 953 1491 953 1460 909 c 0,7,8
 1390 812 1390 812 1254 771 c 1,9,10
 1522 732 1522 732 1594 566 c 0,11,12
 1619 506 1619 506 1619 415 c 128,-1,13
 1619 324 1619 324 1586 245 c 128,-1,14
 1553 166 1553 166 1488 112 c 0,15,16
 1355 0 1355 0 1099 0 c 2,17,-1
 1007 0 l 1,18,-1
 1007 1361 l 1,0,-1
291 680 m 1,19,-1
 126 680 l 1,20,-1
 126 847 l 1,21,-1
 291 847 l 1,22,-1
 291 924 l 2,23,24
 291 1145 291 1145 392 1248 c 0,25,26
 503 1361 503 1361 754 1361 c 2,27,-1
 844 1361 l 1,28,-1
 844 0 l 1,29,-1
 291 0 l 1,30,-1
 291 680 l 1,19,-1
EndSplineSet
EndChar

StartChar: ae
Encoding: 230 230 187
Width: 2215
GlyphClass: 2
Flags: W
LayerCount: 2
Fore
SplineSet
1553 1020 m 1,0,-1
 1619 1020 l 2,1,2
 1997 1020 1997 1020 2080 764 c 0,3,4
 2107 679 2107 679 2107 567 c 2,5,-1
 2107 457 l 1,6,-1
 1553 457 l 1,7,-1
 1553 1020 l 1,0,-1
852 1020 m 1,8,-1
 1404 1020 l 1,9,-1
 1404 0 l 1,10,-1
 1341 0 l 2,11,12
 1081 0 1081 0 967 91 c 0,13,14
 852 183 852 183 852 395 c 2,15,-1
 852 1020 l 1,8,-1
130 498 m 0,16,17
 130 608 130 608 159 702.5 c 128,-1,18
 188 797 188 797 249 868 c 0,19,20
 381 1020 381 1020 627 1020 c 2,21,-1
 704 1020 l 1,22,-1
 704 0 l 1,23,-1
 652 0 l 2,24,25
 400 0 400 0 262 138 c 0,26,27
 130 270 130 270 130 498 c 0,16,17
1553 261 m 1,28,-1
 2053 261 l 1,29,-1
 2053 233 l 2,30,31
 2053 140 2053 140 1986 76 c 1,32,33
 1904 0 1904 0 1753 0 c 2,34,-1
 1553 0 l 1,35,-1
 1553 261 l 1,28,-1
EndSplineSet
EndChar

StartChar: eth
Encoding: 240 240 197
Width: 1534
GlyphClass: 2
Flags: W
LayerCount: 2
Fore
SplineSet
1375 1412 m 1,0,1
 1464 1182 1464 1182 1464 917 c 0,2,3
 1464 590 1464 590 1349 326 c 0,4,5
 1263 128 1263 128 1108 44 c 1,6,7
 1029 0 1029 0 926 0 c 2,8,-1
 848 0 l 1,9,-1
 848 1277 l 1,10,-1
 576 1206 l 1,11,-1
 527 1395 l 1,12,-1
 867 1484 l 1,13,-1
 848 1484 l 1,14,-1
 848 1771 l 1,15,-1
 926 1771 l 2,16,17
 1146 1771 1146 1771 1276 1592 c 1,18,-1
 1515 1656 l 2,19,20
 1555 1667 1555 1667 1591 1676 c 1,21,-1
 1642 1486 l 1,22,-1
 1358 1412 l 1,23,-1
 1375 1412 l 1,0,1
135 498 m 0,24,25
 135 608 135 608 164 702.5 c 128,-1,26
 193 797 193 797 254 868 c 0,27,28
 386 1020 386 1020 632 1020 c 2,29,-1
 709 1020 l 1,30,-1
 709 0 l 1,31,-1
 657 0 l 2,32,33
 405 0 405 0 267 138 c 0,34,35
 135 270 135 270 135 498 c 0,24,25
EndSplineSet
EndChar

StartChar: divide
Encoding: 247 247 204
Width: 1538
GlyphClass: 2
Flags: W
LayerCount: 2
Fore
SplineSet
769 1156 m 256,0,1
 934 1156 934 1156 934 991.5 c 128,-1,2
 934 827 934 827 769 827 c 256,3,4
 604 827 604 827 604 991.5 c 128,-1,5
 604 1156 604 1156 769 1156 c 256,0,1
293 660 m 1,6,-1
 1245 660 l 1,7,-1
 1245 469 l 1,8,-1
 293 469 l 1,9,-1
 293 660 l 1,6,-1
769 -30 m 256,10,11
 604 -30 604 -30 604 135.5 c 128,-1,12
 604 301 604 301 769 301 c 256,13,14
 934 301 934 301 934 135.5 c 128,-1,15
 934 -30 934 -30 769 -30 c 256,10,11
EndSplineSet
EndChar

StartChar: oslash
Encoding: 248 248 205
Width: 1534
GlyphClass: 2
Flags: W
LayerCount: 2
Fore
SplineSet
1332 830 m 1,0,1
 1422 689 1422 689 1422 502 c 0,2,3
 1422 270 1422 270 1290 138 c 0,4,5
 1152 0 1152 0 900 0 c 2,6,-1
 848 0 l 1,7,-1
 848 1020 l 1,8,-1
 925 1020 l 2,9,10
 1070 1020 1070 1020 1164 972 c 1,11,-1
 1393 1208 l 1,12,-1
 1548 1054 l 1,13,-1
 1329 830 l 1,14,-1
 1332 830 l 1,0,1
634 0 m 2,15,16
 487 0 487 0 374 50 c 1,17,-1
 136 -188 l 1,18,-1
 -18 -34 l 1,19,-1
 204 188 l 1,20,-1
 201 188 l 1,21,22
 112 319 112 319 112 502 c 0,23,24
 112 730 112 730 231 868 c 0,25,26
 363 1020 363 1020 609 1020 c 2,27,-1
 686 1020 l 1,28,-1
 686 0 l 1,29,-1
 634 0 l 2,15,16
EndSplineSet
EndChar

StartChar: thorn
Encoding: 254 254 211
Width: 1534
GlyphClass: 2
Flags: W
LayerCount: 2
Fore
SplineSet
133 1530 m 1,0,-1
 671 1530 l 1,1,-1
 671 -540 l 1,2,-1
 133 -540 l 1,3,-1
 133 1530 l 1,0,-1
837 1020 m 1,4,-1
 914 1020 l 2,5,6
 1160 1020 1160 1020 1290 868 c 0,7,8
 1409 729 1409 729 1409 502 c 0,9,10
 1409 271 1409 271 1278 138 c 0,11,12
 1142 0 1142 0 889 0 c 2,13,-1
 837 0 l 1,14,-1
 837 1020 l 1,4,-1
EndSplineSet
EndChar

StartChar: Aogonek
Encoding: 260 260 217
Width: 1534
GlyphClass: 2
Flags: W
LayerCount: 2
Fore
SplineSet
852 -263 m 0,0,1
 852 -93 852 -93 967 0 c 1,2,-1
 859 0 l 1,3,-1
 859 1361 l 1,4,-1
 949 1361 l 2,5,6
 1317 1361 1317 1361 1388 1112 c 0,7,8
 1412 1030 1412 1030 1412 924 c 2,9,-1
 1412 0 l 1,10,-1
 1157 0 l 1,11,-1
 1157 -28 l 2,12,13
 1157 -140 1157 -140 1179 -174 c 128,-1,14
 1201 -208 1201 -208 1225.5 -219 c 128,-1,15
 1250 -230 1250 -230 1286 -230 c 2,16,-1
 1412 -230 l 1,17,-1
 1412 -560 l 1,18,-1
 1196 -560 l 2,19,20
 1055 -560 1055 -560 958 -483 c 0,21,22
 852 -399 852 -399 852 -263 c 0,0,1
121 924 m 2,23,24
 121 1145 121 1145 222 1248 c 0,25,26
 333 1361 333 1361 584 1361 c 2,27,-1
 674 1361 l 1,28,-1
 674 0 l 1,29,-1
 121 0 l 1,30,-1
 121 924 l 2,23,24
EndSplineSet
EndChar

StartChar: aogonek
Encoding: 261 261 218
Width: 1534
GlyphClass: 2
Flags: W
LayerCount: 2
Fore
SplineSet
1341 0 m 2,0,1
 1226 0 1226 0 1149 15 c 1,2,-1
 1149 -28 l 2,3,4
 1149 -140 1149 -140 1171 -174 c 128,-1,5
 1193 -208 1193 -208 1217.5 -219 c 128,-1,6
 1242 -230 1242 -230 1278 -230 c 2,7,-1
 1404 -230 l 1,8,-1
 1404 -560 l 1,9,-1
 1188 -560 l 2,10,11
 1047 -560 1047 -560 950 -483 c 0,12,13
 844 -399 844 -399 844 -263 c 0,14,15
 844 -82 844 -82 969 5 c 0,16,17
 1008 32 1008 32 1056 44 c 1,18,-1
 1052 44 l 1,19,20
 948 90 948 90 900 175 c 128,-1,21
 852 260 852 260 852 395 c 2,22,-1
 852 1020 l 1,23,-1
 1404 1020 l 1,24,-1
 1404 0 l 1,25,-1
 1341 0 l 2,0,1
130 498 m 0,26,27
 130 608 130 608 159 702.5 c 128,-1,28
 188 797 188 797 249 868 c 0,29,30
 381 1020 381 1020 627 1020 c 2,31,-1
 704 1020 l 1,32,-1
 704 0 l 1,33,-1
 652 0 l 2,34,35
 400 0 400 0 262 138 c 0,36,37
 130 270 130 270 130 498 c 0,26,27
EndSplineSet
EndChar

StartChar: dcaron
Encoding: 271 271 228
Width: 2040
GlyphClass: 2
Flags: W
LayerCount: 2
Fore
SplineSet
1554 1586 m 1,0,-1
 1946 1586 l 1,1,-1
 1946 1329 l 2,2,3
 1946 1216 1946 1216 1935.5 1141 c 128,-1,4
 1925 1066 1925 1066 1890.5 1020.5 c 128,-1,5
 1856 975 1856 975 1791 956 c 128,-1,6
 1726 937 1726 937 1617 937 c 2,7,-1
 1554 937 l 1,8,-1
 1554 1586 l 1,0,-1
871 1531 m 1,9,-1
 1404 1531 l 1,10,-1
 1404 0 l 1,11,-1
 871 0 l 1,12,-1
 871 1531 l 1,9,-1
130 498 m 0,13,14
 130 608 130 608 159 702.5 c 128,-1,15
 188 797 188 797 249 868 c 0,16,17
 381 1020 381 1020 627 1020 c 2,18,-1
 704 1020 l 1,19,-1
 704 0 l 1,20,-1
 652 0 l 2,21,22
 400 0 400 0 262 138 c 0,23,24
 130 270 130 270 130 498 c 0,13,14
EndSplineSet
EndChar

StartChar: Dcroat
Encoding: 272 272 229
Width: 1704
GlyphClass: 2
Flags: W
LayerCount: 2
Fore
SplineSet
1007 1361 m 1,0,-1
 1091 1361 l 2,1,2
 1515 1361 1515 1361 1596 988 c 0,3,4
 1620 875 1620 875 1620 724 c 128,-1,5
 1620 573 1620 573 1588.5 436 c 128,-1,6
 1557 299 1557 299 1492 202 c 0,7,8
 1357 0 1357 0 1091 0 c 2,9,-1
 1007 0 l 1,10,-1
 1007 1361 l 1,0,-1
303 644 m 1,11,-1
 126 644 l 1,12,-1
 126 811 l 1,13,-1
 303 811 l 1,14,-1
 303 1361 l 1,15,-1
 841 1361 l 1,16,-1
 841 2 l 1,17,-1
 303 2 l 1,18,-1
 303 644 l 1,11,-1
EndSplineSet
EndChar

StartChar: dcroat
Encoding: 273 273 230
Width: 1534
GlyphClass: 2
Flags: W
LayerCount: 2
Fore
SplineSet
871 1191 m 1,0,-1
 570 1191 l 1,1,-1
 570 1361 l 1,2,-1
 871 1361 l 1,3,-1
 871 1531 l 1,4,-1
 1404 1531 l 1,5,-1
 1404 1361 l 1,6,-1
 1550 1361 l 1,7,-1
 1550 1191 l 1,8,-1
 1404 1191 l 1,9,-1
 1404 0 l 1,10,-1
 871 0 l 1,11,-1
 871 1191 l 1,0,-1
130 498 m 0,12,13
 130 608 130 608 159 702.5 c 128,-1,14
 188 797 188 797 249 868 c 0,15,16
 381 1020 381 1020 627 1020 c 2,17,-1
 704 1020 l 1,18,-1
 704 0 l 1,19,-1
 652 0 l 2,20,21
 400 0 400 0 262 138 c 0,22,23
 130 270 130 270 130 498 c 0,12,13
EndSplineSet
EndChar

StartChar: Eogonek
Encoding: 280 280 237
Width: 1534
GlyphClass: 2
Flags: W
LayerCount: 2
Fore
SplineSet
845 1361 m 1,0,-1
 1400 1361 l 1,1,-1
 1400 983 l 1,2,-1
 1296 983 l 2,3,4
 1025 983 1025 983 926 1068 c 0,5,6
 845 1138 845 1138 845 1294 c 2,7,-1
 845 1361 l 1,0,-1
134 1361 m 1,8,-1
 672 1361 l 1,9,-1
 672 813 l 1,10,-1
 1073 813 l 1,11,-1
 1073 552 l 1,12,-1
 672 552 l 1,13,-1
 672 2 l 1,14,-1
 134 2 l 1,15,-1
 134 1361 l 1,8,-1
840 -263 m 0,16,17
 840 -93 840 -93 955 0 c 1,18,-1
 844 0 l 1,19,-1
 844 97 l 2,20,21
 844 304 844 304 1084 378 c 0,22,23
 1176 406 1176 406 1321 406 c 2,24,-1
 1400 406 l 1,25,-1
 1400 0 l 1,26,-1
 1145 0 l 1,27,-1
 1145 -28 l 2,28,29
 1145 -140 1145 -140 1167 -174 c 128,-1,30
 1189 -208 1189 -208 1213.5 -219 c 128,-1,31
 1238 -230 1238 -230 1274 -230 c 2,32,-1
 1400 -230 l 1,33,-1
 1400 -560 l 1,34,-1
 1184 -560 l 2,35,36
 1043 -560 1043 -560 946 -483 c 0,37,38
 840 -399 840 -399 840 -263 c 0,16,17
EndSplineSet
EndChar

StartChar: eogonek
Encoding: 281 281 238
Width: 1534
GlyphClass: 2
Flags: W
LayerCount: 2
Fore
SplineSet
851 1020 m 1,0,-1
 917 1020 l 2,1,2
 1295 1020 1295 1020 1378 764 c 0,3,4
 1405 679 1405 679 1405 567 c 2,5,-1
 1405 457 l 1,6,-1
 851 457 l 1,7,-1
 851 1020 l 1,0,-1
129 498 m 0,8,9
 129 608 129 608 158 702.5 c 128,-1,10
 187 797 187 797 248 868 c 0,11,12
 380 1020 380 1020 626 1020 c 2,13,-1
 703 1020 l 1,14,-1
 703 0 l 1,15,-1
 651 0 l 2,16,17
 399 0 399 0 261 138 c 0,18,19
 129 270 129 270 129 498 c 0,8,9
826 -263 m 0,20,21
 826 -93 826 -93 941 0 c 1,22,-1
 851 0 l 1,23,-1
 851 261 l 1,24,-1
 1351 261 l 1,25,-1
 1351 233 l 2,26,27
 1351 102 1351 102 1221 36 c 0,28,29
 1175 12 1175 12 1109 3 c 1,30,-1
 1131 3 l 1,31,-1
 1131 -28 l 2,32,33
 1131 -140 1131 -140 1153 -174 c 128,-1,34
 1175 -208 1175 -208 1199.5 -219 c 128,-1,35
 1224 -230 1224 -230 1260 -230 c 2,36,-1
 1386 -230 l 1,37,-1
 1386 -560 l 1,38,-1
 1170 -560 l 2,39,40
 1029 -560 1029 -560 932 -483 c 0,41,42
 826 -399 826 -399 826 -263 c 0,20,21
EndSplineSet
EndChar

StartChar: hcircumflex
Encoding: 293 293 250
Width: 1534
GlyphClass: 2
Flags: W
LayerCount: 2
Fore
SplineSet
129 1531 m 1,0,-1
 667 1531 l 1,1,-1
 667 1517 l 1,2,-1
 626 1517 l 1,3,-1
 1005 1844 l 1,4,-1
 1532 1389 l 1,5,-1
 1487 1344 l 2,6,7
 1435 1292 1435 1292 1358 1292 c 0,8,9
 1210 1292 1210 1292 1065 1439 c 2,10,-1
 1005 1500 l 1,11,-1
 976 1469 l 1,12,13
 816 1292 816 1292 662 1292 c 2,14,-1
 649 1292 l 2,15,16
 643 1292 643 1292 638 1293 c 1,17,-1
 667 1293 l 1,18,-1
 667 0 l 1,19,-1
 129 0 l 1,20,-1
 129 1531 l 1,0,-1
851 1020 m 1,21,-1
 941 1020 l 2,22,23
 1309 1020 1309 1020 1380 770 c 0,24,25
 1404 689 1404 689 1404 583 c 2,26,-1
 1404 0 l 1,27,-1
 851 0 l 1,28,-1
 851 1020 l 1,21,-1
EndSplineSet
EndChar

StartChar: Hbar
Encoding: 294 294 251
Width: 1874
GlyphClass: 2
Flags: W
LayerCount: 2
Fore
SplineSet
303 850 m 1,0,-1
 145 850 l 1,1,-1
 145 1020 l 1,2,-1
 303 1020 l 1,3,-1
 303 1361 l 1,4,-1
 841 1361 l 1,5,-1
 841 1020 l 1,6,-1
 1036 1020 l 1,7,-1
 1036 1361 l 1,8,-1
 1574 1361 l 1,9,-1
 1574 1020 l 1,10,-1
 1725 1020 l 1,11,-1
 1725 850 l 1,12,-1
 1574 850 l 1,13,-1
 1574 2 l 1,14,-1
 1036 2 l 1,15,-1
 1036 529 l 1,16,-1
 841 529 l 1,17,-1
 841 2 l 1,18,-1
 303 2 l 1,19,-1
 303 850 l 1,0,-1
1036 680 m 1,20,-1
 1036 850 l 1,21,-1
 841 850 l 1,22,-1
 841 680 l 1,23,-1
 1036 680 l 1,20,-1
EndSplineSet
EndChar

StartChar: hbar
Encoding: 295 295 252
Width: 1534
GlyphClass: 2
Flags: W
LayerCount: 2
Fore
SplineSet
129 1191 m 1,0,-1
 -25 1191 l 1,1,-1
 -25 1361 l 1,2,-1
 129 1361 l 1,3,-1
 129 1531 l 1,4,-1
 667 1531 l 1,5,-1
 667 1361 l 1,6,-1
 955 1361 l 1,7,-1
 955 1191 l 1,8,-1
 667 1191 l 1,9,-1
 667 0 l 1,10,-1
 129 0 l 1,11,-1
 129 1191 l 1,0,-1
851 1020 m 1,12,-1
 941 1020 l 2,13,14
 1309 1020 1309 1020 1380 770 c 0,15,16
 1404 689 1404 689 1404 583 c 2,17,-1
 1404 0 l 1,18,-1
 851 0 l 1,19,-1
 851 1020 l 1,12,-1
EndSplineSet
EndChar

StartChar: Iogonek
Encoding: 302 302 259
Width: 856
GlyphClass: 2
Flags: W
LayerCount: 2
Fore
SplineSet
137 -263 m 0,0,1
 137 -93 137 -93 252 0 c 1,2,-1
 159 0 l 1,3,-1
 159 1361 l 1,4,-1
 697 1361 l 1,5,-1
 697 0 l 1,6,-1
 442 0 l 1,7,-1
 442 -28 l 2,8,9
 442 -140 442 -140 464 -174 c 128,-1,10
 486 -208 486 -208 510.5 -219 c 128,-1,11
 535 -230 535 -230 571 -230 c 2,12,-1
 697 -230 l 1,13,-1
 697 -560 l 1,14,-1
 481 -560 l 2,15,16
 340 -560 340 -560 243 -483 c 0,17,18
 137 -399 137 -399 137 -263 c 0,0,1
EndSplineSet
EndChar

StartChar: iogonek
Encoding: 303 303 260
Width: 856
GlyphClass: 2
Flags: W
LayerCount: 2
Fore
SplineSet
441 1294 m 0,0,1
 110 1294 110 1294 110 1501 c 0,2,3
 110 1607 110 1607 189 1653.5 c 128,-1,4
 268 1700 268 1700 430 1700 c 128,-1,5
 592 1700 592 1700 669 1653.5 c 128,-1,6
 746 1607 746 1607 746 1500.5 c 128,-1,7
 746 1394 746 1394 674.5 1344 c 128,-1,8
 603 1294 603 1294 441 1294 c 0,0,1
144 -263 m 0,9,10
 144 -93 144 -93 259 0 c 1,11,-1
 166 0 l 1,12,-1
 166 1019 l 1,13,-1
 704 1019 l 1,14,-1
 704 0 l 1,15,-1
 449 0 l 1,16,-1
 449 -28 l 2,17,18
 449 -140 449 -140 471 -174 c 128,-1,19
 493 -208 493 -208 517.5 -219 c 128,-1,20
 542 -230 542 -230 578 -230 c 2,21,-1
 704 -230 l 1,22,-1
 704 -560 l 1,23,-1
 488 -560 l 2,24,25
 347 -560 347 -560 250 -483 c 0,26,27
 144 -399 144 -399 144 -263 c 0,9,10
EndSplineSet
EndChar

StartChar: dotlessi
Encoding: 305 305 262
Width: 856
GlyphClass: 2
Flags: W
LayerCount: 2
Fore
SplineSet
159 1019 m 1,0,-1
 697 1019 l 1,1,-1
 697 0 l 1,2,-1
 159 0 l 1,3,-1
 159 1019 l 1,0,-1
EndSplineSet
EndChar

StartChar: kgreenlandic
Encoding: 312 312 269
Width: 1534
GlyphClass: 2
Flags: W
LayerCount: 2
Fore
SplineSet
822 833 m 0,0,1
 822 933 822 933 914 986 c 0,2,3
 996 1033 996 1033 1125 1033 c 0,4,5
 1326 1033 1326 1033 1398 924 c 0,6,7
 1423 886 1423 886 1423 833 c 0,8,9
 1423 732 1423 732 1337 678 c 0,10,11
 1259 628 1259 628 1132 628 c 0,12,13
 929 628 929 628 849 742 c 0,14,15
 822 780 822 780 822 833 c 0,0,1
139 1020 m 1,16,-1
 676 1020 l 1,17,-1
 676 0 l 1,18,-1
 139 0 l 1,19,-1
 139 1020 l 1,16,-1
860 509 m 1,20,-1
 950 509 l 2,21,22
 1318 509 1318 509 1390 260 c 0,23,24
 1413 178 1413 178 1413 72 c 2,25,-1
 1413 0 l 1,26,-1
 860 0 l 1,27,-1
 860 509 l 1,20,-1
EndSplineSet
EndChar

StartChar: Lacute
Encoding: 313 313 270
Width: 1534
GlyphClass: 2
Flags: W
LayerCount: 2
Fore
SplineSet
498.5 1483.5 m 128,-1,1
 420 1446 420 1446 360 1446 c 0,2,3
 251 1446 251 1446 199 1498 c 2,4,-1
 154 1543 l 1,5,-1
 683 2000 l 1,6,-1
 869 1813 l 1,7,-1
 649 1593 l 2,8,0
 577 1521 577 1521 498.5 1483.5 c 128,-1,1
134 1361 m 1,9,-1
 672 1361 l 1,10,-1
 672 2 l 1,11,-1
 134 2 l 1,12,-1
 134 1361 l 1,9,-1
844 97 m 2,13,14
 844 304 844 304 1084 378 c 0,15,16
 1176 406 1176 406 1321 406 c 2,17,-1
 1400 406 l 1,18,-1
 1400 0 l 1,19,-1
 844 0 l 1,20,-1
 844 97 l 2,13,14
EndSplineSet
EndChar

StartChar: lacute
Encoding: 314 314 271
Width: 848
GlyphClass: 2
Flags: W
LayerCount: 2
Fore
SplineSet
412.5 1483.5 m 128,-1,1
 334 1446 334 1446 274 1446 c 0,2,3
 165 1446 165 1446 113 1498 c 2,4,-1
 68 1543 l 1,5,-1
 597 2000 l 1,6,-1
 783 1813 l 1,7,-1
 563 1593 l 2,8,0
 491 1521 491 1521 412.5 1483.5 c 128,-1,1
155 1359 m 1,9,-1
 693 1359 l 1,10,-1
 693 0 l 1,11,-1
 155 0 l 1,12,-1
 155 1359 l 1,9,-1
EndSplineSet
EndChar

StartChar: Lcaron
Encoding: 317 317 274
Width: 1534
GlyphClass: 2
Flags: W
LayerCount: 2
Fore
SplineSet
993 1586 m 1,0,-1
 1385 1586 l 1,1,-1
 1385 1329 l 2,2,3
 1385 1216 1385 1216 1374.5 1141 c 128,-1,4
 1364 1066 1364 1066 1329.5 1020.5 c 128,-1,5
 1295 975 1295 975 1230 956 c 128,-1,6
 1165 937 1165 937 1056 937 c 2,7,-1
 993 937 l 1,8,-1
 993 1586 l 1,0,-1
303 1361 m 1,9,-1
 841 1361 l 1,10,-1
 841 2 l 1,11,-1
 303 2 l 1,12,-1
 303 1361 l 1,9,-1
1013 97 m 2,13,14
 1013 304 1013 304 1252 378 c 0,15,16
 1345 406 1345 406 1490 406 c 2,17,-1
 1569 406 l 1,18,-1
 1569 0 l 1,19,-1
 1013 0 l 1,20,-1
 1013 97 l 2,13,14
EndSplineSet
EndChar

StartChar: lcaron
Encoding: 318 318 275
Width: 1192
GlyphClass: 2
Flags: W
LayerCount: 2
Fore
SplineSet
842 1586 m 1,0,-1
 1234 1586 l 1,1,-1
 1234 1329 l 2,2,3
 1234 1216 1234 1216 1223.5 1141 c 128,-1,4
 1213 1066 1213 1066 1178.5 1020.5 c 128,-1,5
 1144 975 1144 975 1079 956 c 128,-1,6
 1014 937 1014 937 905 937 c 2,7,-1
 842 937 l 1,8,-1
 842 1586 l 1,0,-1
155 1531 m 1,9,-1
 693 1531 l 1,10,-1
 693 0 l 1,11,-1
 155 0 l 1,12,-1
 155 1531 l 1,9,-1
EndSplineSet
EndChar

StartChar: Ldot
Encoding: 319 319 276
Width: 1534
GlyphClass: 2
Flags: W
LayerCount: 2
Fore
SplineSet
1085 646 m 0,0,1
 754 646 754 646 754 853 c 0,2,3
 754 959 754 959 833 1005.5 c 128,-1,4
 912 1052 912 1052 1074 1052 c 128,-1,5
 1236 1052 1236 1052 1313 1005.5 c 128,-1,6
 1390 959 1390 959 1390 852.5 c 128,-1,7
 1390 746 1390 746 1318.5 696 c 128,-1,8
 1247 646 1247 646 1085 646 c 0,0,1
134 1361 m 1,9,-1
 672 1361 l 1,10,-1
 672 2 l 1,11,-1
 134 2 l 1,12,-1
 134 1361 l 1,9,-1
844 97 m 2,13,14
 844 304 844 304 1084 378 c 0,15,16
 1176 406 1176 406 1321 406 c 2,17,-1
 1400 406 l 1,18,-1
 1400 0 l 1,19,-1
 844 0 l 1,20,-1
 844 97 l 2,13,14
EndSplineSet
EndChar

StartChar: ldot
Encoding: 320 320 277
Width: 1528
GlyphClass: 2
Flags: W
LayerCount: 2
Fore
SplineSet
240 1531 m 1,0,-1
 778 1531 l 1,1,-1
 778 0 l 1,2,-1
 240 0 l 1,3,-1
 240 1531 l 1,0,-1
1247 444 m 0,4,5
 916 444 916 444 916 651 c 0,6,7
 916 757 916 757 995 803.5 c 128,-1,8
 1074 850 1074 850 1236 850 c 128,-1,9
 1398 850 1398 850 1475 803.5 c 128,-1,10
 1552 757 1552 757 1552 650.5 c 128,-1,11
 1552 544 1552 544 1480.5 494 c 128,-1,12
 1409 444 1409 444 1247 444 c 0,4,5
EndSplineSet
EndChar

StartChar: Lslash
Encoding: 321 321 278
Width: 1534
GlyphClass: 2
Flags: W
LayerCount: 2
Fore
SplineSet
134 468 m 1,0,-1
 -25 407 l 1,1,-1
 -25 612 l 1,2,-1
 150 679 l 1,3,-1
 134 679 l 1,4,-1
 134 1361 l 1,5,-1
 672 1361 l 1,6,-1
 672 882 l 1,7,8
 672 882 672 882 1135 1061 c 1,9,-1
 1135 856 l 1,10,-1
 656 670 l 1,11,-1
 672 670 l 1,12,-1
 672 2 l 1,13,-1
 134 2 l 1,14,-1
 134 468 l 1,0,-1
844 97 m 2,15,16
 844 304 844 304 1084 378 c 0,17,18
 1176 406 1176 406 1321 406 c 2,19,-1
 1400 406 l 1,20,-1
 1400 0 l 1,21,-1
 844 0 l 1,22,-1
 844 97 l 2,15,16
EndSplineSet
EndChar

StartChar: lslash
Encoding: 322 322 279
Width: 1018
GlyphClass: 2
Flags: W
LayerCount: 2
Fore
SplineSet
240 439 m 1,0,-1
 132 360 l 1,1,-1
 -17 509 l 1,2,-1
 250 704 l 1,3,-1
 240 704 l 1,4,-1
 240 1531 l 1,5,-1
 778 1531 l 1,6,-1
 778 1092 l 1,7,8
 778 1092 778 1092 885 1170 c 1,9,-1
 1035 1021 l 1,10,-1
 768 826 l 1,11,-1
 778 826 l 1,12,-1
 778 0 l 1,13,-1
 240 0 l 1,14,-1
 240 439 l 1,0,-1
EndSplineSet
EndChar

StartChar: Eng
Encoding: 330 330 286
Width: 1534
GlyphClass: 2
Flags: W
LayerCount: 2
Fore
SplineSet
859 1361 m 1,0,-1
 949 1361 l 2,1,2
 1317 1361 1317 1361 1388 1112 c 0,3,4
 1412 1030 1412 1030 1412 924 c 2,5,-1
 1412 -101 l 2,6,7
 1412 -322 1412 -322 1311 -426 c 0,8,9
 1202 -538 1202 -538 951 -538 c 2,10,-1
 861 -538 l 1,11,-1
 859 0 l 1,12,-1
 859 1361 l 1,0,-1
133 1361 m 1,13,-1
 671 1361 l 1,14,-1
 671 0 l 1,15,-1
 133 0 l 1,16,-1
 133 1361 l 1,13,-1
EndSplineSet
EndChar

StartChar: eng
Encoding: 331 331 287
Width: 1534
GlyphClass: 2
Flags: W
LayerCount: 2
Fore
SplineSet
861 1020 m 1,0,-1
 951 1020 l 2,1,2
 1319 1020 1319 1020 1390 770 c 0,3,4
 1414 689 1414 689 1414 583 c 2,5,-1
 1414 -5 l 2,6,7
 1414 -368 1414 -368 1158 -472 c 0,8,9
 1068 -508 1068 -508 938 -508 c 2,10,-1
 861 -508 l 1,11,-1
 861 1020 l 1,0,-1
140 1020 m 1,12,-1
 696 1020 l 1,13,-1
 696 0 l 1,14,-1
 140 0 l 1,15,-1
 140 1020 l 1,12,-1
EndSplineSet
EndChar

StartChar: OE
Encoding: 338 338 294
Width: 2218
GlyphClass: 2
Flags: W
LayerCount: 2
Fore
SplineSet
1561 1361 m 1,0,-1
 2116 1361 l 1,1,-1
 2116 983 l 1,2,-1
 2012 983 l 2,3,4
 1741 983 1741 983 1642 1068 c 0,5,6
 1561 1138 1561 1138 1561 1294 c 2,7,-1
 1561 1361 l 1,0,-1
850 1361 m 1,8,-1
 1388 1361 l 1,9,-1
 1388 813 l 1,10,-1
 1789 813 l 1,11,-1
 1789 552 l 1,12,-1
 1388 552 l 1,13,-1
 1388 2 l 1,14,-1
 850 2 l 1,15,-1
 850 1361 l 1,8,-1
608 0 m 2,16,17
 239 0 239 0 118 374 c 1,18,19
 70 526 70 526 70 717 c 0,20,21
 70 1106 70 1106 286 1266 c 0,22,23
 413 1361 413 1361 608 1361 c 2,24,-1
 686 1361 l 1,25,-1
 686 0 l 1,26,-1
 608 0 l 2,16,17
1560 97 m 2,27,28
 1560 304 1560 304 1800 378 c 0,29,30
 1892 406 1892 406 2037 406 c 2,31,-1
 2116 406 l 1,32,-1
 2116 0 l 1,33,-1
 1560 0 l 1,34,-1
 1560 97 l 2,27,28
EndSplineSet
EndChar

StartChar: oe
Encoding: 339 339 295
Width: 2215
GlyphClass: 2
Flags: W
LayerCount: 2
Fore
SplineSet
1573 1020 m 1,0,-1
 1639 1020 l 2,1,2
 2017 1020 2017 1020 2100 764 c 0,3,4
 2127 679 2127 679 2127 567 c 2,5,-1
 2127 457 l 1,6,-1
 1573 457 l 1,7,-1
 1573 1020 l 1,0,-1
848 1020 m 1,8,-1
 925 1020 l 2,9,10
 982 1020 982 1020 1025 1003 c 128,-1,11
 1068 986 1068 986 1106 968 c 2,12,-1
 1137 953 l 1,13,14
 1142 955 1142 955 1149.5 959.5 c 128,-1,15
 1157 964 1157 964 1180 975 c 0,16,17
 1272 1020 1272 1020 1348 1020 c 2,18,-1
 1425 1020 l 1,19,-1
 1425 0 l 1,20,-1
 1373 0 l 2,21,22
 1308 0 1308 0 1255.5 19.5 c 128,-1,23
 1203 39 1203 39 1177.5 50.5 c 128,-1,24
 1152 62 1152 62 1147 65 c 128,-1,25
 1142 68 1142 68 1137 70 c 1,26,-1
 1112 59 l 2,27,28
 1068 39 1068 39 1016 19.5 c 128,-1,29
 964 0 964 0 900 0 c 2,30,-1
 848 0 l 1,31,-1
 848 1020 l 1,8,-1
112 498 m 0,32,33
 112 608 112 608 141 702.5 c 128,-1,34
 170 797 170 797 231 868 c 0,35,36
 363 1020 363 1020 609 1020 c 2,37,-1
 686 1020 l 1,38,-1
 686 0 l 1,39,-1
 634 0 l 2,40,41
 382 0 382 0 244 138 c 0,42,43
 112 270 112 270 112 498 c 0,32,33
1573 261 m 1,44,-1
 2073 261 l 1,45,-1
 2073 233 l 2,46,47
 2073 140 2073 140 2006 76 c 1,48,49
 1924 0 1924 0 1773 0 c 2,50,-1
 1573 0 l 1,51,-1
 1573 261 l 1,44,-1
EndSplineSet
EndChar

StartChar: tcaron
Encoding: 357 357 313
Width: 1878
GlyphClass: 2
Flags: W
LayerCount: 2
Fore
SplineSet
1365 1586 m 1,0,-1
 1757 1586 l 1,1,-1
 1757 1329 l 2,2,3
 1757 1216 1757 1216 1746.5 1141 c 128,-1,4
 1736 1066 1736 1066 1701.5 1020.5 c 128,-1,5
 1667 975 1667 975 1602 956 c 128,-1,6
 1537 937 1537 937 1428 937 c 2,7,-1
 1365 937 l 1,8,-1
 1365 1586 l 1,0,-1
625 0 m 2,9,10
 130 0 130 0 130 452 c 2,11,-1
 130 1014 l 1,12,-1
 553 1291 l 1,13,-1
 703 1291 l 1,14,-1
 703 0 l 1,15,-1
 625 0 l 2,9,10
848 1020 m 1,16,-1
 1215 1020 l 1,17,-1
 1215 685 l 1,18,-1
 848 685 l 1,19,-1
 848 1020 l 1,16,-1
849 427 m 1,20,-1
 1404 427 l 1,21,-1
 1404 339 l 2,22,23
 1404 169 1404 169 1300 88 c 0,24,25
 1187 0 1187 0 935 0 c 2,26,-1
 849 0 l 1,27,-1
 849 427 l 1,20,-1
EndSplineSet
EndChar

StartChar: Tbar
Encoding: 358 358 314
Width: 1874
GlyphClass: 2
Flags: W
LayerCount: 2
Fore
SplineSet
1316 1361 m 1,0,-1
 1764 1361 l 1,1,-1
 1764 796 l 1,2,-1
 1652 796 l 2,3,4
 1542 796 1542 796 1490 819.5 c 128,-1,5
 1438 843 1438 843 1408.5 872.5 c 128,-1,6
 1379 902 1379 902 1358 950 c 0,7,8
 1316 1048 1316 1048 1316 1222 c 2,9,-1
 1316 1361 l 1,0,-1
313 678 m 1,10,-1
 669 678 l 1,11,-1
 669 1361 l 1,12,-1
 1207 1361 l 1,13,-1
 1207 678 l 1,14,-1
 1553 678 l 1,15,-1
 1553 508 l 1,16,-1
 1207 508 l 1,17,-1
 1207 0 l 1,18,-1
 669 0 l 1,19,-1
 669 508 l 1,20,-1
 313 508 l 1,21,-1
 313 678 l 1,10,-1
109 1361 m 1,22,-1
 557 1361 l 1,23,-1
 557 1222 l 2,24,25
 557 965 557 965 464 872 c 0,26,27
 388 796 388 796 221 796 c 2,28,-1
 109 796 l 1,29,-1
 109 1361 l 1,22,-1
EndSplineSet
EndChar

StartChar: tbar
Encoding: 359 359 315
Width: 1704
GlyphClass: 2
Flags: W
LayerCount: 2
Fore
SplineSet
805 0 m 2,0,1
 310 0 310 0 310 452 c 2,2,-1
 310 508 l 1,3,-1
 145 508 l 1,4,-1
 145 678 l 1,5,-1
 310 678 l 1,6,-1
 310 850 l 1,7,-1
 145 850 l 1,8,-1
 145 1020 l 1,9,-1
 321 1021 l 1,10,-1
 733 1291 l 1,11,-1
 883 1291 l 1,12,-1
 883 0 l 1,13,-1
 805 0 l 2,0,1
1028 1020 m 1,14,-1
 1507 1020 l 1,15,-1
 1507 850 l 1,16,-1
 1028 850 l 1,17,-1
 1028 1020 l 1,14,-1
1028 678 m 1,18,-1
 1507 678 l 1,19,-1
 1507 508 l 1,20,-1
 1028 508 l 1,21,-1
 1028 678 l 1,18,-1
1029 357 m 1,22,-1
 1584 357 l 1,23,-1
 1584 339 l 2,24,25
 1584 169 1584 169 1480 88 c 0,26,27
 1367 0 1367 0 1115 0 c 2,28,-1
 1029 0 l 1,29,-1
 1029 357 l 1,22,-1
EndSplineSet
EndChar

StartChar: Uogonek
Encoding: 370 370 326
Width: 1534
GlyphClass: 2
Flags: W
LayerCount: 2
Fore
SplineSet
844 -263 m 0,0,1
 844 -93 844 -93 959 0 c 1,2,-1
 848 0 l 1,3,-1
 848 1362 l 1,4,-1
 1404 1362 l 1,5,-1
 1404 0 l 1,6,-1
 1149 0 l 1,7,-1
 1149 -28 l 2,8,9
 1149 -140 1149 -140 1171 -174 c 128,-1,10
 1193 -208 1193 -208 1217.5 -219 c 128,-1,11
 1242 -230 1242 -230 1278 -230 c 2,12,-1
 1404 -230 l 1,13,-1
 1404 -560 l 1,14,-1
 1188 -560 l 2,15,16
 1047 -560 1047 -560 950 -483 c 0,17,18
 844 -399 844 -399 844 -263 c 0,0,1
130 1362 m 1,19,-1
 683 1362 l 1,20,-1
 683 0 l 1,21,-1
 593 0 l 2,22,23
 225 0 225 0 154 250 c 0,24,25
 130 331 130 331 130 437 c 2,26,-1
 130 1362 l 1,19,-1
EndSplineSet
EndChar

StartChar: uogonek
Encoding: 371 371 327
Width: 1534
GlyphClass: 2
Flags: W
LayerCount: 2
Fore
SplineSet
844 -263 m 0,0,1
 844 -93 844 -93 959 0 c 1,2,-1
 848 0 l 1,3,-1
 848 1020 l 1,4,-1
 1404 1020 l 1,5,-1
 1404 0 l 1,6,-1
 1149 0 l 1,7,-1
 1149 -28 l 2,8,9
 1149 -140 1149 -140 1171 -174 c 128,-1,10
 1193 -208 1193 -208 1217.5 -219 c 128,-1,11
 1242 -230 1242 -230 1278 -230 c 2,12,-1
 1404 -230 l 1,13,-1
 1404 -560 l 1,14,-1
 1188 -560 l 2,15,16
 1047 -560 1047 -560 950 -483 c 0,17,18
 844 -399 844 -399 844 -263 c 0,0,1
130 1020 m 1,19,-1
 683 1020 l 1,20,-1
 683 0 l 1,21,-1
 593 0 l 2,22,23
 225 0 225 0 154 250 c 0,24,25
 130 331 130 331 130 437 c 2,26,-1
 130 1020 l 1,19,-1
EndSplineSet
EndChar

StartChar: florin
Encoding: 402 402 339
Width: 1712
GlyphClass: 2
Flags: W
LayerCount: 2
Fore
SplineSet
1175 1256 m 0,0,1
 1175 1320 1175 1320 1186 1388 c 1,2,-1
 1216 1550 l 1,3,-1
 1633 1550 l 1,4,-1
 1546 1080 l 1,5,-1
 1460 1080 l 2,6,7
 1327 1080 1327 1080 1277 1104 c 0,8,9
 1175 1151 1175 1151 1175 1256 c 0,0,1
404 1061 m 1,10,11
 471 1409 471 1409 739 1512 c 0,12,13
 835 1549 835 1549 964 1549 c 2,14,-1
 1031 1549 l 1,15,-1
 684 -340 l 1,16,-1
 146 -340 l 1,17,-1
 404 1061 l 1,10,11
1083 825 m 1,18,-1
 1414 825 l 1,19,-1
 1356 510 l 1,20,-1
 1025 510 l 1,21,-1
 1083 825 l 1,18,-1
EndSplineSet
EndChar

StartChar: dotlessj
Encoding: 567 567 344
Width: 1196
GlyphClass: 2
Flags: W
LayerCount: 2
Fore
SplineSet
336 1020 m 1,0,-1
 874 1020 l 1,1,-1
 874 -5 l 2,2,3
 874 -247 874 -247 774 -369 c 0,4,5
 660 -508 660 -508 413 -508 c 2,6,-1
 336 -508 l 1,7,-1
 336 1020 l 1,0,-1
EndSplineSet
EndChar

StartChar: circumflex
Encoding: 710 710 345
Width: 1360
GlyphClass: 2
Flags: W
LayerCount: 2
Fore
SplineSet
351 1332 m 0,0,1
 251 1332 251 1332 197 1384 c 1,2,-1
 152 1429 l 1,3,-1
 680 1884 l 1,4,-1
 1207 1429 l 1,5,-1
 1162 1384 l 2,6,7
 1110 1332 1110 1332 1032 1332 c 0,8,9
 885 1332 885 1332 740 1479 c 2,10,-1
 680 1540 l 1,11,-1
 652 1509 l 2,12,13
 566 1415 566 1415 486 1373.5 c 128,-1,14
 406 1332 406 1332 351 1332 c 0,0,1
EndSplineSet
EndChar

StartChar: caron
Encoding: 711 711 346
Width: 1229
GlyphClass: 2
Flags: W
LayerCount: 2
Fore
SplineSet
153 1727 m 1,0,-1
 198 1772 l 2,1,2
 250 1824 250 1824 328 1824 c 0,3,4
 473 1824 473 1824 620 1677 c 1,5,-1
 680 1616 l 1,6,-1
 737 1677 l 1,7,8
 884 1824 884 1824 1022 1824 c 0,9,10
 1110 1824 1110 1824 1162 1772 c 2,11,-1
 1207 1727 l 1,12,-1
 680 1272 l 1,13,-1
 153 1727 l 1,0,-1
EndSplineSet
EndChar

StartChar: breve
Encoding: 728 728 347
Width: 1359
GlyphClass: 2
Flags: W
LayerCount: 2
Fore
SplineSet
896 1300 m 0,0,1
 798 1281 798 1281 683.5 1281 c 128,-1,2
 569 1281 569 1281 471.5 1300 c 128,-1,3
 374 1319 374 1319 302 1362 c 0,4,5
 147 1455 147 1455 147 1647 c 2,6,-1
 147 1699 l 1,7,-1
 442 1699 l 1,8,9
 442 1600 442 1600 514 1550 c 1,10,11
 575 1509 575 1509 683 1509 c 0,12,13
 841 1509 841 1509 883 1609 c 0,14,15
 898 1645 898 1645 898 1699 c 1,16,-1
 1217 1699 l 1,17,-1
 1217 1672 l 2,18,19
 1217 1362 1217 1362 896 1300 c 0,0,1
EndSplineSet
EndChar

StartChar: dotaccent
Encoding: 729 729 348
Width: 1021
GlyphClass: 2
Flags: W
LayerCount: 2
Fore
SplineSet
519 1294 m 0,0,1
 188 1294 188 1294 188 1501 c 0,2,3
 188 1607 188 1607 267 1653.5 c 128,-1,4
 346 1700 346 1700 508 1700 c 128,-1,5
 670 1700 670 1700 747 1653.5 c 128,-1,6
 824 1607 824 1607 824 1500.5 c 128,-1,7
 824 1394 824 1394 752.5 1344 c 128,-1,8
 681 1294 681 1294 519 1294 c 0,0,1
EndSplineSet
EndChar

StartChar: ring
Encoding: 730 730 349
Width: 1019
GlyphClass: 2
Flags: W
LayerCount: 2
Fore
SplineSet
510 1250 m 0,0,1
 349 1250 349 1250 245 1333 c 0,2,3
 139 1418 139 1418 139 1561 c 0,4,5
 139 1703 139 1703 256 1788 c 1,6,7
 367 1870 367 1870 533 1870 c 0,8,9
 698 1870 698 1870 802 1788 c 1,10,11
 911 1704 911 1704 911 1561 c 0,12,13
 911 1420 911 1420 790 1333 c 0,14,15
 675 1250 675 1250 510 1250 c 0,0,1
411.5 1464 m 128,-1,17
 447 1429 447 1429 515 1429 c 128,-1,18
 583 1429 583 1429 628 1464 c 128,-1,19
 673 1499 673 1499 673 1561 c 256,20,21
 673 1623 673 1623 635.5 1657.5 c 128,-1,22
 598 1692 598 1692 530.5 1692 c 128,-1,23
 463 1692 463 1692 419.5 1657.5 c 128,-1,24
 376 1623 376 1623 376 1561 c 256,25,16
 376 1499 376 1499 411.5 1464 c 128,-1,17
EndSplineSet
EndChar

StartChar: ogonek
Encoding: 731 731 350
Width: 1229
GlyphClass: 2
Flags: W
LayerCount: 2
Fore
SplineSet
145 -262 m 0,0,1
 145 -191 145 -191 167.5 -133 c 128,-1,2
 190 -75 190 -75 230 -34 c 0,3,4
 315 52 315 52 450 52 c 1,5,-1
 450 -28 l 2,6,7
 450 -140 450 -140 472 -174 c 128,-1,8
 494 -208 494 -208 518.5 -219 c 128,-1,9
 543 -230 543 -230 579 -230 c 2,10,-1
 705 -230 l 1,11,-1
 705 -560 l 1,12,-1
 489 -560 l 2,13,14
 348 -560 348 -560 251 -483 c 0,15,16
 145 -399 145 -399 145 -262 c 0,0,1
EndSplineSet
EndChar

StartChar: tilde
Encoding: 732 732 351
Width: 1359
GlyphClass: 2
Flags: W
LayerCount: 2
Fore
SplineSet
112 1209 m 2,0,1
 112 1344 112 1344 200 1434 c 0,2,3
 295 1530 295 1530 452 1530 c 2,4,-1
 553 1530 l 2,5,6
 659 1530 659 1530 744 1454 c 0,7,8
 817 1389 817 1389 857 1280 c 1,9,10
 920 1450 920 1450 1056 1510 c 1,11,12
 1104 1530 1104 1530 1161 1530 c 2,13,-1
 1247 1530 l 1,14,-1
 1247 1393 l 2,15,16
 1247 1258 1247 1258 1158 1168 c 0,17,18
 1064 1072 1064 1072 907 1072 c 2,19,-1
 807 1072 l 2,20,21
 651 1072 651 1072 550 1226 c 0,22,23
 521 1271 521 1271 502 1320 c 1,24,25
 436 1150 436 1150 302 1092 c 0,26,27
 255 1072 255 1072 198 1072 c 2,28,-1
 112 1072 l 1,29,-1
 112 1209 l 2,0,1
EndSplineSet
EndChar

StartChar: hungarumlaut
Encoding: 733 733 352
Width: 0
GlyphClass: 2
Flags: W
LayerCount: 2
Fore
SplineSet
653 1429 m 1,0,-1
 1182 1886 l 1,1,-1
 1368 1699 l 1,2,-1
 1148 1479 l 2,3,4
 1001 1332 1001 1332 845 1332 c 0,5,6
 750 1332 750 1332 698 1384 c 2,7,-1
 653 1429 l 1,0,-1
357.5 1369.5 m 128,-1,9
 279 1332 279 1332 220 1332 c 0,10,11
 110 1332 110 1332 58 1384 c 2,12,-1
 13 1429 l 1,13,-1
 542 1886 l 1,14,-1
 728 1699 l 1,15,-1
 508 1479 l 2,16,8
 436 1407 436 1407 357.5 1369.5 c 128,-1,9
EndSplineSet
EndChar

StartChar: Delta
Encoding: 916 916 353
AltUni2: 002206.ffffffff.0
Width: 1698
GlyphClass: 2
Flags: W
LayerCount: 2
Fore
SplineSet
99 0 m 1,0,-1
 856 1529 l 1,1,-1
 857 1530 l 1,2,-1
 1599 0 l 1,3,-1
 99 0 l 1,0,-1
1327 162 m 1,4,-1
 856 1120 l 1,5,-1
 386 162 l 1,6,-1
 1327 162 l 1,4,-1
EndSplineSet
EndChar

StartChar: Omega
Encoding: 937 937 354
AltUni2: 002126.ffffffff.0
Width: 2211
GlyphClass: 2
Flags: W
LayerCount: 2
Fore
SplineSet
1666 305 m 1,0,1
 1800 339 1800 339 1872 339 c 2,2,-1
 1987 339 l 1,3,-1
 1987 0 l 1,4,-1
 1187 0 l 1,5,-1
 1187 1361 l 1,6,-1
 1265 1361 l 2,7,8
 1565 1361 1565 1361 1733 1208 c 0,9,10
 1895 1060 1895 1060 1895 800 c 0,11,12
 1895 525 1895 525 1756 388 c 0,13,14
 1714 346 1714 346 1666 305 c 1,0,1
225 339 m 1,15,-1
 340 339 l 2,16,17
 422 339 422 339 542 306 c 1,18,19
 428 401 428 401 389 470 c 0,20,21
 315 601 315 601 315 800 c 0,22,23
 315 1061 315 1061 478 1208 c 1,24,25
 646 1361 646 1361 946 1361 c 2,26,-1
 1024 1361 l 1,27,-1
 1024 0 l 1,28,-1
 225 0 l 1,29,-1
 225 339 l 1,15,-1
EndSplineSet
EndChar

StartChar: pi
Encoding: 960 960 355
Width: 1874
GlyphClass: 2
Flags: W
LayerCount: 2
Fore
SplineSet
232 1190 m 1,0,-1
 1642 1190 l 1,1,-1
 1642 850 l 1,2,-1
 232 850 l 1,3,-1
 232 1190 l 1,0,-1
1081 680 m 1,4,-1
 1471 680 l 1,5,-1
 1471 0 l 1,6,-1
 1381 0 l 2,7,8
 1178 0 1178 0 1120 112 c 0,9,10
 1092 168 1092 168 1086.5 249.5 c 128,-1,11
 1081 331 1081 331 1081 437 c 2,12,-1
 1081 680 l 1,4,-1
402 680 m 1,13,-1
 791 680 l 1,14,-1
 791 0 l 1,15,-1
 402 0 l 1,16,-1
 402 680 l 1,13,-1
EndSplineSet
EndChar

StartChar: endash
Encoding: 8211 8211 378
Width: 1368
GlyphClass: 2
Flags: W
LayerCount: 2
Fore
SplineSet
173 650 m 1,0,-1
 1190 650 l 1,1,-1
 1190 479 l 1,2,-1
 173 479 l 1,3,-1
 173 650 l 1,0,-1
EndSplineSet
EndChar

StartChar: emdash
Encoding: 8212 8212 379
Width: 2046
GlyphClass: 2
Flags: W
LayerCount: 2
Fore
SplineSet
170 650 m 1,0,-1
 1870 650 l 1,1,-1
 1870 479 l 1,2,-1
 170 479 l 1,3,-1
 170 650 l 1,0,-1
EndSplineSet
EndChar

StartChar: quoteleft
Encoding: 8216 8216 380
Width: 1018
GlyphClass: 2
Flags: W
LayerCount: 2
Fore
SplineSet
529 1417 m 1,0,1
 832 1409 832 1409 832 1210 c 0,2,3
 832 1104 832 1104 753 1057.5 c 128,-1,4
 674 1011 674 1011 510 1011 c 0,5,6
 195 1011 195 1011 195 1210 c 2,7,-1
 195 1453 l 2,8,9
 195 1555 195 1555 300 1632 c 0,10,11
 401 1707 401 1707 529 1707 c 1,12,-1
 529 1417 l 1,0,1
EndSplineSet
EndChar

StartChar: quoteright
Encoding: 8217 8217 381
Width: 1018
GlyphClass: 2
Flags: W
LayerCount: 2
Fore
SplineSet
506 1700 m 0,0,1
 821 1700 821 1700 821 1501 c 2,2,-1
 821 1258 l 2,3,4
 821 1156 821 1156 716 1078 c 0,5,6
 615 1004 615 1004 487 1004 c 1,7,-1
 487 1294 l 1,8,9
 184 1302 184 1302 184 1501 c 0,10,11
 184 1607 184 1607 263 1653.5 c 128,-1,12
 342 1700 342 1700 506 1700 c 0,0,1
EndSplineSet
EndChar

StartChar: quotesinglbase
Encoding: 8218 8218 382
Width: 1018
GlyphClass: 2
Flags: W
LayerCount: 2
Fore
SplineSet
487 0 m 1,0,1
 184 8 184 8 184 207 c 0,2,3
 184 313 184 313 263 359.5 c 128,-1,4
 342 406 342 406 506 406 c 0,5,6
 821 406 821 406 821 207 c 2,7,-1
 821 -36 l 2,8,9
 821 -138 821 -138 716 -216 c 0,10,11
 615 -290 615 -290 487 -290 c 1,12,-1
 487 0 l 1,0,1
EndSplineSet
EndChar

StartChar: quotedblleft
Encoding: 8220 8220 383
Width: 1874
GlyphClass: 2
Flags: W
LayerCount: 2
Fore
SplineSet
1329 1011 m 0,0,1
 1014 1011 1014 1011 1014 1210 c 2,2,-1
 1014 1453 l 2,3,4
 1014 1555 1014 1555 1119 1632 c 0,5,6
 1220 1707 1220 1707 1348 1707 c 1,7,-1
 1348 1417 l 1,8,9
 1651 1409 1651 1409 1651 1210 c 0,10,11
 1651 1104 1651 1104 1572 1057.5 c 128,-1,12
 1493 1011 1493 1011 1329 1011 c 0,0,1
537 1417 m 1,13,14
 840 1409 840 1409 840 1210 c 0,15,16
 840 1104 840 1104 761 1057.5 c 128,-1,17
 682 1011 682 1011 518 1011 c 0,18,19
 203 1011 203 1011 203 1210 c 2,20,-1
 203 1453 l 2,21,22
 203 1555 203 1555 308 1632 c 0,23,24
 409 1707 409 1707 537 1707 c 1,25,-1
 537 1417 l 1,13,14
EndSplineSet
EndChar

StartChar: quotedblright
Encoding: 8221 8221 384
Width: 1874
GlyphClass: 2
Flags: W
LayerCount: 2
Fore
SplineSet
1330 1696 m 0,0,1
 1645 1696 1645 1696 1645 1497 c 2,2,-1
 1645 1254 l 2,3,4
 1645 1152 1645 1152 1540 1074 c 0,5,6
 1439 1000 1439 1000 1311 1000 c 1,7,-1
 1311 1290 l 1,8,9
 1008 1298 1008 1298 1008 1497 c 0,10,11
 1008 1603 1008 1603 1087 1649.5 c 128,-1,12
 1166 1696 1166 1696 1330 1696 c 0,0,1
546 1695 m 0,13,14
 861 1695 861 1695 861 1496 c 2,15,-1
 861 1253 l 2,16,17
 861 1151 861 1151 756 1074 c 0,18,19
 655 999 655 999 527 999 c 1,20,-1
 527 1289 l 1,21,22
 224 1297 224 1297 224 1496 c 0,23,24
 224 1602 224 1602 303 1648.5 c 128,-1,25
 382 1695 382 1695 546 1695 c 0,13,14
EndSplineSet
EndChar

StartChar: quotedblbase
Encoding: 8222 8222 385
Width: 1874
GlyphClass: 2
Flags: W
LayerCount: 2
Fore
SplineSet
1305 7 m 1,0,1
 1002 15 1002 15 1002 214 c 0,2,3
 1002 320 1002 320 1081 366.5 c 128,-1,4
 1160 413 1160 413 1324 413 c 0,5,6
 1639 413 1639 413 1639 214 c 2,7,-1
 1639 -29 l 2,8,9
 1639 -131 1639 -131 1534 -208 c 0,10,11
 1433 -283 1433 -283 1305 -283 c 1,12,-1
 1305 7 l 1,0,1
537 7 m 1,13,14
 234 15 234 15 234 214 c 0,15,16
 234 320 234 320 313 366.5 c 128,-1,17
 392 413 392 413 556 413 c 0,18,19
 871 413 871 413 871 214 c 2,20,-1
 871 -29 l 2,21,22
 871 -131 871 -131 766 -208 c 0,23,24
 665 -283 665 -283 537 -283 c 1,25,-1
 537 7 l 1,13,14
EndSplineSet
EndChar

StartChar: dagger
Encoding: 8224 8224 386
Width: 1366
GlyphClass: 2
Flags: W
LayerCount: 2
Fore
SplineSet
412 828 m 1,0,-1
 89 828 l 1,1,-1
 89 1019 l 1,2,-1
 412 1019 l 1,3,-1
 412 1700 l 1,4,-1
 950 1700 l 1,5,-1
 950 1019 l 1,6,-1
 1259 1019 l 1,7,-1
 1259 828 l 1,8,-1
 950 828 l 1,9,-1
 950 -37 l 2,10,11
 950 -279 950 -279 850 -401 c 0,12,13
 736 -540 736 -540 489 -540 c 2,14,-1
 412 -540 l 1,15,-1
 412 828 l 1,0,-1
EndSplineSet
EndChar

StartChar: daggerdbl
Encoding: 8225 8225 387
Width: 1366
GlyphClass: 2
Flags: W
LayerCount: 2
Fore
SplineSet
89 508 m 1,0,-1
 412 508 l 1,1,-1
 412 828 l 1,2,-1
 89 828 l 1,3,-1
 89 1019 l 1,4,-1
 412 1019 l 1,5,-1
 412 1700 l 1,6,-1
 950 1700 l 1,7,-1
 950 1019 l 1,8,-1
 1259 1019 l 1,9,-1
 1259 828 l 1,10,-1
 950 828 l 1,11,-1
 950 508 l 1,12,-1
 1259 508 l 1,13,-1
 1259 317 l 1,14,-1
 950 317 l 1,15,-1
 950 -37 l 2,16,17
 950 -279 950 -279 850 -401 c 0,18,19
 736 -540 736 -540 489 -540 c 2,20,-1
 412 -540 l 1,21,-1
 412 317 l 1,22,-1
 89 317 l 1,23,-1
 89 508 l 1,0,-1
EndSplineSet
EndChar

StartChar: bullet
Encoding: 8226 8226 388
Width: 1018
GlyphClass: 2
Flags: W
LayerCount: 2
Fore
SplineSet
494 347 m 0,0,1
 333 347 333 347 229 430 c 0,2,3
 123 515 123 515 123 657 c 0,4,5
 123 798 123 798 240 885 c 0,6,7
 349 966 349 966 517 966 c 0,8,9
 684 966 684 966 786 885 c 0,10,11
 895 799 895 799 895 657 c 0,12,13
 895 517 895 517 774 430 c 0,14,15
 659 347 659 347 494 347 c 0,0,1
EndSplineSet
EndChar

StartChar: ellipsis
Encoding: 8230 8230 389
Width: 2562
GlyphClass: 2
Flags: W
LayerCount: 2
Fore
SplineSet
2148 0 m 0,0,1
 1817 0 1817 0 1817 207 c 0,2,3
 1817 313 1817 313 1896 359.5 c 128,-1,4
 1975 406 1975 406 2137 406 c 128,-1,5
 2299 406 2299 406 2376 359.5 c 128,-1,6
 2453 313 2453 313 2453 206.5 c 128,-1,7
 2453 100 2453 100 2381.5 50 c 128,-1,8
 2310 0 2310 0 2148 0 c 0,0,1
1294 0 m 0,9,10
 963 0 963 0 963 207 c 0,11,12
 963 313 963 313 1042 359.5 c 128,-1,13
 1121 406 1121 406 1283 406 c 128,-1,14
 1445 406 1445 406 1522 359.5 c 128,-1,15
 1599 313 1599 313 1599 206.5 c 128,-1,16
 1599 100 1599 100 1527.5 50 c 128,-1,17
 1456 0 1456 0 1294 0 c 0,9,10
440 0 m 0,18,19
 109 0 109 0 109 207 c 0,20,21
 109 313 109 313 188 359.5 c 128,-1,22
 267 406 267 406 429 406 c 128,-1,23
 591 406 591 406 668 359.5 c 128,-1,24
 745 313 745 313 745 206.5 c 128,-1,25
 745 100 745 100 673.5 50 c 128,-1,26
 602 0 602 0 440 0 c 0,18,19
EndSplineSet
EndChar

StartChar: perthousand
Encoding: 8240 8240 390
Width: 3740
GlyphClass: 2
Flags: W
LayerCount: 2
Fore
SplineSet
1580 1709 m 1,0,-1
 1818 1644 l 1,1,-1
 1161 -340 l 1,2,-1
 923 -274 l 1,3,-1
 1580 1709 l 1,0,-1
748 1330 m 1,4,-1
 787 1330 l 2,5,6
 983 1330 983 1330 1035 1193 c 0,7,8
 1052 1150 1052 1150 1052 1096 c 2,9,-1
 1052 732 l 1,10,11
 1053 623 1053 623 986 560 c 128,-1,12
 919 497 919 497 787 497 c 2,13,-1
 748 497 l 1,14,-1
 748 1330 l 1,4,-1
532 497 m 2,15,16
 399 497 399 497 332 560 c 128,-1,17
 265 623 265 623 266 732 c 1,18,-1
 266 1096 l 2,19,20
 266 1264 266 1264 416 1314 c 0,21,22
 466 1330 466 1330 532 1330 c 2,23,-1
 571 1330 l 1,24,-1
 571 497 l 1,25,-1
 532 497 l 2,15,16
3202 827 m 1,26,-1
 3243 827 l 2,27,28
 3438 827 3438 827 3491 690 c 0,29,30
 3507 647 3507 647 3507 593 c 2,31,-1
 3507 222 l 2,32,33
 3507 54 3507 54 3357 4 c 0,34,35
 3308 -12 3308 -12 3243 -12 c 2,36,-1
 3202 -12 l 1,37,-1
 3202 827 l 1,26,-1
2721 593 m 1,38,39
 2720 701 2720 701 2787.5 764 c 128,-1,40
 2855 827 2855 827 2986 827 c 2,41,-1
 3025 827 l 1,42,-1
 3025 -12 l 1,43,-1
 2986 -12 l 2,44,45
 2855 -12 2855 -12 2787.5 51 c 128,-1,46
 2720 114 2720 114 2721 222 c 1,47,-1
 2721 593 l 1,38,39
2170 827 m 1,48,-1
 2211 827 l 2,49,50
 2406 827 2406 827 2459 690 c 0,51,52
 2475 647 2475 647 2475 593 c 2,53,-1
 2475 222 l 2,54,55
 2475 54 2475 54 2325 4 c 0,56,57
 2276 -12 2276 -12 2211 -12 c 2,58,-1
 2170 -12 l 1,59,-1
 2170 827 l 1,48,-1
1689 593 m 1,60,61
 1688 701 1688 701 1755.5 764 c 128,-1,62
 1823 827 1823 827 1954 827 c 2,63,-1
 1993 827 l 1,64,-1
 1993 -12 l 1,65,-1
 1954 -12 l 2,66,67
 1823 -12 1823 -12 1755.5 51 c 128,-1,68
 1688 114 1688 114 1689 222 c 1,69,-1
 1689 593 l 1,60,61
EndSplineSet
EndChar

StartChar: guilsinglleft
Encoding: 8249 8249 391
Width: 1368
GlyphClass: 2
Flags: W
LayerCount: 2
Fore
SplineSet
1023 1128 m 1,0,-1
 1023 878 l 1,1,-1
 546 510 l 1,2,-1
 1023 138 l 1,3,-1
 1023 -108 l 1,4,-1
 249 510 l 1,5,-1
 1023 1128 l 1,0,-1
EndSplineSet
EndChar

StartChar: guilsinglright
Encoding: 8250 8250 392
Width: 1368
GlyphClass: 2
Flags: W
LayerCount: 2
Fore
SplineSet
345 138 m 1,0,-1
 822 510 l 1,1,-1
 345 878 l 1,2,-1
 345 1128 l 1,3,-1
 1119 510 l 1,4,-1
 345 -108 l 1,5,-1
 345 138 l 1,0,-1
EndSplineSet
EndChar

StartChar: fraction
Encoding: 8260 8260 393
Width: 1364
GlyphClass: 2
Flags: W
LayerCount: 2
Fore
SplineSet
891 1709 m 1,0,-1
 1129 1644 l 1,1,-1
 472 -340 l 1,2,-1
 234 -274 l 1,3,-1
 891 1709 l 1,0,-1
EndSplineSet
EndChar

StartChar: Euro
Encoding: 8364 8364 394
Width: 1874
GlyphClass: 2
Flags: W
LayerCount: 2
Fore
SplineSet
1120 1371 m 1,0,-1
 1726 1371 l 1,1,-1
 1726 1020 l 1,2,-1
 1661 1020 l 2,3,4
 1367 1020 1367 1020 1246 1064 c 0,5,6
 1120 1110 1120 1110 1120 1226 c 2,7,-1
 1120 1371 l 1,0,-1
318 495 m 1,8,9
 304 572 304 572 299 685 c 1,10,-1
 177 685 l 1,11,-1
 177 841 l 1,12,-1
 307 841 l 1,13,14
 340 1067 340 1067 488 1214 c 0,15,16
 647 1371 647 1371 878 1371 c 2,17,-1
 951 1371 l 1,18,-1
 951 841 l 1,19,-1
 1518 841 l 1,20,-1
 1518 685 l 1,21,-1
 951 685 l 1,22,-1
 951 495 l 1,23,-1
 1500 495 l 1,24,-1
 1500 341 l 1,25,-1
 951 341 l 1,26,-1
 951 0 l 1,27,-1
 878 0 l 2,28,29
 587 0 587 0 438 202 c 1,30,31
 391 264 391 264 361 341 c 1,32,-1
 148 341 l 1,33,-1
 148 495 l 1,34,-1
 318 495 l 1,8,9
1120 201 m 1,35,-1
 1698 201 l 1,36,-1
 1698 173 l 2,37,38
 1698 93 1698 93 1592 46 c 0,39,40
 1487 0 1487 0 1308 0 c 2,41,-1
 1120 0 l 1,42,-1
 1120 201 l 1,35,-1
EndSplineSet
EndChar

StartChar: trademark
Encoding: 8482 8482 395
Width: 4424
GlyphClass: 2
Flags: W
LayerCount: 2
Fore
SplineSet
3640 1362 m 1,0,-1
 3705 1362 l 2,1,2
 3944 1362 3944 1362 4047 1250 c 0,3,4
 4143 1145 4143 1145 4143 925 c 2,5,-1
 4143 340 l 1,6,-1
 3640 340 l 1,7,-1
 3640 1362 l 1,0,-1
2898 1362 m 1,8,-1
 3404 1362 l 1,9,-1
 3404 340 l 1,10,-1
 2898 340 l 1,11,-1
 2898 1362 l 1,8,-1
2154 1362 m 1,12,-1
 2660 1362 l 1,13,-1
 2660 340 l 1,14,-1
 2154 340 l 1,15,-1
 2154 1362 l 1,12,-1
1340 1361 m 1,16,-1
 1738 1361 l 1,17,-1
 1738 796 l 1,18,-1
 1651 796 l 2,19,20
 1495 796 1495 796 1426 872 c 0,21,22
 1340 968 1340 968 1340 1222 c 2,23,-1
 1340 1361 l 1,16,-1
693 1361 m 1,24,-1
 1181 1361 l 1,25,-1
 1181 340 l 1,26,-1
 693 340 l 1,27,-1
 693 1361 l 1,24,-1
133 1361 m 1,28,-1
 531 1361 l 1,29,-1
 531 1222 l 2,30,31
 531 862 531 862 347 812 c 0,32,33
 290 796 290 796 220 796 c 2,34,-1
 133 796 l 1,35,-1
 133 1361 l 1,28,-1
EndSplineSet
EndChar

StartChar: partialdiff
Encoding: 8706 8706 396
Width: 1874
GlyphClass: 2
Flags: W
LayerCount: 2
Fore
SplineSet
1018 1771 m 1,0,-1
 1096 1771 l 2,1,2
 1286 1771 1286 1771 1418 1622 c 0,3,4
 1581 1439 1581 1439 1622 1094 c 0,5,6
 1634 999 1634 999 1634 914 c 128,-1,7
 1634 829 1634 829 1622.5 726.5 c 128,-1,8
 1611 624 1611 624 1585.5 522 c 128,-1,9
 1560 420 1560 420 1519 326 c 128,-1,10
 1478 232 1478 232 1418 160 c 0,11,12
 1286 0 1286 0 1096 0 c 2,13,-1
 1018 0 l 1,14,-1
 1018 1771 l 1,0,-1
305 498 m 0,15,16
 305 608 305 608 334 702.5 c 128,-1,17
 363 797 363 797 424 868 c 0,18,19
 556 1020 556 1020 802 1020 c 2,20,-1
 879 1020 l 1,21,-1
 879 0 l 1,22,-1
 827 0 l 2,23,24
 575 0 575 0 437 138 c 0,25,26
 305 270 305 270 305 498 c 0,15,16
EndSplineSet
EndChar

StartChar: product
Encoding: 8719 8719 397
Width: 1874
GlyphClass: 2
Flags: W
LayerCount: 2
Fore
SplineSet
232 1530 m 1,0,-1
 1642 1530 l 1,1,-1
 1642 1196 l 1,2,-1
 232 1196 l 1,3,-1
 232 1530 l 1,0,-1
1082 1020 m 1,4,-1
 1472 1020 l 1,5,-1
 1472 0 l 1,6,-1
 1082 0 l 1,7,-1
 1082 1020 l 1,4,-1
402 1020 m 1,8,-1
 792 1020 l 1,9,-1
 792 0 l 1,10,-1
 402 0 l 1,11,-1
 402 1020 l 1,8,-1
EndSplineSet
EndChar

StartChar: summation
Encoding: 8721 8721 398
Width: 1872
GlyphClass: 2
Flags: W
LayerCount: 2
Fore
SplineSet
1014 1361 m 1,0,-1
 1569 1361 l 1,1,-1
 1569 983 l 1,2,-1
 1465 983 l 2,3,4
 1194 983 1194 983 1095 1068 c 0,5,6
 1014 1138 1014 1138 1014 1294 c 2,7,-1
 1014 1361 l 1,0,-1
610 680 m 1,8,-1
 305 1361 l 1,9,-1
 839 1361 l 1,10,-1
 1144 680 l 1,11,-1
 839 2 l 1,12,-1
 305 2 l 1,13,-1
 610 680 l 1,8,-1
1013 97 m 2,14,15
 1013 304 1013 304 1252 378 c 0,16,17
 1345 406 1345 406 1490 406 c 2,18,-1
 1569 406 l 1,19,-1
 1569 0 l 1,20,-1
 1013 0 l 1,21,-1
 1013 97 l 2,14,15
EndSplineSet
EndChar

StartChar: minus
Encoding: 8722 8722 399
Width: 1538
GlyphClass: 2
Flags: W
LayerCount: 2
Fore
SplineSet
293 660 m 1,0,-1
 1245 660 l 1,1,-1
 1245 469 l 1,2,-1
 293 469 l 1,3,-1
 293 660 l 1,0,-1
EndSplineSet
EndChar

StartChar: radical
Encoding: 8730 8730 400
Width: 1529
GlyphClass: 2
Flags: W
LayerCount: 2
Fore
SplineSet
1126 1360 m 1,0,-1
 1360 1360 l 1,1,-1
 681 -337 l 1,2,-1
 681 -340 l 1,3,-1
 680 -339 l 1,4,-1
 680 -337 l 1,5,-1
 170 680 l 1,6,-1
 392 680 l 1,7,-1
 665 123 l 1,8,-1
 1126 1360 l 1,0,-1
EndSplineSet
EndChar

StartChar: infinity
Encoding: 8734 8734 401
Width: 1707
GlyphClass: 2
Flags: W
LayerCount: 2
Fore
SplineSet
636 360 m 0,0,1
 587 344 587 344 511 344 c 128,-1,2
 435 344 435 344 366.5 374.5 c 128,-1,3
 298 405 298 405 252 462 c 0,4,5
 161 575 161 575 161 772 c 0,6,7
 161 943 161 943 247 1058 c 0,8,9
 344 1187 344 1187 524 1187 c 0,10,11
 686 1187 686 1187 786 1030 c 0,12,13
 818 981 818 981 849 923 c 1,14,15
 914 1041 914 1041 974 1091.5 c 128,-1,16
 1034 1142 1034 1142 1089.5 1164 c 128,-1,17
 1145 1186 1145 1186 1222.5 1186 c 128,-1,18
 1300 1186 1300 1186 1361.5 1157.5 c 128,-1,19
 1423 1129 1423 1129 1464 1076 c 0,20,21
 1545 970 1545 970 1545 772 c 0,22,23
 1545 588 1545 588 1464 475 c 0,24,25
 1377 352 1377 352 1219 352 c 0,26,27
 1028 352 1028 352 924 480 c 0,28,29
 892 520 892 520 863 570 c 1,30,31
 762 402 762 402 636 360 c 0,0,1
939 709 m 1,32,33
 1019 572 1019 572 1120 526 c 0,34,35
 1155 510 1155 510 1190.5 510 c 128,-1,36
 1226 510 1226 510 1257 531 c 128,-1,37
 1288 552 1288 552 1311 588 c 0,38,39
 1362 668 1362 668 1362 781.5 c 128,-1,40
 1362 895 1362 895 1317.5 957.5 c 128,-1,41
 1273 1020 1273 1020 1213 1020 c 128,-1,42
 1153 1020 1153 1020 1119.5 998 c 128,-1,43
 1086 976 1086 976 1058 935.5 c 128,-1,44
 1030 895 1030 895 1003 837.5 c 128,-1,45
 976 780 976 780 939 709 c 1,32,33
776 786 m 1,46,47
 659 1020 659 1020 526 1020 c 0,48,49
 445 1020 445 1020 390 940 c 0,50,51
 338 865 338 865 338 788.5 c 128,-1,52
 338 712 338 712 351.5 663.5 c 128,-1,53
 365 615 365 615 390 581 c 0,54,55
 441 510 441 510 528 510 c 0,56,57
 590 510 590 510 647 578 c 0,58,59
 701 641 701 641 776 786 c 1,46,47
EndSplineSet
EndChar

StartChar: integral
Encoding: 8747 8747 402
Width: 2211
GlyphClass: 2
Flags: W
LayerCount: 2
Fore
SplineSet
1559 1550 m 1,0,-1
 2006 1550 l 1,1,-1
 2006 1060 l 1,2,-1
 1890 1060 l 2,3,4
 1739 1060 1739 1060 1668 1101 c 0,5,6
 1559 1165 1559 1165 1559 1368 c 2,7,-1
 1559 1550 l 1,0,-1
837 150 m 1,8,-1
 837 1061 l 2,9,10
 837 1411 837 1411 1088 1512 c 0,11,12
 1178 1549 1178 1549 1308 1549 c 2,13,-1
 1375 1549 l 1,14,-1
 1373 148 l 2,15,16
 1373 -202 1373 -202 1122 -304 c 0,17,18
 1032 -340 1032 -340 902 -340 c 2,19,-1
 835 -340 l 1,20,-1
 835 142 l 1,21,-1
 837 150 l 1,8,-1
320 149 m 2,22,23
 471 149 471 149 542 108 c 0,24,25
 651 44 651 44 651 -159 c 2,26,-1
 651 -341 l 1,27,-1
 204 -341 l 1,28,-1
 204 149 l 1,29,-1
 320 149 l 2,22,23
EndSplineSet
EndChar

StartChar: approxequal
Encoding: 8776 8776 403
Width: 1529
GlyphClass: 2
Flags: W
LayerCount: 2
Fore
SplineSet
137 869 m 2,0,1
 137 1004 137 1004 219 1094 c 0,2,3
 306 1190 306 1190 452 1190 c 2,4,-1
 603 1190 l 2,5,6
 723 1190 723 1190 817 1112 c 0,7,8
 907 1038 907 1038 932 931 c 1,9,10
 957 1038 957 1038 1047 1112 c 0,11,12
 1141 1190 1141 1190 1261 1190 c 2,13,-1
 1322 1190 l 1,14,-1
 1322 1053 l 2,15,16
 1322 918 1322 918 1240 828 c 0,17,18
 1153 732 1153 732 1007 732 c 2,19,-1
 857 732 l 2,20,21
 735 732 735 732 642 810 c 0,22,23
 553 885 553 885 528 992 c 1,24,25
 503 884 503 884 414 810 c 0,26,27
 319 732 319 732 198 732 c 2,28,-1
 137 732 l 1,29,-1
 137 869 l 2,0,1
172 189 m 2,30,31
 172 324 172 324 254 414 c 0,32,33
 341 510 341 510 487 510 c 2,34,-1
 638 510 l 2,35,36
 758 510 758 510 852 432 c 0,37,38
 942 358 942 358 967 251 c 1,39,40
 992 358 992 358 1082 432 c 0,41,42
 1176 510 1176 510 1296 510 c 2,43,-1
 1357 510 l 1,44,-1
 1357 373 l 2,45,46
 1357 238 1357 238 1275 148 c 0,47,48
 1188 52 1188 52 1042 52 c 2,49,-1
 892 52 l 2,50,51
 770 52 770 52 677 130 c 0,52,53
 588 205 588 205 563 312 c 1,54,55
 538 204 538 204 448 130 c 0,56,57
 354 52 354 52 233 52 c 2,58,-1
 172 52 l 1,59,-1
 172 189 l 2,30,31
EndSplineSet
EndChar

StartChar: notequal
Encoding: 8800 8800 404
Width: 1018
GlyphClass: 2
Flags: W
LayerCount: 2
Fore
SplineSet
282 267 m 1,0,-1
 33 267 l 1,1,-1
 33 461 l 1,2,-1
 359 461 l 1,3,-1
 443 670 l 1,4,-1
 33 670 l 1,5,-1
 33 861 l 1,6,-1
 519 861 l 1,7,-1
 673 1246 l 1,8,-1
 850 1190 l 1,9,-1
 718 861 l 1,10,-1
 985 861 l 1,11,-1
 985 670 l 1,12,-1
 642 670 l 1,13,-1
 559 461 l 1,14,-1
 985 461 l 1,15,-1
 985 267 l 1,16,-1
 481 267 l 1,17,-1
 351 -60 l 1,18,-1
 174 -3 l 1,19,-1
 282 267 l 1,0,-1
EndSplineSet
EndChar

StartChar: lessequal
Encoding: 8804 8804 405
Width: 1538
GlyphClass: 2
Flags: W
LayerCount: 2
Fore
SplineSet
968 1458 m 1,0,-1
 1093 1322 l 1,1,-1
 617 892 l 1,2,-1
 1093 479 l 1,3,-1
 968 343 l 1,4,-1
 345 892 l 1,5,-1
 968 1458 l 1,0,-1
258 191 m 1,6,-1
 1279 191 l 1,7,-1
 1279 -1 l 1,8,-1
 258 -1 l 1,9,-1
 258 191 l 1,6,-1
EndSplineSet
EndChar

StartChar: greaterequal
Encoding: 8805 8805 406
Width: 1538
GlyphClass: 2
Flags: W
LayerCount: 2
Fore
SplineSet
365 476 m 1,0,-1
 842 889 l 1,1,-1
 365 1319 l 1,2,-1
 489 1455 l 1,3,-1
 1113 889 l 1,4,-1
 489 340 l 1,5,-1
 365 476 l 1,0,-1
258 191 m 1,6,-1
 1279 191 l 1,7,-1
 1279 -1 l 1,8,-1
 258 -1 l 1,9,-1
 258 191 l 1,6,-1
EndSplineSet
EndChar

StartChar: lozenge
Encoding: 9674 9674 407
Width: 1536
GlyphClass: 2
Flags: W
LayerCount: 2
Fore
SplineSet
756 1527 m 1,0,-1
 757 1529 l 1,1,-1
 758 1530 l 1,2,-1
 759 1527 l 1,3,-1
 1380 596 l 1,4,-1
 758 -337 l 1,5,-1
 758 -340 l 1,6,-1
 757 -339 l 1,7,-1
 135 596 l 1,8,-1
 756 1527 l 1,0,-1
757 6 m 1,9,-1
 1108 596 l 1,10,-1
 757 1183 l 1,11,-1
 407 596 l 1,12,-1
 757 6 l 1,9,-1
EndSplineSet
EndChar

StartChar: ring.cap
Encoding: 65539 -1 411
Width: 1025
GlyphClass: 2
Flags: W
LayerCount: 2
Fore
SplineSet
499 1380 m 0,0,1
 338 1380 338 1380 234 1463 c 0,2,3
 128 1548 128 1548 128 1691 c 0,4,5
 128 1833 128 1833 245 1918 c 1,6,7
 356 2000 356 2000 522 2000 c 0,8,9
 687 2000 687 2000 792 1918 c 0,10,11
 900 1834 900 1834 900 1691 c 0,12,13
 900 1550 900 1550 780 1463 c 0,14,15
 664 1380 664 1380 499 1380 c 0,0,1
400.5 1594 m 128,-1,17
 436 1559 436 1559 504 1559 c 128,-1,18
 572 1559 572 1559 617 1594 c 128,-1,19
 662 1629 662 1629 662 1691 c 256,20,21
 662 1753 662 1753 624.5 1787.5 c 128,-1,22
 587 1822 587 1822 519.5 1822 c 128,-1,23
 452 1822 452 1822 408.5 1787.5 c 128,-1,24
 365 1753 365 1753 365 1691 c 256,25,16
 365 1629 365 1629 400.5 1594 c 128,-1,17
EndSplineSet
EndChar

StartChar: cedilla.cap
Encoding: 65540 -1 412
Width: 1229
GlyphClass: 2
Flags: W
LayerCount: 2
Fore
SplineSet
417 -428 m 2,0,1
 376 -376 376 -376 381 -334 c 0,2,3
 393 -245 393 -245 513 -158 c 2,4,-1
 717 -9 l 1,5,-1
 911 -259 l 1,6,-1
 515 -556 l 1,7,-1
 417 -428 l 2,0,1
EndSplineSet
EndChar

StartChar: commaaccent
Encoding: 65541 -1 413
Width: 1025
GlyphClass: 2
Flags: W
LayerCount: 2
Fore
SplineSet
737 -149 m 1,0,-1
 737 -306 l 2,1,2
 737 -471 737 -471 552 -536 c 0,3,4
 482 -560 482 -560 374 -560 c 2,5,-1
 281 -560 l 1,6,-1
 281 -149 l 1,7,-1
 737 -149 l 1,0,-1
EndSplineSet
EndChar

StartChar: circumflex.cap
Encoding: 65542 -1 414
Width: 1025
GlyphClass: 2
Flags: W
LayerCount: 2
Fore
SplineSet
180 1448 m 0,0,1
 80 1448 80 1448 26 1500 c 1,2,-1
 -19 1545 l 1,3,-1
 509 2000 l 1,4,-1
 1036 1545 l 1,5,-1
 991 1500 l 2,6,7
 939 1448 939 1448 862 1448 c 0,8,9
 714 1448 714 1448 569 1595 c 2,10,-1
 509 1656 l 1,11,-1
 480 1625 l 1,12,13
 395 1531 395 1531 315 1489.5 c 128,-1,14
 235 1448 235 1448 180 1448 c 0,0,1
EndSplineSet
EndChar

StartChar: commaaccent.cap
Encoding: 65543 -1 415
Width: 1025
GlyphClass: 2
Flags: W
LayerCount: 2
Fore
SplineSet
737 -149 m 1,0,-1
 737 -306 l 2,1,2
 737 -471 737 -471 552 -536 c 0,3,4
 482 -560 482 -560 374 -560 c 2,5,-1
 281 -560 l 1,6,-1
 281 -149 l 1,7,-1
 737 -149 l 1,0,-1
EndSplineSet
EndChar

StartChar: caron.cap
Encoding: 65544 -1 416
Width: 1025
GlyphClass: 2
Flags: W
LayerCount: 2
Fore
SplineSet
-17 1903 m 1,0,-1
 28 1948 l 2,1,2
 80 2000 80 2000 158 2000 c 0,3,4
 305 2000 305 2000 450 1853 c 2,5,-1
 510 1792 l 1,6,-1
 567 1853 l 1,7,8
 714 2000 714 2000 852 2000 c 0,9,10
 938 2000 938 2000 991 1948 c 2,11,-1
 1037 1903 l 1,12,-1
 510 1448 l 1,13,-1
 -17 1903 l 1,0,-1
EndSplineSet
EndChar

StartChar: tilde.cap
Encoding: 65545 -1 417
Width: 1025
GlyphClass: 2
Flags: W
LayerCount: 2
Fore
SplineSet
-56 1542 m 1,0,-1
 -56 1679 l 2,1,2
 -56 1814 -56 1814 32 1904 c 0,3,4
 127 2000 127 2000 284 2000 c 2,5,-1
 385 2000 l 2,6,7
 491 2000 491 2000 576 1924 c 0,8,9
 649 1859 649 1859 689 1750 c 1,10,11
 752 1920 752 1920 888 1980 c 1,12,13
 936 2000 936 2000 993 2000 c 2,14,-1
 1079 2000 l 1,15,-1
 1079 1863 l 2,16,17
 1079 1728 1079 1728 990 1638 c 0,18,19
 896 1542 896 1542 739 1542 c 2,20,-1
 639 1542 l 2,21,22
 483 1542 483 1542 382 1696 c 0,23,24
 353 1741 353 1741 334 1790 c 1,25,26
 268 1620 268 1620 134 1562 c 0,27,28
 87 1542 87 1542 30 1542 c 2,29,-1
 -56 1542 l 1,0,-1
EndSplineSet
EndChar

StartChar: breve.cap
Encoding: 65546 -1 418
Width: 1025
GlyphClass: 2
Flags: W
LayerCount: 2
Fore
SplineSet
728 1601 m 0,0,1
 629 1582 629 1582 514.5 1582 c 128,-1,2
 400 1582 400 1582 302.5 1601 c 128,-1,3
 205 1620 205 1620 133 1663 c 0,4,5
 -22 1756 -22 1756 -22 1948 c 2,6,-1
 -22 2000 l 1,7,-1
 273 2000 l 1,8,9
 273 1901 273 1901 345 1852 c 0,10,11
 406 1810 406 1810 514 1810 c 0,12,13
 672 1810 672 1810 714 1910 c 0,14,15
 729 1946 729 1946 729 2000 c 1,16,-1
 1048 2000 l 1,17,-1
 1048 1973 l 2,18,19
 1048 1663 1048 1663 728 1601 c 0,0,1
EndSplineSet
EndChar

StartChar: hungarumlaut.cap
Encoding: 65547 -1 419
Width: 1025
GlyphClass: 2
Flags: W
LayerCount: 2
Fore
SplineSet
663 1543 m 1,0,-1
 1192 2000 l 1,1,-1
 1378 1813 l 1,2,-1
 1158 1593 l 2,3,4
 1011 1446 1011 1446 855 1446 c 0,5,6
 760 1446 760 1446 708 1498 c 2,7,-1
 663 1543 l 1,0,-1
367.5 1483.5 m 128,-1,9
 289 1446 289 1446 230 1446 c 0,10,11
 120 1446 120 1446 68 1498 c 2,12,-1
 23 1543 l 1,13,-1
 552 2000 l 1,14,-1
 738 1813 l 1,15,-1
 518 1593 l 2,16,8
 446 1521 446 1521 367.5 1483.5 c 128,-1,9
EndSplineSet
EndChar

StartChar: macron.cap
Encoding: 65548 -1 420
Width: 1025
GlyphClass: 2
Flags: W
LayerCount: 2
Fore
SplineSet
145 1870 m 1,0,-1
 875 1870 l 1,1,-1
 875 1643 l 1,2,-1
 145 1643 l 1,3,-1
 145 1870 l 1,0,-1
EndSplineSet
EndChar

StartChar: dotaccent.cap
Encoding: 65549 -1 421
Width: 1025
GlyphClass: 2
Flags: W
LayerCount: 2
Fore
SplineSet
519 1594 m 0,0,1
 188 1594 188 1594 188 1801 c 0,2,3
 188 1907 188 1907 267 1953.5 c 128,-1,4
 346 2000 346 2000 508 2000 c 128,-1,5
 670 2000 670 2000 747 1953.5 c 128,-1,6
 824 1907 824 1907 824 1800.5 c 128,-1,7
 824 1694 824 1694 752.5 1644 c 128,-1,8
 681 1594 681 1594 519 1594 c 0,0,1
EndSplineSet
EndChar

StartChar: dieresis.cap
Encoding: 65550 -1 422
Width: 1025
GlyphClass: 2
Flags: W
LayerCount: 2
Fore
SplineSet
790.5 2000 m 128,-1,1
 882 2000 882 2000 924.5 1993.5 c 128,-1,2
 967 1987 967 1987 995 1968 c 0,3,4
 1051 1932 1051 1932 1051 1831 c 0,5,6
 1051 1728 1051 1728 1000 1689 c 0,7,8
 953 1654 953 1654 864 1654 c 0,9,10
 709 1654 709 1654 651 1692 c 128,-1,11
 593 1730 593 1730 593 1830.5 c 128,-1,12
 593 1931 593 1931 646 1965.5 c 128,-1,0
 699 2000 699 2000 790.5 2000 c 128,-1,1
172.5 1998 m 128,-1,14
 264 1998 264 1998 306.5 1991.5 c 128,-1,15
 349 1985 349 1985 377 1966 c 0,16,17
 433 1930 433 1930 433 1829 c 0,18,19
 433 1726 433 1726 382 1687 c 0,20,21
 335 1652 335 1652 246 1652 c 0,22,23
 91 1652 91 1652 33 1690 c 128,-1,24
 -25 1728 -25 1728 -25 1828.5 c 128,-1,25
 -25 1929 -25 1929 28 1963.5 c 128,-1,13
 81 1998 81 1998 172.5 1998 c 128,-1,14
EndSplineSet
EndChar

StartChar: grave.cap
Encoding: 65551 -1 423
Width: 1025
GlyphClass: 2
Flags: W
LayerCount: 2
Fore
SplineSet
822 1498 m 2,0,1
 770 1446 770 1446 660 1446 c 0,2,3
 601 1446 601 1446 522.5 1483.5 c 128,-1,4
 444 1521 444 1521 372 1593 c 2,5,-1
 152 1813 l 1,6,-1
 338 2000 l 1,7,-1
 867 1543 l 1,8,-1
 822 1498 l 2,0,1
EndSplineSet
EndChar

StartChar: acute.cap
Encoding: 65552 -1 424
Width: 1025
GlyphClass: 2
Flags: W
LayerCount: 2
Fore
SplineSet
497.5 1483.5 m 128,-1,1
 419 1446 419 1446 360 1446 c 0,2,3
 250 1446 250 1446 198 1498 c 2,4,-1
 153 1543 l 1,5,-1
 682 2000 l 1,6,-1
 868 1813 l 1,7,-1
 648 1593 l 2,8,0
 576 1521 576 1521 497.5 1483.5 c 128,-1,1
EndSplineSet
EndChar

